<svg id="Layer_1" data-name="Layer 1" xmlns="http://www.w3.org/2000/svg" width="97.66817" height="83.58971" viewBox="0 0 97.66817 83.58971">
  <defs>
    <style>
      .cls-1 {
        fill: #c7effd;
      }

      .cls-2 {
        fill: none;
        stroke: #fff;
        stroke-miterlimit: 10;
      }

      .cls-3 {
        fill: #2b2b2b;
      }
    </style>
  </defs>
  <g>
    <path class="cls-1" d="M20.66456,30.42842c9.79874-6.97024,25.54839-2.70968,30.06452,8a12.89707,12.89707,0,0,1,14.32258.90322c7.35484,5.41936,5.03226,14.32258,5.03226,14.32258s15.09677.7742,14.45161,11.09678S82.471,83.33164,66.342,83.33164s-40.38709.25807-51.2258.25807S-1.658,71.07358.4065,62.81551C3.5449,50.26192,13.95489,52.3639,13.95489,52.3639S8.14843,39.33164,20.66456,30.42842Z"/>
    <path class="cls-2" d="M87.24521,2.04132"/>
    <g>
      <path class="cls-3" d="M87.50215,46.25747c1.25391-3.90771,1.68262-10.29053-3.78369-13.22607-4.20514-2.2583-7.34069-2.45832-9.85516-1.69916-1.22583-1.93829-5.811-7.89294-15.04865-6.27594-8.97454,1.57056-11.2384,7.95068-11.76806,10.25214a11.55037,11.55037,0,0,0-7.9585,2.534c-.67041.36084-3.77246,2.29737-4.71582,7.67139a10.79858,10.79858,0,0,0-6.68262,3.437c-1.67431,2.00928-2.2871,4.68115-1.82128,7.9419.87793,6.14746,7.88378,7.376,8.18115,7.42529a.96859.96859,0,0,0,.16357.01367H87.24532c5.19141,0,9.25781-3.55664,9.25781-8.09668C96.50313,48.75649,91.89376,46.60708,87.50215,46.25747Zm-.25683,16.07422H34.30489c-.67139-.13281-5.82422-1.29541-6.457-5.72217-.38135-2.66992.07959-4.8125,1.36914-6.36767,2.16748-2.61328,6.03125-2.8125,6.06787-2.81446a1.00025,1.00025,0,0,0,.95264-.87256c.686-5.37744,3.69677-6.90283,3.81591-6.96093a.98607.98607,0,0,0,.20166-.125c5.66846-4.51221,11.74512-.748,12.00049-.585a1,1,0,0,0,1.07813-1.68457,14.23957,14.23957,0,0,0-4.30963-1.63013c.45959-1.97553,2.39264-7.18787,10.13531-8.54321,7.78986-1.3592,11.64551,3.26117,12.8374,5.08056a17.41137,17.41137,0,0,0-3.49414,2.61914,1,1,0,0,0,1.35645,1.46973c3.00879-2.77783,6.26123-4.97412,12.91308-1.40234,6.06885,3.25976,2.54639,11.65771,2.39307,12.01367a1.00088,1.00088,0,0,0,.91846,1.396c5.74414,0,8.41943,2.55225,8.41943,8.03223C94.50313,59.654,91.31514,62.33169,87.24532,62.33169Z"/>
      <path class="cls-3" d="M84.988,26.9103c6.9917,0,12.68018-6.17724,12.68018-13.7705A13.71013,13.71013,0,0,0,88.99776.05972a1,1,0,0,0-1.269,1.31006A12.77714,12.77714,0,0,1,88.62813,6.11c0,6.49023-4.78662,11.77-10.66992,11.77a9.788,9.788,0,0,1-3.33984-.59033,1.00026,1.00026,0,0,0-1.26954,1.31054A12.6903,12.6903,0,0,0,84.988,26.9103ZM77.95821,19.88c6.98633,0,12.66992-6.17725,12.66992-13.77a14.92437,14.92437,0,0,0-.3457-3.21094A12.01607,12.01607,0,0,1,95.66817,13.1398c0,6.49023-4.791,11.7705-10.68018,11.7705a10.45189,10.45189,0,0,1-8.83984-5.1709A11.6874,11.6874,0,0,0,77.95821,19.88Z"/>
    </g>
  </g>
</svg>
