<?xml version="1.0" encoding="UTF-8"?>
<svg width="124px" height="20px" viewBox="0 0 124 20" version="1.1" xmlns="http://www.w3.org/2000/svg" xmlns:xlink="http://www.w3.org/1999/xlink">
    <title>Group 13</title>
    <defs>
        <filter color-interpolation-filters="auto" id="filter-1">
            <feColorMatrix in="SourceGraphic" type="matrix" values="0 0 0 0 0.662745 0 0 0 0 0.654902 0 0 0 0 0.650980 0 0 0 1.000000 0"></feColorMatrix>
        </filter>
    </defs>
    <g id="Page-1" stroke="none" stroke-width="1" fill="none" fill-rule="evenodd">
        <g id="Puffy-VS-Purple-Desktop" transform="translate(-1311.000000, -5753.000000)">
            <g id="TABLE" transform="translate(375.000000, 5027.000000)">
                <g id="Group-13" transform="translate(917.000000, 370.000000)" filter="url(#filter-1)">
                    <g transform="translate(19.000000, 356.000000)">
                        <polygon id="Star" fill="#D8D8D8" points="10 15 4.12214748 18.0901699 5.24471742 11.545085 0.489434837 6.90983006 7.06107374 5.95491503 10 0 12.9389263 5.95491503 19.5105652 6.90983006 14.7552826 11.545085 15.8778525 18.0901699"></polygon>
                        <polygon id="Star-Copy" fill="#D8D8D8" points="36 15 30.1221475 18.0901699 31.2447174 11.545085 26.4894348 6.90983006 33.0610737 5.95491503 36 0 38.9389263 5.95491503 45.5105652 6.90983006 40.7552826 11.545085 41.8778525 18.0901699"></polygon>
                        <polygon id="Star-Copy-2" fill="#D8D8D8" points="62 15 56.1221475 18.0901699 57.2447174 11.545085 52.4894348 6.90983006 59.0610737 5.95491503 62 0 64.9389263 5.95491503 71.5105652 6.90983006 66.7552826 11.545085 67.8778525 18.0901699"></polygon>
                        <polygon id="Star-Copy-3" fill="#D8D8D8" points="88 15 82.1221475 18.0901699 83.2447174 11.545085 78.4894348 6.90983006 85.0610737 5.95491503 88 0 90.9389263 5.95491503 97.5105652 6.90983006 92.7552826 11.545085 93.8778525 18.0901699"></polygon>
                        <path d="M114,1.12977573 L116.606894,6.41191891 L122.436085,7.25894996 L118.218042,11.370525 L119.213787,17.1761622 L114,14.4351121 L108.786213,17.1761622 L109.781958,11.370525 L105.563915,7.25894996 L111.393106,6.41191891 L114,1.12977573 Z" id="Star-Copy-4" stroke="#A9A7A6"></path>
                    </g>
                </g>
            </g>
        </g>
    </g>
</svg>