<?xml version="1.0" encoding="UTF-8"?>
<svg width="112px" height="21px" viewBox="0 0 112 21" version="1.1" xmlns="http://www.w3.org/2000/svg" xmlns:xlink="http://www.w3.org/1999/xlink">
    <title>Group 46</title>
    <defs>
        <polygon id="path-1" points="10 15 4.12214748 18.0901699 5.24471742 11.545085 0.489434837 6.90983006 7.06107374 5.95491503 10 0 12.9389263 5.95491503 19.5105652 6.90983006 14.7552826 11.545085 15.8778525 18.0901699"></polygon>
    </defs>
    <g id="Page-1" stroke="none" stroke-width="1" fill="none" fill-rule="evenodd">
        <g id="Puffy-VS-Purple-Desktop" transform="translate(-425.000000, -12915.000000)">
            <g id="Ranked-8" transform="translate(375.000000, 12744.000000)">
                <g id="Group-Copy-2" transform="translate(50.000000, 50.000000)">
                    <g id="Group-17" transform="translate(0.000000, 117.000000)">
                        <g id="Group-46" transform="translate(0.000000, 4.500000)">
                            <polygon id="Star" fill="#F1B45E" points="10 15 4.12214748 18.0901699 5.24471742 11.545085 0.489434837 6.90983006 7.06107374 5.95491503 10 0 12.9389263 5.95491503 19.5105652 6.90983006 14.7552826 11.545085 15.8778525 18.0901699"></polygon>
                            <polygon id="Star-Copy-6" fill="#F1B45E" points="56 15 50.1221475 18.0901699 51.2447174 11.545085 46.4894348 6.90983006 53.0610737 5.95491503 56 0 58.9389263 5.95491503 65.5105652 6.90983006 60.7552826 11.545085 61.8778525 18.0901699"></polygon>
                            <polygon id="Star-Copy-5" fill="#F1B45E" points="33 15 27.1221475 18.0901699 28.2447174 11.545085 23.4894348 6.90983006 30.0610737 5.95491503 33 0 35.9389263 5.95491503 42.5105652 6.90983006 37.7552826 11.545085 38.8778525 18.0901699"></polygon>
                            <polygon id="Star-Copy-7" fill="#F1B45E" points="79 15 73.1221475 18.0901699 74.2447174 11.545085 69.4894348 6.90983006 76.0610737 5.95491503 79 0 81.9389263 5.95491503 88.5105652 6.90983006 83.7552826 11.545085 84.8778525 18.0901699"></polygon>
                            <path d="M102,1.12977573 L104.606894,6.41191891 L110.436085,7.25894996 L106.218042,11.370525 L107.213787,17.1761622 L102,14.4351121 L96.786213,17.1761622 L97.7819577,11.370525 L93.5639154,7.25894996 L99.3931065,6.41191891 L102,1.12977573 Z" id="Star-Copy-8" stroke="#F1B45E"></path>
                            <g id="Rectangle" transform="translate(92.000000, 0.000000)">
                                <mask id="mask-2" fill="white">
                                    <use xlink:href="#path-1"></use>
                                </mask>
                                <g id="Mask"></g>
                                <rect fill="#F1B45E" mask="url(#mask-2)" x="0" y="-0.5" width="10" height="19"></rect>
                            </g>
                        </g>
                    </g>
                </g>
            </g>
        </g>
    </g>
</svg>