<?xml version="1.0" encoding="UTF-8"?>
<svg width="449px" height="74px" viewBox="0 0 449 74" version="1.1" xmlns="http://www.w3.org/2000/svg" xmlns:xlink="http://www.w3.org/1999/xlink">
    <title>Group 26</title>
    <defs>
        <path d="M65.098,73.336 L65.098,68.907 C63.3813333,68.1516667 61.6646667,67.4821667 59.948,66.8985 C58.2313333,66.3148333 56.5146667,65.817 54.798,65.405 L54.798,65.405 L54.798,0 L51.296,0 C47.6566667,2.19733333 43.6911667,4.12 39.3995,5.768 C35.1078333,7.416 31.1423333,8.72066667 27.503,9.682 L27.503,9.682 L28.018,13.493 C30.2153333,13.5616667 32.344,13.493 34.404,13.287 C36.464,13.081 38.4553333,12.669 40.378,12.051 L40.378,12.051 L39.966,18.128 L39.966,65.405 C38.1806667,65.817 36.4125,66.3148333 34.6615,66.8985 C32.9105,67.4821667 31.1766667,68.1516667 29.46,68.907 L29.46,68.907 L29.46,73.336 L65.098,73.336 Z" id="path-1"></path>
        <path d="M5.7,29.436 L7.6,21.336 L13.8,21.336 L11.9,29.436 L15.4,29.436 L17.3,21.336 L20.75,21.336 L21.85,18.136 L18.05,18.136 L19.6,11.536 L23.25,11.536 L24.35,8.336 L20.4,8.336 L22.35,0.236 L18.85,0.236 L16.9,8.336 L10.7,8.336 L12.6,0.236 L9.1,0.236 L7.15,8.336 L3.45,8.336 L2.5,11.536 L6.35,11.536 L4.8,18.136 L0.95,18.136 L0,21.336 L4.05,21.336 L2.15,29.436 L5.7,29.436 Z M14.55,18.136 L8.35,18.136 L9.9,11.536 L16.1,11.536 L14.55,18.136 Z" id="path-2"></path>
        <path d="M38.628,39.216 C39.972,39.216 41.268,39.078 42.516,38.802 C43.764,38.526 44.874,38.088 45.846,37.488 C46.818,36.888 47.592,36.12 48.168,35.184 C48.744,34.248 49.032,33.132 49.032,31.836 C49.032,30.804 48.834,29.91 48.438,29.154 C48.042,28.398 47.532,27.768 46.908,27.264 C46.284,26.76 45.582,26.376 44.802,26.112 C44.022,25.848 43.248,25.668 42.48,25.572 L42.48,25.572 L42.48,25.428 C43.248,25.284 43.962,25.044 44.622,24.708 C45.282,24.372 45.858,23.952 46.35,23.448 C46.842,22.944 47.226,22.362 47.502,21.702 C47.778,21.042 47.916,20.328 47.916,19.56 C47.916,18.336 47.664,17.334 47.16,16.554 C46.656,15.774 45.984,15.168 45.144,14.736 C44.304,14.304 43.344,14.004 42.264,13.836 C41.184,13.668 40.068,13.584 38.916,13.584 C37.86,13.584 36.924,13.62 36.108,13.692 C35.292,13.764 34.428,13.8 33.516,13.8 L33.516,13.8 L27.72,13.8 L27.72,15.168 C28.152,15.408 28.632,15.618 29.16,15.798 C29.688,15.978 30.192,16.116 30.672,16.212 L30.672,16.212 L30.672,36.588 C30.192,36.636 29.694,36.756 29.178,36.948 C28.662,37.14 28.176,37.368 27.72,37.632 L27.72,37.632 L27.72,39 L32.004,39 C32.388,39 32.862,39.012 33.426,39.036 C33.99,39.06 34.572,39.084 35.172,39.108 C35.772,39.132 36.372,39.156 36.972,39.18 C37.572,39.204 38.124,39.216 38.628,39.216 Z M37.008,25.032 L35.856,25.032 L35.856,16.068 C36.168,16.02 36.516,15.984 36.9,15.96 C37.284,15.936 37.74,15.924 38.268,15.924 C39.516,15.924 40.536,16.278 41.328,16.986 C42.12,17.694 42.516,18.804 42.516,20.316 C42.516,21.348 42.228,22.266 41.652,23.07 C41.076,23.874 40.32,24.468 39.384,24.852 C39.024,24.9 38.64,24.942 38.232,24.978 C37.824,25.014 37.416,25.032 37.008,25.032 L37.008,25.032 Z M38.592,36.876 C37.848,36.876 37.29,36.852 36.918,36.804 C36.546,36.756 36.192,36.696 35.856,36.624 L35.856,36.624 L35.856,27.372 L37.764,27.372 C38.58,27.372 39.336,27.438 40.032,27.57 C40.728,27.702 41.328,27.942 41.832,28.29 C42.336,28.638 42.732,29.106 43.02,29.694 C43.308,30.282 43.452,31.032 43.452,31.944 C43.452,33.432 43.02,34.626 42.156,35.526 C41.292,36.426 40.104,36.876 38.592,36.876 Z M60.66,39.432 C61.596,39.432 62.466,39.33 63.27,39.126 C64.074,38.922 64.782,38.658 65.394,38.334 C66.006,38.01 66.522,37.638 66.942,37.218 C67.362,36.798 67.668,36.384 67.86,35.976 L67.86,35.976 L67.176,35.256 C66.696,35.64 66.03,35.952 65.178,36.192 C64.326,36.432 63.504,36.552 62.712,36.552 C60.864,36.552 59.466,35.988 58.518,34.86 C57.57,33.732 57.084,32.22 57.06,30.324 L57.06,30.324 L68.112,30.324 C68.424,28.524 68.442,27 68.166,25.752 C67.89,24.504 67.398,23.496 66.69,22.728 C65.982,21.96 65.094,21.408 64.026,21.072 C62.958,20.736 61.812,20.568 60.588,20.568 C57.732,20.568 55.5,21.372 53.892,22.98 C52.284,24.588 51.48,26.928 51.48,30 C51.48,31.44 51.678,32.736 52.074,33.888 C52.47,35.04 53.052,36.03 53.82,36.858 C54.588,37.686 55.548,38.322 56.7,38.766 C57.852,39.21 59.172,39.432 60.66,39.432 Z M62.964,28.452 L57.168,28.452 C57.24,27.3 57.36,26.346 57.528,25.59 C57.696,24.834 57.918,24.234 58.194,23.79 C58.47,23.346 58.794,23.04 59.166,22.872 C59.538,22.704 59.964,22.62 60.444,22.62 C61.524,22.62 62.256,23.124 62.64,24.132 C63.024,25.14 63.132,26.58 62.964,28.452 L62.964,28.452 Z M77.472,39.432 C79.728,39.432 81.528,38.958 82.872,38.01 C84.216,37.062 84.888,35.76 84.888,34.104 C84.888,33.168 84.666,32.364 84.222,31.692 C83.778,31.02 83.226,30.438 82.566,29.946 C81.906,29.454 81.186,29.016 80.406,28.632 C79.626,28.248 78.906,27.864 78.246,27.48 C77.586,27.096 77.034,26.682 76.59,26.238 C76.146,25.794 75.924,25.272 75.924,24.672 C75.924,24.144 76.11,23.67 76.482,23.25 C76.854,22.83 77.4,22.62 78.12,22.62 C78.504,22.62 78.852,22.638 79.164,22.674 C79.476,22.71 79.776,22.788 80.064,22.908 L80.064,22.908 L81.576,26.58 L82.8,26.58 C83.064,25.86 83.34,25.062 83.628,24.186 C83.916,23.31 84.108,22.488 84.204,21.72 C83.364,21.36 82.386,21.078 81.27,20.874 C80.154,20.67 78.948,20.568 77.652,20.568 C76.716,20.568 75.846,20.682 75.042,20.91 C74.238,21.138 73.548,21.456 72.972,21.864 C72.396,22.272 71.94,22.77 71.604,23.358 C71.268,23.946 71.1,24.6 71.1,25.32 C71.1,26.328 71.322,27.18 71.766,27.876 C72.21,28.572 72.762,29.178 73.422,29.694 C74.082,30.21 74.802,30.66 75.582,31.044 C76.362,31.428 77.082,31.812 77.742,32.196 C78.402,32.58 78.954,33 79.398,33.456 C79.842,33.912 80.064,34.452 80.064,35.076 C80.064,35.796 79.776,36.36 79.2,36.768 C78.624,37.176 77.988,37.38 77.292,37.38 C77.004,37.38 76.698,37.362 76.374,37.326 C76.05,37.29 75.756,37.176 75.492,36.984 L75.492,36.984 L73.728,33.06 L72.504,33.06 C72.096,33.756 71.712,34.548 71.352,35.436 C70.992,36.324 70.788,37.2 70.74,38.064 C71.628,38.496 72.684,38.832 73.908,39.072 C75.132,39.312 76.32,39.432 77.472,39.432 Z M93.78,39.432 C94.476,39.432 95.142,39.36 95.778,39.216 C96.414,39.072 97.002,38.892 97.542,38.676 C98.082,38.46 98.562,38.232 98.982,37.992 C99.402,37.752 99.72,37.524 99.936,37.308 L99.936,37.308 L99.684,36.12 C99.228,36.288 98.73,36.402 98.19,36.462 C97.65,36.522 97.164,36.552 96.732,36.552 C95.868,36.552 95.25,36.264 94.878,35.688 C94.506,35.112 94.32,34.08 94.32,32.592 L94.32,32.592 L94.32,23.268 L99.072,23.268 L99.072,21 L94.32,21 L94.32,16.428 L93.096,16.428 C92.856,16.476 92.544,16.548 92.16,16.644 C91.776,16.74 91.386,16.842 90.99,16.95 C90.594,17.058 90.222,17.178 89.874,17.31 C89.526,17.442 89.28,17.58 89.136,17.724 L89.136,17.724 L89.136,20.64 C88.128,20.88 87.168,21.288 86.256,21.864 L86.256,21.864 L86.256,23.268 L89.136,23.268 L89.136,34.248 C89.136,36.072 89.52,37.392 90.288,38.208 C91.056,39.024 92.22,39.432 93.78,39.432 Z M119.556,39 L119.556,37.632 C119.076,37.368 118.56,37.128 118.008,36.912 C117.456,36.696 116.952,36.54 116.496,36.444 L116.496,36.444 L116.496,21.684 L116.46,17.112 L116.784,17.112 L118.08,21.324 L124.992,39 L126.648,39 L133.596,21.18 L134.784,17.328 L135.072,17.328 L134.892,21.54 L134.892,36.588 C134.364,36.708 133.872,36.852 133.416,37.02 C132.96,37.188 132.492,37.392 132.012,37.632 L132.012,37.632 L132.012,39 L142.776,39 L142.776,37.632 C142.416,37.44 142.002,37.248 141.534,37.056 C141.066,36.864 140.58,36.72 140.076,36.624 L140.076,36.624 L140.076,16.212 C140.556,16.116 141.03,15.978 141.498,15.798 C141.966,15.618 142.404,15.408 142.812,15.168 L142.812,15.168 L142.812,13.8 L133.884,13.8 L128.268,28.38 L127.188,31.908 L127.152,31.908 L126.108,28.452 L120.6,13.8 L110.844,13.8 L110.844,15.168 C111.252,15.432 111.726,15.648 112.266,15.816 C112.806,15.984 113.316,16.116 113.796,16.212 L113.796,16.212 L113.796,36.408 C113.292,36.504 112.758,36.684 112.194,36.948 C111.63,37.212 111.156,37.44 110.772,37.632 L110.772,37.632 L110.772,39 L119.556,39 Z M150.084,39.432 C150.828,39.432 151.5,39.324 152.1,39.108 C152.7,38.892 153.222,38.61 153.666,38.262 C154.11,37.914 154.476,37.518 154.764,37.074 C155.052,36.63 155.256,36.168 155.376,35.688 L155.376,35.688 L155.556,35.688 C155.58,36.48 155.616,37.152 155.664,37.704 C155.712,38.256 155.856,38.808 156.096,39.36 L156.096,39.36 L157.32,39.36 C157.728,39.312 158.196,39.246 158.724,39.162 C159.252,39.078 159.786,38.97 160.326,38.838 C160.866,38.706 161.382,38.568 161.874,38.424 C162.366,38.28 162.756,38.136 163.044,37.992 L163.044,37.992 L163.044,36.732 L160.56,36.372 C160.512,35.94 160.482,35.532 160.47,35.148 C160.458,34.764 160.452,34.308 160.452,33.78 C160.452,32.556 160.482,31.362 160.542,30.198 C160.602,29.034 160.632,27.732 160.632,26.292 C160.632,25.5 160.536,24.756 160.344,24.06 C160.152,23.364 159.81,22.758 159.318,22.242 C158.826,21.726 158.148,21.318 157.284,21.018 C156.42,20.718 155.304,20.568 153.936,20.568 C152.328,20.568 150.804,20.748 149.364,21.108 C147.924,21.468 146.748,21.96 145.836,22.584 C145.884,22.992 145.962,23.412 146.07,23.844 C146.178,24.276 146.31,24.702 146.466,25.122 C146.622,25.542 146.79,25.938 146.97,26.31 C147.15,26.682 147.336,27.012 147.528,27.3 L147.528,27.3 L149.112,27.3 L150.804,22.98 C151.428,22.74 152.112,22.62 152.856,22.62 C154.056,22.62 154.836,23.1 155.196,24.06 C155.556,25.02 155.64,26.532 155.448,28.596 C153.48,28.692 151.806,28.848 150.426,29.064 C149.046,29.28 147.918,29.61 147.042,30.054 C146.166,30.498 145.524,31.068 145.116,31.764 C144.708,32.46 144.504,33.348 144.504,34.428 C144.504,35.196 144.648,35.886 144.936,36.498 C145.224,37.11 145.62,37.632 146.124,38.064 C146.628,38.496 147.216,38.832 147.888,39.072 C148.56,39.312 149.292,39.432 150.084,39.432 Z M152.352,36.552 C151.584,36.552 150.984,36.3 150.552,35.796 C150.12,35.292 149.904,34.584 149.904,33.672 C149.904,33.072 149.982,32.562 150.138,32.142 C150.294,31.722 150.576,31.374 150.984,31.098 C151.392,30.822 151.956,30.624 152.676,30.504 C153.396,30.384 154.32,30.312 155.448,30.288 L155.448,30.288 L155.448,33.888 C155.376,34.128 155.274,34.404 155.142,34.716 C155.01,35.028 154.818,35.316 154.566,35.58 C154.314,35.844 154.008,36.072 153.648,36.264 C153.288,36.456 152.856,36.552 152.352,36.552 Z M171.396,39.432 C172.092,39.432 172.758,39.36 173.394,39.216 C174.03,39.072 174.618,38.892 175.158,38.676 C175.698,38.46 176.178,38.232 176.598,37.992 C177.018,37.752 177.336,37.524 177.552,37.308 L177.552,37.308 L177.3,36.12 C176.844,36.288 176.346,36.402 175.806,36.462 C175.266,36.522 174.78,36.552 174.348,36.552 C173.484,36.552 172.866,36.264 172.494,35.688 C172.122,35.112 171.936,34.08 171.936,32.592 L171.936,32.592 L171.936,23.268 L176.688,23.268 L176.688,21 L171.936,21 L171.936,16.428 L170.712,16.428 C170.472,16.476 170.16,16.548 169.776,16.644 C169.392,16.74 169.002,16.842 168.606,16.95 C168.21,17.058 167.838,17.178 167.49,17.31 C167.142,17.442 166.896,17.58 166.752,17.724 L166.752,17.724 L166.752,20.64 C165.744,20.88 164.784,21.288 163.872,21.864 L163.872,21.864 L163.872,23.268 L166.752,23.268 L166.752,34.248 C166.752,36.072 167.136,37.392 167.904,38.208 C168.672,39.024 169.836,39.432 171.396,39.432 Z M185.436,39.432 C186.132,39.432 186.798,39.36 187.434,39.216 C188.07,39.072 188.658,38.892 189.198,38.676 C189.738,38.46 190.218,38.232 190.638,37.992 C191.058,37.752 191.376,37.524 191.592,37.308 L191.592,37.308 L191.34,36.12 C190.884,36.288 190.386,36.402 189.846,36.462 C189.306,36.522 188.82,36.552 188.388,36.552 C187.524,36.552 186.906,36.264 186.534,35.688 C186.162,35.112 185.976,34.08 185.976,32.592 L185.976,32.592 L185.976,23.268 L190.728,23.268 L190.728,21 L185.976,21 L185.976,16.428 L184.752,16.428 C184.512,16.476 184.2,16.548 183.816,16.644 C183.432,16.74 183.042,16.842 182.646,16.95 C182.25,17.058 181.878,17.178 181.53,17.31 C181.182,17.442 180.936,17.58 180.792,17.724 L180.792,17.724 L180.792,20.64 C179.784,20.88 178.824,21.288 177.912,21.864 L177.912,21.864 L177.912,23.268 L180.792,23.268 L180.792,34.248 C180.792,36.072 181.176,37.392 181.944,38.208 C182.712,39.024 183.876,39.432 185.436,39.432 Z M203.256,39 L203.256,37.596 C202.776,37.332 202.296,37.134 201.816,37.002 C201.336,36.87 200.856,36.78 200.376,36.732 L200.376,36.732 L200.376,27.516 C200.688,26.748 201.036,26.196 201.42,25.86 C201.804,25.524 202.14,25.284 202.428,25.14 L202.428,25.14 L207.36,25.14 L207.36,23.736 C207.24,23.184 207.084,22.602 206.892,21.99 C206.7,21.378 206.472,20.904 206.208,20.568 C205.56,20.544 204.936,20.676 204.336,20.964 C203.736,21.252 203.184,21.636 202.68,22.116 C202.176,22.596 201.738,23.124 201.366,23.7 C200.994,24.276 200.712,24.828 200.52,25.356 L200.52,25.356 L200.376,25.356 L200.376,20.568 L199.152,20.568 C198.768,20.616 198.294,20.676 197.73,20.748 C197.166,20.82 196.584,20.91 195.984,21.018 C195.384,21.126 194.802,21.252 194.238,21.396 C193.674,21.54 193.2,21.696 192.816,21.864 L192.816,21.864 L192.816,23.268 L195.192,23.556 L195.192,36.732 C194.808,36.828 194.424,36.936 194.04,37.056 C193.656,37.176 193.248,37.356 192.816,37.596 L192.816,37.596 L192.816,39 L203.256,39 Z M217.8,39.432 C218.736,39.432 219.606,39.33 220.41,39.126 C221.214,38.922 221.922,38.658 222.534,38.334 C223.146,38.01 223.662,37.638 224.082,37.218 C224.502,36.798 224.808,36.384 225,35.976 L225,35.976 L224.316,35.256 C223.836,35.64 223.17,35.952 222.318,36.192 C221.466,36.432 220.644,36.552 219.852,36.552 C218.004,36.552 216.606,35.988 215.658,34.86 C214.71,33.732 214.224,32.22 214.2,30.324 L214.2,30.324 L225.252,30.324 C225.564,28.524 225.582,27 225.306,25.752 C225.03,24.504 224.538,23.496 223.83,22.728 C223.122,21.96 222.234,21.408 221.166,21.072 C220.098,20.736 218.952,20.568 217.728,20.568 C214.872,20.568 212.64,21.372 211.032,22.98 C209.424,24.588 208.62,26.928 208.62,30 C208.62,31.44 208.818,32.736 209.214,33.888 C209.61,35.04 210.192,36.03 210.96,36.858 C211.728,37.686 212.688,38.322 213.84,38.766 C214.992,39.21 216.312,39.432 217.8,39.432 Z M220.104,28.452 L214.308,28.452 C214.38,27.3 214.5,26.346 214.668,25.59 C214.836,24.834 215.058,24.234 215.334,23.79 C215.61,23.346 215.934,23.04 216.306,22.872 C216.678,22.704 217.104,22.62 217.584,22.62 C218.664,22.62 219.396,23.124 219.78,24.132 C220.164,25.14 220.272,26.58 220.104,28.452 L220.104,28.452 Z M234.612,39.432 C236.868,39.432 238.668,38.958 240.012,38.01 C241.356,37.062 242.028,35.76 242.028,34.104 C242.028,33.168 241.806,32.364 241.362,31.692 C240.918,31.02 240.366,30.438 239.706,29.946 C239.046,29.454 238.326,29.016 237.546,28.632 C236.766,28.248 236.046,27.864 235.386,27.48 C234.726,27.096 234.174,26.682 233.73,26.238 C233.286,25.794 233.064,25.272 233.064,24.672 C233.064,24.144 233.25,23.67 233.622,23.25 C233.994,22.83 234.54,22.62 235.26,22.62 C235.644,22.62 235.992,22.638 236.304,22.674 C236.616,22.71 236.916,22.788 237.204,22.908 L237.204,22.908 L238.716,26.58 L239.94,26.58 C240.204,25.86 240.48,25.062 240.768,24.186 C241.056,23.31 241.248,22.488 241.344,21.72 C240.504,21.36 239.526,21.078 238.41,20.874 C237.294,20.67 236.088,20.568 234.792,20.568 C233.856,20.568 232.986,20.682 232.182,20.91 C231.378,21.138 230.688,21.456 230.112,21.864 C229.536,22.272 229.08,22.77 228.744,23.358 C228.408,23.946 228.24,24.6 228.24,25.32 C228.24,26.328 228.462,27.18 228.906,27.876 C229.35,28.572 229.902,29.178 230.562,29.694 C231.222,30.21 231.942,30.66 232.722,31.044 C233.502,31.428 234.222,31.812 234.882,32.196 C235.542,32.58 236.094,33 236.538,33.456 C236.982,33.912 237.204,34.452 237.204,35.076 C237.204,35.796 236.916,36.36 236.34,36.768 C235.764,37.176 235.128,37.38 234.432,37.38 C234.144,37.38 233.838,37.362 233.514,37.326 C233.19,37.29 232.896,37.176 232.632,36.984 L232.632,36.984 L230.868,33.06 L229.644,33.06 C229.236,33.756 228.852,34.548 228.492,35.436 C228.132,36.324 227.928,37.2 227.88,38.064 C228.768,38.496 229.824,38.832 231.048,39.072 C232.272,39.312 233.46,39.432 234.612,39.432 Z M250.884,39.432 C253.14,39.432 254.94,38.958 256.284,38.01 C257.628,37.062 258.3,35.76 258.3,34.104 C258.3,33.168 258.078,32.364 257.634,31.692 C257.19,31.02 256.638,30.438 255.978,29.946 C255.318,29.454 254.598,29.016 253.818,28.632 C253.038,28.248 252.318,27.864 251.658,27.48 C250.998,27.096 250.446,26.682 250.002,26.238 C249.558,25.794 249.336,25.272 249.336,24.672 C249.336,24.144 249.522,23.67 249.894,23.25 C250.266,22.83 250.812,22.62 251.532,22.62 C251.916,22.62 252.264,22.638 252.576,22.674 C252.888,22.71 253.188,22.788 253.476,22.908 L253.476,22.908 L254.988,26.58 L256.212,26.58 C256.476,25.86 256.752,25.062 257.04,24.186 C257.328,23.31 257.52,22.488 257.616,21.72 C256.776,21.36 255.798,21.078 254.682,20.874 C253.566,20.67 252.36,20.568 251.064,20.568 C250.128,20.568 249.258,20.682 248.454,20.91 C247.65,21.138 246.96,21.456 246.384,21.864 C245.808,22.272 245.352,22.77 245.016,23.358 C244.68,23.946 244.512,24.6 244.512,25.32 C244.512,26.328 244.734,27.18 245.178,27.876 C245.622,28.572 246.174,29.178 246.834,29.694 C247.494,30.21 248.214,30.66 248.994,31.044 C249.774,31.428 250.494,31.812 251.154,32.196 C251.814,32.58 252.366,33 252.81,33.456 C253.254,33.912 253.476,34.452 253.476,35.076 C253.476,35.796 253.188,36.36 252.612,36.768 C252.036,37.176 251.4,37.38 250.704,37.38 C250.416,37.38 250.11,37.362 249.786,37.326 C249.462,37.29 249.168,37.176 248.904,36.984 L248.904,36.984 L247.14,33.06 L245.916,33.06 C245.508,33.756 245.124,34.548 244.764,35.436 C244.404,36.324 244.2,37.2 244.152,38.064 C245.04,38.496 246.096,38.832 247.32,39.072 C248.544,39.312 249.732,39.432 250.884,39.432 Z M287.136,39 C287.136,38.568 287.112,37.998 287.064,37.29 C287.016,36.582 286.956,35.838 286.884,35.058 C286.812,34.278 286.734,33.504 286.65,32.736 C286.566,31.968 286.488,31.296 286.416,30.72 L286.416,30.72 L285.192,30.72 L283.428,34.752 L277.236,34.752 L275.04,34.968 L275.04,34.824 L276.912,33.564 C277.824,32.772 278.844,31.89 279.972,30.918 C281.1,29.946 282.156,28.89 283.14,27.75 C284.124,26.61 284.952,25.386 285.624,24.078 C286.296,22.77 286.632,21.384 286.632,19.92 C286.632,19.008 286.482,18.156 286.182,17.364 C285.882,16.572 285.414,15.876 284.778,15.276 C284.142,14.676 283.344,14.208 282.384,13.872 C281.424,13.536 280.284,13.368 278.964,13.368 C277.092,13.368 275.502,13.632 274.194,14.16 C272.886,14.688 271.812,15.312 270.972,16.032 C271.068,16.464 271.2,16.938 271.368,17.454 C271.536,17.97 271.716,18.492 271.908,19.02 C272.1,19.548 272.286,20.052 272.466,20.532 C272.646,21.012 272.808,21.432 272.952,21.792 L272.952,21.792 L274.176,21.792 L275.508,16.212 C275.916,16.092 276.282,16.008 276.606,15.96 C276.93,15.912 277.296,15.888 277.704,15.888 C279,15.888 280.002,16.302 280.71,17.13 C281.418,17.958 281.772,19.032 281.772,20.352 C281.772,21.36 281.586,22.392 281.214,23.448 C280.842,24.504 280.344,25.542 279.72,26.562 C279.096,27.582 278.388,28.584 277.596,29.568 C276.804,30.552 276,31.482 275.184,32.358 C274.368,33.234 273.564,34.038 272.772,34.77 C271.98,35.502 271.272,36.144 270.648,36.696 L270.648,36.696 L270.648,39 L287.136,39 Z M299.376,39.432 C300.768,39.432 302.052,39.156 303.228,38.604 C304.404,38.052 305.418,37.23 306.27,36.138 C307.122,35.046 307.782,33.69 308.25,32.07 C308.718,30.45 308.952,28.56 308.952,26.4 C308.952,22.056 308.112,18.798 306.432,16.626 C304.752,14.454 302.472,13.368 299.592,13.368 C298.248,13.368 297.006,13.644 295.866,14.196 C294.726,14.748 293.742,15.57 292.914,16.662 C292.086,17.754 291.438,19.11 290.97,20.73 C290.502,22.35 290.268,24.24 290.268,26.4 C290.268,28.464 290.466,30.3 290.862,31.908 C291.258,33.516 291.846,34.878 292.626,35.994 C293.406,37.11 294.36,37.962 295.488,38.55 C296.616,39.138 297.912,39.432 299.376,39.432 Z M299.34,37.452 C298.62,37.452 298.026,37.2 297.558,36.696 C297.09,36.192 296.712,35.466 296.424,34.518 C296.136,33.57 295.938,32.412 295.83,31.044 C295.722,29.676 295.668,28.128 295.668,26.4 C295.668,24.432 295.728,22.746 295.848,21.342 C295.968,19.938 296.178,18.792 296.478,17.904 C296.778,17.016 297.18,16.368 297.684,15.96 C298.188,15.552 298.824,15.348 299.592,15.348 C300.456,15.348 301.146,15.6 301.662,16.104 C302.178,16.608 302.574,17.334 302.85,18.282 C303.126,19.23 303.312,20.388 303.408,21.756 C303.504,23.124 303.552,24.672 303.552,26.4 C303.552,28.392 303.492,30.084 303.372,31.476 C303.252,32.868 303.03,34.008 302.706,34.896 C302.382,35.784 301.95,36.432 301.41,36.84 C300.87,37.248 300.18,37.452 299.34,37.452 Z M327.816,39 C327.816,38.568 327.792,37.998 327.744,37.29 C327.696,36.582 327.636,35.838 327.564,35.058 C327.492,34.278 327.414,33.504 327.33,32.736 C327.246,31.968 327.168,31.296 327.096,30.72 L327.096,30.72 L325.872,30.72 L324.108,34.752 L317.916,34.752 L315.72,34.968 L315.72,34.824 L317.592,33.564 C318.504,32.772 319.524,31.89 320.652,30.918 C321.78,29.946 322.836,28.89 323.82,27.75 C324.804,26.61 325.632,25.386 326.304,24.078 C326.976,22.77 327.312,21.384 327.312,19.92 C327.312,19.008 327.162,18.156 326.862,17.364 C326.562,16.572 326.094,15.876 325.458,15.276 C324.822,14.676 324.024,14.208 323.064,13.872 C322.104,13.536 320.964,13.368 319.644,13.368 C317.772,13.368 316.182,13.632 314.874,14.16 C313.566,14.688 312.492,15.312 311.652,16.032 C311.748,16.464 311.88,16.938 312.048,17.454 C312.216,17.97 312.396,18.492 312.588,19.02 C312.78,19.548 312.966,20.052 313.146,20.532 C313.326,21.012 313.488,21.432 313.632,21.792 L313.632,21.792 L314.856,21.792 L316.188,16.212 C316.596,16.092 316.962,16.008 317.286,15.96 C317.61,15.912 317.976,15.888 318.384,15.888 C319.68,15.888 320.682,16.302 321.39,17.13 C322.098,17.958 322.452,19.032 322.452,20.352 C322.452,21.36 322.266,22.392 321.894,23.448 C321.522,24.504 321.024,25.542 320.4,26.562 C319.776,27.582 319.068,28.584 318.276,29.568 C317.484,30.552 316.68,31.482 315.864,32.358 C315.048,33.234 314.244,34.038 313.452,34.77 C312.66,35.502 311.952,36.144 311.328,36.696 L311.328,36.696 L311.328,39 L327.816,39 Z M346.896,39 L346.896,37.452 C346.296,37.188 345.696,36.954 345.096,36.75 C344.496,36.546 343.896,36.372 343.296,36.228 L343.296,36.228 L343.296,13.368 L342.072,13.368 C340.8,14.136 339.414,14.808 337.914,15.384 C336.414,15.96 335.028,16.416 333.756,16.752 L333.756,16.752 L333.936,18.084 C334.704,18.108 335.448,18.084 336.168,18.012 C336.888,17.94 337.584,17.796 338.256,17.58 L338.256,17.58 L338.112,19.704 L338.112,36.228 C337.488,36.372 336.87,36.546 336.258,36.75 C335.646,36.954 335.04,37.188 334.44,37.452 L334.44,37.452 L334.44,39 L346.896,39 Z" id="path-3"></path>
        <filter color-interpolation-filters="auto" id="filter-4">
            <feColorMatrix in="SourceGraphic" type="matrix" values="0 0 0 0 0.639216 0 0 0 0 0.517647 0 0 0 0 0.431373 0 0 0 1.000000 0"></feColorMatrix>
        </filter>
        <path d="M3.90927755,7.86958634 C4.85054369,7.94746148 4.92880938,8.07033633 4.92996374,8.10810811 L4.92996374,8.10810811 C4.97175162,7.89057066 5.57478993,4.56945227 3.8081555,2.6293353 L3.8081555,2.6293353 C2.45131931,1.13851594 0.0433217874,0 0.0433217874,0 L0.0433217874,0 C0.0433217874,0 -0.693391549,7.48650592 3.90927755,7.86958634" id="path-5"></path>
        <linearGradient x1="-0.000454761483%" y1="50.0000664%" x2="99.99918%" y2="50.0000664%" id="linearGradient-7">
            <stop stop-color="#FFCA3D" offset="0%"></stop>
            <stop stop-color="#E6A800" offset="100%"></stop>
        </linearGradient>
        <path d="M0,3.19882177 C0,3.19882177 3.59724446,4.85653584 6.02930199,4.86486486 L6.02930199,4.86486486 L6.06000359,4.86486486 C6.20761685,4.86462689 6.35105471,4.85796367 6.48884346,4.84463723 L6.48884346,4.84463723 C10.6345412,4.4388947 11.8068509,1.40236994 11.8125,1.38761566 L11.8125,1.38761566 C11.7975176,1.38166636 11.6607113,1.31669996 10.6583656,0.80101429 L10.6583656,0.80101429 C9.54328373,0.226787468 8.42550006,0 7.35634773,0 L7.35634773,0 C3.33910545,-0.00047594432 0,3.19882177 0,3.19882177" id="path-8"></path>
        <linearGradient x1="-0.000208341997%" y1="49.9998396%" x2="100.000414%" y2="49.9998396%" id="linearGradient-10">
            <stop stop-color="#FFCA3D" offset="0%"></stop>
            <stop stop-color="#E6A800" offset="100%"></stop>
        </linearGradient>
        <path d="M2.8382995,7.6224336 C3.89617693,7.95240721 3.94587188,8.07614731 3.93337375,8.10810811 L3.93337375,8.10810811 C4.05954535,7.93793847 5.92652791,5.35364907 4.57196868,3.24553233 L4.57196868,3.24553233 C3.53105299,1.62416985 1.15105196,0 1.15105196,0 L1.15105196,0 C1.15105196,0 -2.34038993,6.00409444 2.8382995,7.6224336" id="path-11"></path>
        <linearGradient x1="-0.000154892959%" y1="49.9997907%" x2="100.000224%" y2="49.9997907%" id="linearGradient-13">
            <stop stop-color="#FFCA3D" offset="0%"></stop>
            <stop stop-color="#E6A800" offset="100%"></stop>
        </linearGradient>
        <path d="M0,0.851409046 C0,0.851409046 3.17232957,3.95030538 5.53171504,4.57711107 L5.53171504,4.57711107 C9.5932682,5.65675783 11.8022062,3.3513631 11.8125,3.34021773 L11.8125,3.34021773 C11.8006226,3.32979924 11.6955733,3.22416055 10.9356817,2.41466777 L10.9356817,2.41466777 C9.16488889,0.527951142 6.83189771,0 4.77604655,0 L4.77604655,0 C2.16459562,0 0,0.851409046 0,0.851409046" id="path-14"></path>
        <linearGradient x1="-0.000445546767%" y1="49.9994957%" x2="100.001791%" y2="49.9994957%" id="linearGradient-16">
            <stop stop-color="#FFCA3D" offset="0%"></stop>
            <stop stop-color="#E6A800" offset="100%"></stop>
        </linearGradient>
        <path d="M1.59117173,7.41436157 C2.46943523,7.95714188 2.46445571,8.08192899 2.43986931,8.10810811 L2.43986931,8.10810811 C2.62753511,7.98070308 5.45714948,6.01465158 5.01583919,3.76433852 L5.01583919,3.76433852 C4.67660914,2.03389904 3.05919758,0 3.05919758,0 L3.05919758,0 C3.05919758,0 -2.70491239,4.75761776 1.59117173,7.41436157" id="path-17"></path>
        <linearGradient x1="-0.00055479768%" y1="50.0018129%" x2="100.000976%" y2="50.0018129%" id="linearGradient-19">
            <stop stop-color="#FFCA3D" offset="0%"></stop>
            <stop stop-color="#E6A800" offset="100%"></stop>
        </linearGradient>
        <path d="M0,0.0134765709 C0,0.0134765709 1.64122941,2.97100632 3.2926721,3.9540259 L3.2926721,3.9540259 C6.13684806,5.64437294 8.42595456,4.46517298 8.4375,4.45939731 L8.4375,4.45939731 C8.43061714,4.44938614 8.37688641,4.34908195 8.00099337,3.59189119 L8.00099337,3.59189119 C6.36464857,0.291286454 1.99758401,0 0.50688944,0 L0.50688944,0 C0.187391453,0 0,0.0134765709 0,0.0134765709" id="path-20"></path>
        <linearGradient x1="0.000263407189%" y1="49.9993849%" x2="99.9981625%" y2="49.9993849%" id="linearGradient-22">
            <stop stop-color="#FFCA3D" offset="0%"></stop>
            <stop stop-color="#E6A800" offset="100%"></stop>
        </linearGradient>
        <path d="M0.867198312,7.26202693 C1.51823768,7.95859979 1.47961422,8.0852288 1.44947622,8.10810811 L1.44947622,8.10810811 C1.65897923,8.00979506 4.80883937,6.49160601 5.03911712,4.13934176 L5.03911712,4.13934176 C5.21818952,2.33074412 4.30995302,0 4.30995302,0 L4.30995302,0 C4.30995302,0 -2.32157789,3.8516515 0.867198312,7.26202693" id="path-23"></path>
        <linearGradient x1="0.00119008586%" y1="49.9993703%" x2="100.00229%" y2="49.9993703%" id="linearGradient-25">
            <stop stop-color="#FFCA3D" offset="0%"></stop>
            <stop stop-color="#E6A800" offset="100%"></stop>
        </linearGradient>
        <path d="M2.12784956,4.764964 C4.35968073,7.11269574 6.73993726,6.37855826 6.75,6.37529723 L6.75,6.37529723 C6.74643611,6.36367984 6.72044071,6.24872883 6.54832598,5.38618862 L6.54832598,5.38618862 C5.6376483,0.828095673 0,0 0,0 L0,0 C0,0 0.83206255,3.40144935 2.12784956,4.764964" id="path-26"></path>
        <linearGradient x1="0%" y1="49.9997943%" x2="100.00279%" y2="49.9997943%" id="linearGradient-28">
            <stop stop-color="#FFCA3D" offset="0%"></stop>
            <stop stop-color="#E6A800" offset="100%"></stop>
        </linearGradient>
        <path d="M0.138452838,5.57194577 C0.368299311,6.37308061 0.297444383,6.47448711 0.268559273,6.48648649 L0.268559273,6.48648649 C0.449523252,6.45519399 3.21558113,5.94745567 4.17841813,3.9019149 L4.17841813,3.9019149 C4.91980262,2.33117299 5.0625,0 5.0625,0 L5.0625,0 C5.0625,0 -0.981647537,1.65991375 0.138452838,5.57194577" id="path-29"></path>
        <linearGradient x1="0.00214208163%" y1="50.0008288%" x2="100.000005%" y2="50.0008288%" id="linearGradient-31">
            <stop stop-color="#FFCA3D" offset="0%"></stop>
            <stop stop-color="#E6A800" offset="100%"></stop>
        </linearGradient>
        <path d="M0.610420743,5.13347382 C2.11884777,8.04034381 4.86392467,8.10788951 4.87438746,8.10810811 L4.87438746,8.10810811 C4.87515302,8.09564822 4.8884229,7.97957453 5.01065882,7.11918648 L5.01065882,7.11918648 C5.65628907,2.56542534 0.0581899714,0 0.0581899714,0 L0.0581899714,0 C0.0581899714,0 -0.264625152,3.44636128 0.610420743,5.13347382" id="path-32"></path>
        <linearGradient x1="0.00201139853%" y1="49.9996581%" x2="99.9978152%" y2="49.9996581%" id="linearGradient-34">
            <stop stop-color="#FFCA3D" offset="0%"></stop>
            <stop stop-color="#E6A800" offset="100%"></stop>
        </linearGradient>
        <path d="M0.0337545614,4.05167449 C0.102404041,4.78043145 0.0266843492,4.85875162 0,4.86477625 L0,4.86477625 C0.160106095,4.86633819 2.57583795,4.86477625 3.70798419,3.24459735 L3.70798419,3.24459735 C4.57944486,2.00017679 5.0625,0 5.0625,0 L5.0625,0 C5.0625,0 -0.303791053,0.4799621 0.0337545614,4.05167449" id="path-35"></path>
        <linearGradient x1="0.00135108348%" y1="50.0008505%" x2="99.9972974%" y2="50.0008505%" id="linearGradient-37">
            <stop stop-color="#FFCA3D" offset="0%"></stop>
            <stop stop-color="#E6A800" offset="100%"></stop>
        </linearGradient>
        <path d="M0.120868815,4.69316933 C1.02430134,7.56007942 4.16366463,8.10573662 4.17822568,8.10810811 L4.17822568,8.10810811 C4.18210863,8.09732863 4.22999832,7.99600153 4.6182931,7.24618101 L4.6182931,7.24618101 C6.66848954,3.28386032 0.956673328,0 0.956673328,0 L0.956673328,0 C0.956673328,0 -0.405270611,3.02881786 0.120868815,4.69316933" id="path-38"></path>
        <linearGradient x1="0.000639081927%" y1="50.0005988%" x2="99.9979655%" y2="50.0005988%" id="linearGradient-40">
            <stop stop-color="#FFCA3D" offset="0%"></stop>
            <stop stop-color="#E6A800" offset="100%"></stop>
        </linearGradient>
        <path d="M0.216035134,2.29681964 C0.0995476515,2.95088388 0.0221681745,2.99829318 0,2.9962219 L0,2.9962219 C0.0727785351,3.02360883 1.97756847,3.73060578 3.25286591,2.62085991 L3.25286591,2.62085991 C4.21948197,1.78107088 5.0625,0.175368488 5.0625,0.175368488 L5.0625,0.175368488 C5.0625,0.175368488 4.36901258,0 3.50361724,0 L3.50361724,0 C2.22058186,-0.000230039158 0.559432705,0.384797925 0.216035134,2.29681964" id="path-41"></path>
        <linearGradient x1="-2.06551823e-06%" y1="49.999836%" x2="99.9991738%" y2="49.999836%" id="linearGradient-43">
            <stop stop-color="#FFCA3D" offset="0%"></stop>
            <stop stop-color="#E6A800" offset="100%"></stop>
        </linearGradient>
        <path d="M0.0303749873,4.12521908 C-0.264182914,6.94617728 1.68046868,8.10528503 1.68564545,8.10810811 L1.68564545,8.10810811 C1.69133989,8.09893311 1.75579061,8.01518187 2.25224232,7.41104371 L2.25224232,7.41104371 C4.87970916,4.21038186 2.07183208,0 2.07183208,0 L2.07183208,0 C2.07183208,0 0.202502408,2.49042311 0.0303749873,4.12521908" id="path-44"></path>
        <linearGradient x1="0.00187162621%" y1="49.9993245%" x2="99.9999672%" y2="49.9993245%" id="linearGradient-46">
            <stop stop-color="#FFCA3D" offset="0%"></stop>
            <stop stop-color="#E6A800" offset="100%"></stop>
        </linearGradient>
        <path d="M0.290905162,1.91896003 C0.0979408496,2.59694466 0.0204217091,2.63421119 0,2.62755645 L0,2.62755645 C0.0650160533,2.67254248 1.74084651,3.81209968 3.06784082,2.87378173 L3.06784082,2.87378173 C4.07288065,2.16225723 5.0625,0.604250142 5.0625,0.604250142 L5.0625,0.604250142 C5.0625,0.604250142 3.91534175,0 2.72233885,0 L2.72233885,0 C1.73647042,0 0.719135898,0.41232752 0.290905162,1.91896003" id="path-47"></path>
        <linearGradient x1="-2.88136989e-06%" y1="49.9989679%" x2="100.000408%" y2="49.9989679%" id="linearGradient-49">
            <stop stop-color="#FFCA3D" offset="0%"></stop>
            <stop stop-color="#E6A800" offset="100%"></stop>
        </linearGradient>
        <path d="M0.170782696,3.08517023 C-0.525068315,5.3228087 1.13005557,6.48363832 1.13422859,6.48648649 L1.13422859,6.48648649 C1.14127056,6.4799764 1.21377677,6.42036843 1.77113569,5.99110966 L1.77113569,5.99110966 C4.71702669,3.71949669 2.70328394,0 2.70328394,0 L2.70328394,0 C2.70328394,0 0.57608722,1.78742536 0.170782696,3.08517023" id="path-50"></path>
        <linearGradient x1="0.00243480932%" y1="50.000063%" x2="100.001627%" y2="50.000063%" id="linearGradient-52">
            <stop stop-color="#FFCA3D" offset="0%"></stop>
            <stop stop-color="#E6A800" offset="100%"></stop>
        </linearGradient>
        <path d="M0.387331325,1.33964674 C0.0968328311,1.96518049 0.0181285209,1.97857392 0,1.96548489 L0,1.96548489 C0.0532801651,2.03032123 1.43281639,3.67984309 2.82672278,3.13193031 L2.82672278,3.13193031 C3.88326182,2.71612539 5.0625,1.441315 5.0625,1.441315 L5.0625,1.441315 C5.0625,1.441315 3.58922606,0.000304395987 2.19067699,0 L2.19067699,0 C1.51351042,0 0.854251277,0.33757515 0.387331325,1.33964674" id="path-53"></path>
        <linearGradient x1="-0.00262762566%" y1="50.0044355%" x2="100.002612%" y2="50.0044355%" id="linearGradient-55">
            <stop stop-color="#FFCA3D" offset="0%"></stop>
            <stop stop-color="#E6A800" offset="100%"></stop>
        </linearGradient>
        <path d="M0.382281466,2.85927536 C-0.616792177,5.07762604 0.657798529,6.48273015 0.661171149,6.48648649 L0.661171149,6.48648649 C0.668435252,6.48038244 0.742892311,6.42779375 1.31001124,6.05591657 L1.31001124,6.05591657 C4.31423684,4.08736218 3.15509349,0 3.15509349,0 L3.15509349,0 C3.15509349,0 0.961074844,1.57320011 0.382281466,2.85927536" id="path-56"></path>
        <linearGradient x1="0.000318557404%" y1="49.9997398%" x2="100.00309%" y2="49.9997398%" id="linearGradient-58">
            <stop stop-color="#FFCA3D" offset="0%"></stop>
            <stop stop-color="#E6A800" offset="100%"></stop>
        </linearGradient>
        <path d="M0.410067102,1.17311729 C0.0959164633,1.76966274 0.017439357,1.77498904 0,1.76100751 L0,1.76100751 C0.0496537247,1.82825203 1.36244976,3.59724899 2.77213112,3.17946743 L2.77213112,3.17946743 C3.83956509,2.86455002 5.0625,1.70674584 5.0625,1.70674584 L5.0625,1.70674584 C5.0625,1.70674584 3.52468781,0.000332893669 2.07625233,0 L2.07625233,0 C1.46393713,0 0.867608009,0.304930601 0.410067102,1.17311729" id="path-59"></path>
        <linearGradient x1="0.000943017081%" y1="49.999753%" x2="99.9999895%" y2="49.999753%" id="linearGradient-61">
            <stop stop-color="#FFCA3D" offset="0%"></stop>
            <stop stop-color="#E6A800" offset="100%"></stop>
        </linearGradient>
        <path d="M0.312474745,1.82877057 C0.0976803212,2.5066018 0.0196894888,2.53843272 0,2.53072629 L0,2.53072629 C0.06085842,2.57797009 1.67258372,3.8093244 3.01428175,2.92375448 L3.01428175,2.92375448 C4.02995252,2.25195437 5.0625,0.724404904 5.0625,0.724404904 L5.0625,0.724404904 C5.0625,0.724404904 3.85376995,0 2.62202621,0 L2.62202621,0 C1.69917732,0 0.763031619,0.406430688 0.312474745,1.82877057" id="path-62"></path>
        <linearGradient x1="-0.00101474896%" y1="50.0018948%" x2="99.9979756%" y2="50.0018948%" id="linearGradient-64">
            <stop stop-color="#FFCA3D" offset="0%"></stop>
            <stop stop-color="#E6A800" offset="100%"></stop>
        </linearGradient>
        <path d="M3.36419216,0 C3.33173976,0.0153538753 1.30227165,0.96960774 0.627691248,1.91586918 L0.627691248,1.91586918 C-0.544890323,3.55894416 0.284554842,4.86192029 0.286702427,4.86486486 L0.286702427,4.86486486 C0.293622424,4.86107898 0.363538257,4.82974025 0.889458034,4.60889683 L0.889458034,4.60889683 C3.66342237,3.44515722 3.36729422,0.028814807 3.3646694,0 L3.3646694,0 L3.36419216,0 Z" id="path-65"></path>
        <linearGradient x1="0.0027073427%" y1="50.000981%" x2="100.001662%" y2="50.000981%" id="linearGradient-67">
            <stop stop-color="#FFCA3D" offset="0%"></stop>
            <stop stop-color="#E6A800" offset="100%"></stop>
        </linearGradient>
        <filter color-interpolation-filters="auto" id="filter-68">
            <feColorMatrix in="SourceGraphic" type="matrix" values="0 0 0 0 0.639216 0 0 0 0 0.517647 0 0 0 0 0.431373 0 0 0 1.000000 0"></feColorMatrix>
        </filter>
        <path d="M3.76448949,7.86958634 C4.67089393,7.94746148 4.74626089,8.07033633 4.7473725,8.10810811 L4.7473725,8.10810811 C4.78761267,7.89057066 5.36831623,4.56945227 3.66711271,2.6293353 L3.66711271,2.6293353 C2.36052971,1.13851594 0.0417172767,0 0.0417172767,0 L0.0417172767,0 C0.0417172767,0 -0.667710381,7.48650592 3.76448949,7.86958634" id="path-69"></path>
        <linearGradient x1="-0.000454761483%" y1="50.0000664%" x2="99.99918%" y2="50.0000664%" id="linearGradient-71">
            <stop stop-color="#FFCA3D" offset="0%"></stop>
            <stop stop-color="#E6A800" offset="100%"></stop>
        </linearGradient>
        <path d="M0,3.19882177 C0,3.19882177 3.46401318,4.85653584 5.80599451,4.86486486 L5.80599451,4.86486486 L5.83555901,4.86486486 C5.97770512,4.86462689 6.11583046,4.85796367 6.24851593,4.84463723 L6.24851593,4.84463723 C10.2406693,4.4388947 11.3695601,1.40236994 11.375,1.38761566 L11.375,1.38761566 C11.3605725,1.38166636 11.2288331,1.31669996 10.2636114,0.80101429 L10.2636114,0.80101429 C9.18982877,0.226787468 8.1134445,0 7.0838904,0 L7.0838904,0 C3.21543488,-0.00047594432 0,3.19882177 0,3.19882177" id="path-72"></path>
        <linearGradient x1="-0.000208341997%" y1="49.9998396%" x2="100.000414%" y2="49.9998396%" id="linearGradient-74">
            <stop stop-color="#FFCA3D" offset="0%"></stop>
            <stop stop-color="#E6A800" offset="100%"></stop>
        </linearGradient>
        <path d="M2.7331773,7.6224336 C3.75187408,7.95240721 3.79972848,8.07614731 3.78769324,8.10810811 L3.78769324,8.10810811 C3.90919182,7.93793847 5.70702687,5.35364907 4.4026365,3.24553233 L4.4026365,3.24553233 C3.40027325,1.62416985 1.1084204,0 1.1084204,0 L1.1084204,0 C1.1084204,0 -2.25370882,6.00409444 2.7331773,7.6224336" id="path-75"></path>
        <linearGradient x1="-0.000154892959%" y1="49.9997907%" x2="100.000224%" y2="49.9997907%" id="linearGradient-77">
            <stop stop-color="#FFCA3D" offset="0%"></stop>
            <stop stop-color="#E6A800" offset="100%"></stop>
        </linearGradient>
        <path d="M0,0.851409046 C0,0.851409046 3.05483588,3.95030538 5.32683671,4.57711107 L5.32683671,4.57711107 C9.23796197,5.65675783 11.3650875,3.3513631 11.375,3.34021773 L11.375,3.34021773 C11.3635625,3.32979924 11.2624039,3.22416055 10.5306565,2.41466777 L10.5306565,2.41466777 C8.82544856,0.527951142 6.57886446,0 4.59915594,0 L4.59915594,0 C2.08442541,0 0,0.851409046 0,0.851409046" id="path-78"></path>
        <linearGradient x1="-0.000445546767%" y1="49.9994957%" x2="100.001791%" y2="49.9994957%" id="linearGradient-80">
            <stop stop-color="#FFCA3D" offset="0%"></stop>
            <stop stop-color="#E6A800" offset="100%"></stop>
        </linearGradient>
        <path d="M1.53223944,7.41436157 C2.37797467,7.95714188 2.37317957,8.08192899 2.34950378,8.10810811 L2.34950378,8.10810811 C2.53021899,7.98070308 5.25503284,6.01465158 4.83006737,3.76433852 L4.83006737,3.76433852 C4.50340139,2.03389904 2.94589396,0 2.94589396,0 L2.94589396,0 C2.94589396,0 -2.60473045,4.75761776 1.53223944,7.41436157" id="path-81"></path>
        <linearGradient x1="-0.00055479768%" y1="50.0018129%" x2="100.000976%" y2="50.0018129%" id="linearGradient-83">
            <stop stop-color="#FFCA3D" offset="0%"></stop>
            <stop stop-color="#E6A800" offset="100%"></stop>
        </linearGradient>
        <path d="M0,0.0134765709 C0,0.0134765709 1.58044313,2.97100632 3.17072128,3.9540259 L3.17072128,3.9540259 C5.90955739,5.64437294 8.11388216,4.46517298 8.125,4.45939731 L8.125,4.45939731 C8.11837206,4.44938614 8.06663136,4.34908195 7.70466028,3.59189119 L7.70466028,3.59189119 C6.12892085,0.291286454 1.92359942,0 0.488115757,0 L0.488115757,0 C0.180451029,0 0,0.0134765709 0,0.0134765709" id="path-84"></path>
        <linearGradient x1="0.000263407189%" y1="49.9993849%" x2="99.9981625%" y2="49.9993849%" id="linearGradient-86">
            <stop stop-color="#FFCA3D" offset="0%"></stop>
            <stop stop-color="#E6A800" offset="100%"></stop>
        </linearGradient>
        <path d="M0.835079856,7.26202693 C1.46200666,7.95859979 1.4248137,8.0852288 1.39579192,8.10810811 L1.39579192,8.10810811 C1.59753555,8.00979506 4.63073421,6.49160601 4.85248315,4.13934176 L4.85248315,4.13934176 C5.02492324,2.33074412 4.15032513,0 4.15032513,0 L4.15032513,0 C4.15032513,0 -2.23559353,3.8516515 0.835079856,7.26202693" id="path-87"></path>
        <linearGradient x1="0.00119008586%" y1="49.9993703%" x2="100.00229%" y2="49.9993703%" id="linearGradient-89">
            <stop stop-color="#FFCA3D" offset="0%"></stop>
            <stop stop-color="#E6A800" offset="100%"></stop>
        </linearGradient>
        <path d="M2.04904031,4.764964 C4.19821107,7.11269574 6.49030996,6.37855826 6.5,6.37529723 L6.5,6.37529723 C6.49656811,6.36367984 6.4715355,6.24872883 6.30579539,5.38618862 L6.30579539,5.38618862 C5.42884651,0.828095673 0,0 0,0 L0,0 C0,0 0.801245419,3.40144935 2.04904031,4.764964" id="path-90"></path>
        <linearGradient x1="0%" y1="49.9997943%" x2="100.00279%" y2="49.9997943%" id="linearGradient-92">
            <stop stop-color="#FFCA3D" offset="0%"></stop>
            <stop stop-color="#E6A800" offset="100%"></stop>
        </linearGradient>
        <path d="M0.133324955,5.57194577 C0.354658596,6.37308061 0.286427924,6.47448711 0.258612633,6.48648649 L0.258612633,6.48648649 C0.432874243,6.45519399 3.09648553,5.94745567 4.0236619,3.9019149 L4.0236619,3.9019149 C4.73758771,2.33117299 4.875,0 4.875,0 L4.875,0 C4.875,0 -0.945290221,1.65991375 0.133324955,5.57194577" id="path-93"></path>
        <linearGradient x1="0.00214208163%" y1="50.0008288%" x2="100.000005%" y2="50.0008288%" id="linearGradient-95">
            <stop stop-color="#FFCA3D" offset="0%"></stop>
            <stop stop-color="#E6A800" offset="100%"></stop>
        </linearGradient>
        <path d="M0.587812567,5.13347382 C2.04037193,8.04034381 4.68377931,8.10788951 4.69385459,8.10810811 L4.69385459,8.10810811 C4.6945918,8.09564822 4.7073702,7.97957453 4.82507886,7.11918648 L4.82507886,7.11918648 C5.44679688,2.56542534 0.0560347873,0 0.0560347873,0 L0.0560347873,0 C0.0560347873,0 -0.25482422,3.44636128 0.587812567,5.13347382" id="path-96"></path>
        <linearGradient x1="0.00201139853%" y1="49.9996581%" x2="99.9978152%" y2="49.9996581%" id="linearGradient-98">
            <stop stop-color="#FFCA3D" offset="0%"></stop>
            <stop stop-color="#E6A800" offset="100%"></stop>
        </linearGradient>
        <path d="M0.0325043925,4.05167449 C0.0986112988,4.78043145 0.02569604,4.85875162 0,4.86477625 L0,4.86477625 C0.15417624,4.86633819 2.48043655,4.86477625 3.57065144,3.24459735 L3.57065144,3.24459735 C4.40983579,2.00017679 4.875,0 4.875,0 L4.875,0 C4.875,0 -0.292539532,0.4799621 0.0325043925,4.05167449" id="path-99"></path>
        <linearGradient x1="0.00135108348%" y1="50.0008505%" x2="99.9972974%" y2="50.0008505%" id="linearGradient-101">
            <stop stop-color="#FFCA3D" offset="0%"></stop>
            <stop stop-color="#E6A800" offset="100%"></stop>
        </linearGradient>
        <path d="M0.116392192,4.69316933 C0.986364249,7.56007942 4.00945483,8.10573662 4.02347658,8.10810811 L4.02347658,8.10810811 C4.02721572,8.09732863 4.07333172,7.99600153 4.44724521,7.24618101 L4.44724521,7.24618101 C6.42150844,3.28386032 0.921240983,0 0.921240983,0 L0.921240983,0 C0.921240983,0 -0.390260588,3.02881786 0.116392192,4.69316933" id="path-102"></path>
        <linearGradient x1="0.000639081927%" y1="50.0005988%" x2="99.9979655%" y2="50.0005988%" id="linearGradient-104">
            <stop stop-color="#FFCA3D" offset="0%"></stop>
            <stop stop-color="#E6A800" offset="100%"></stop>
        </linearGradient>
        <path d="M0.208033833,2.29681964 C0.0958607014,2.95088388 0.021347131,2.99829318 0,2.9962219 L0,2.9962219 C0.0700830338,3.02360883 1.9043252,3.73060578 3.13238939,2.62085991 L3.13238939,2.62085991 C4.06320486,1.78107088 4.875,0.175368488 4.875,0.175368488 L4.875,0.175368488 C4.875,0.175368488 4.2071973,0 3.37385364,0 L3.37385364,0 C2.13833808,-0.000230039158 0.538712976,0.384797925 0.208033833,2.29681964" id="path-105"></path>
        <linearGradient x1="-2.06551823e-06%" y1="49.999836%" x2="99.9991738%" y2="49.999836%" id="linearGradient-107">
            <stop stop-color="#FFCA3D" offset="0%"></stop>
            <stop stop-color="#E6A800" offset="100%"></stop>
        </linearGradient>
        <path d="M0.0292499878,4.12521908 C-0.254398362,6.94617728 1.6182291,8.10528503 1.62321413,8.10810811 L1.62321413,8.10810811 C1.62869767,8.09893311 1.69076132,8.01518187 2.16882594,7.41104371 L2.16882594,7.41104371 C4.69897919,4.21038186 1.99509756,0 1.99509756,0 L1.99509756,0 C1.99509756,0 0.195002319,2.49042311 0.0292499878,4.12521908" id="path-108"></path>
        <linearGradient x1="0.00187162621%" y1="49.9993245%" x2="99.9999672%" y2="49.9993245%" id="linearGradient-110">
            <stop stop-color="#FFCA3D" offset="0%"></stop>
            <stop stop-color="#E6A800" offset="100%"></stop>
        </linearGradient>
        <path d="M0.280130897,1.91896003 C0.0943134107,2.59694466 0.0196653495,2.63421119 0,2.62755645 L0,2.62755645 C0.0626080514,2.67254248 1.67637071,3.81209968 2.95421709,2.87378173 L2.95421709,2.87378173 C3.92203322,2.16225723 4.875,0.604250142 4.875,0.604250142 L4.875,0.604250142 C4.875,0.604250142 3.77032909,0 2.62151148,0 L2.62151148,0 C1.67215671,0 0.692501235,0.41232752 0.280130897,1.91896003" id="path-111"></path>
        <linearGradient x1="-2.88136989e-06%" y1="49.9989679%" x2="100.000408%" y2="49.9989679%" id="linearGradient-113">
            <stop stop-color="#FFCA3D" offset="0%"></stop>
            <stop stop-color="#E6A800" offset="100%"></stop>
        </linearGradient>
        <path d="M0.16445741,3.08517023 C-0.50562134,5.3228087 1.08820166,6.48363832 1.09222012,6.48648649 L1.09222012,6.48648649 C1.09900128,6.4799764 1.16882208,6.42036843 1.70553808,5.99110966 L1.70553808,5.99110966 C4.54232199,3.71949669 2.60316231,0 2.60316231,0 L2.60316231,0 C2.60316231,0 0.554750656,1.78742536 0.16445741,3.08517023" id="path-114"></path>
        <linearGradient x1="0.00243480932%" y1="50.000063%" x2="100.001627%" y2="50.000063%" id="linearGradient-116">
            <stop stop-color="#FFCA3D" offset="0%"></stop>
            <stop stop-color="#E6A800" offset="100%"></stop>
        </linearGradient>
        <path d="M0.37298572,1.33964674 C0.09324643,1.96518049 0.0174570942,1.97857392 0,1.96548489 L0,1.96548489 C0.0513068256,2.03032123 1.37974912,3.67984309 2.72202935,3.13193031 L2.72202935,3.13193031 C3.73943731,2.71612539 4.875,1.441315 4.875,1.441315 L4.875,1.441315 C4.875,1.441315 3.45629176,0.000304395987 2.10954081,0 L2.10954081,0 C1.45745447,0 0.822612341,0.33757515 0.37298572,1.33964674" id="path-117"></path>
        <linearGradient x1="-0.00262762566%" y1="50.0044355%" x2="100.002612%" y2="50.0044355%" id="linearGradient-119">
            <stop stop-color="#FFCA3D" offset="0%"></stop>
            <stop stop-color="#E6A800" offset="100%"></stop>
        </linearGradient>
        <path d="M0.368122893,2.85927536 C-0.593948022,5.07762604 0.633435621,6.48273015 0.636683328,6.48648649 L0.636683328,6.48648649 C0.643678391,6.48038244 0.715377781,6.42779375 1.2614923,6.05591657 L1.2614923,6.05591657 C4.15445029,4.08736218 3.03823818,0 3.03823818,0 L3.03823818,0 C3.03823818,0 0.92547948,1.57320011 0.368122893,2.85927536" id="path-120"></path>
        <linearGradient x1="0.000318557404%" y1="49.9997398%" x2="100.00309%" y2="49.9997398%" id="linearGradient-122">
            <stop stop-color="#FFCA3D" offset="0%"></stop>
            <stop stop-color="#E6A800" offset="100%"></stop>
        </linearGradient>
        <path d="M0.394879432,1.17311729 C0.0923640017,1.76966274 0.0167934549,1.77498904 0,1.76100751 L0,1.76100751 C0.0478146979,1.82825203 1.31198866,3.59724899 2.6694596,3.17946743 L2.6694596,3.17946743 C3.69735898,2.86455002 4.875,1.70674584 4.875,1.70674584 L4.875,1.70674584 C4.875,1.70674584 3.39414382,0.000332893669 1.9993541,0 L1.9993541,0 C1.40971724,0 0.835474379,0.304930601 0.394879432,1.17311729" id="path-123"></path>
        <linearGradient x1="0.000943017081%" y1="49.999753%" x2="99.9999895%" y2="49.999753%" id="linearGradient-125">
            <stop stop-color="#FFCA3D" offset="0%"></stop>
            <stop stop-color="#E6A800" offset="100%"></stop>
        </linearGradient>
        <path d="M0.300901606,1.82877057 C0.0940625316,2.5066018 0.0189602485,2.53843272 0,2.53072629 L0,2.53072629 C0.0586044045,2.57797009 1.61063618,3.8093244 2.90264168,2.92375448 L2.90264168,2.92375448 C3.88069502,2.25195437 4.875,0.724404904 4.875,0.724404904 L4.875,0.724404904 C4.875,0.724404904 3.71103773,0 2.52491413,0 L2.52491413,0 C1.63624482,0 0.734771189,0.406430688 0.300901606,1.82877057" id="path-126"></path>
        <linearGradient x1="-0.00101474896%" y1="50.0018948%" x2="99.9979756%" y2="50.0018948%" id="linearGradient-128">
            <stop stop-color="#FFCA3D" offset="0%"></stop>
            <stop stop-color="#E6A800" offset="100%"></stop>
        </linearGradient>
        <path d="M3.23959245,0 C3.20834199,0.0153538753 1.25403937,0.96960774 0.604443424,1.91586918 L0.604443424,1.91586918 C-0.5247092,3.55894416 0.274015774,4.86192029 0.276083819,4.86486486 L0.276083819,4.86486486 C0.28274752,4.86107898 0.350073877,4.82974025 0.856515143,4.60889683 L0.856515143,4.60889683 C3.52774006,3.44515722 3.24257962,0.028814807 3.24005201,0 L3.24005201,0 L3.23959245,0 Z" id="path-129"></path>
        <linearGradient x1="0.0027073427%" y1="50.000981%" x2="100.001662%" y2="50.000981%" id="linearGradient-131">
            <stop stop-color="#FFCA3D" offset="0%"></stop>
            <stop stop-color="#E6A800" offset="100%"></stop>
        </linearGradient>
    </defs>
    <g id="Page-1" stroke="none" stroke-width="1" fill="none" fill-rule="evenodd">
        <g id="Puffy-VS-Purple-Desktop" transform="translate(-376.000000, -482.000000)">
            <g id="Group" transform="translate(375.000000, 482.664000)">
                <g id="Group-26" transform="translate(1.900000, 0.000000)">
                    <g id="1" fill-rule="nonzero">
                        <use fill="#595A5D" xlink:href="#path-1"></use>
                        <use fill="#A3846E" xlink:href="#path-1"></use>
                    </g>
                    <g id="#" fill-rule="nonzero">
                        <use fill="#595A5D" xlink:href="#path-2"></use>
                        <use fill="#A3846E" xlink:href="#path-2"></use>
                    </g>
                    <g id="Group-8" transform="translate(70.100000, 8.336000)">
                        <g id="BestMattress2021" fill-rule="nonzero">
                            <use fill="#595A5D" xlink:href="#path-3"></use>
                            <use fill="#A3846E" xlink:href="#path-3"></use>
                        </g>
                        <g filter="url(#filter-4)" id="Group-64">
                            <g>
                                <g id="Group-3" transform="translate(21.937500, 47.027027)">
                                    <mask id="mask-6" fill="white">
                                        <use xlink:href="#path-5"></use>
                                    </mask>
                                    <g id="Clip-2"></g>
                                    <path d="M3.90927755,7.86958634 C4.85054369,7.94746148 4.92880938,8.07033633 4.92996374,8.10810811 L4.92996374,8.10810811 C4.97175162,7.89057066 5.57478993,4.56945227 3.8081555,2.6293353 L3.8081555,2.6293353 C2.45131931,1.13851594 0.0433217874,0 0.0433217874,0 L0.0433217874,0 C0.0433217874,0 -0.693391549,7.48650592 3.90927755,7.86958634" id="Fill-1" fill="url(#linearGradient-7)" mask="url(#mask-6)"></path>
                                </g>
                                <g id="Group-6" transform="translate(15.187500, 55.135135)">
                                    <mask id="mask-9" fill="white">
                                        <use xlink:href="#path-8"></use>
                                    </mask>
                                    <g id="Clip-5"></g>
                                    <path d="M0,3.19882177 C0,3.19882177 3.59724446,4.85653584 6.02930199,4.86486486 L6.02930199,4.86486486 L6.06000359,4.86486486 C6.20761685,4.86462689 6.35105471,4.85796367 6.48884346,4.84463723 L6.48884346,4.84463723 C10.6345412,4.4388947 11.8068509,1.40236994 11.8125,1.38761566 L11.8125,1.38761566 C11.7975176,1.38166636 11.6607113,1.31669996 10.6583656,0.80101429 L10.6583656,0.80101429 C9.54328373,0.226787468 8.42550006,0 7.35634773,0 L7.35634773,0 C3.33910545,-0.00047594432 0,3.19882177 0,3.19882177" id="Fill-4" fill="url(#linearGradient-10)" mask="url(#mask-9)"></path>
                                </g>
                                <g id="Group-9" transform="translate(15.187500, 43.783784)">
                                    <mask id="mask-12" fill="white">
                                        <use xlink:href="#path-11"></use>
                                    </mask>
                                    <g id="Clip-8"></g>
                                    <path d="M2.8382995,7.6224336 C3.89617693,7.95240721 3.94587188,8.07614731 3.93337375,8.10810811 L3.93337375,8.10810811 C4.05954535,7.93793847 5.92652791,5.35364907 4.57196868,3.24553233 L4.57196868,3.24553233 C3.53105299,1.62416985 1.15105196,0 1.15105196,0 L1.15105196,0 C1.15105196,0 -2.34038993,6.00409444 2.8382995,7.6224336" id="Fill-7" fill="url(#linearGradient-13)" mask="url(#mask-12)"></path>
                                </g>
                                <g id="Group-12" transform="translate(6.750000, 50.270270)">
                                    <mask id="mask-15" fill="white">
                                        <use xlink:href="#path-14"></use>
                                    </mask>
                                    <g id="Clip-11"></g>
                                    <path d="M0,0.851409046 C0,0.851409046 3.17232957,3.95030538 5.53171504,4.57711107 L5.53171504,4.57711107 C9.5932682,5.65675783 11.8022062,3.3513631 11.8125,3.34021773 L11.8125,3.34021773 C11.8006226,3.32979924 11.6955733,3.22416055 10.9356817,2.41466777 L10.9356817,2.41466777 C9.16488889,0.527951142 6.83189771,0 4.77604655,0 L4.77604655,0 C2.16459562,0 0,0.851409046 0,0.851409046" id="Fill-10" fill="url(#linearGradient-16)" mask="url(#mask-15)"></path>
                                </g>
                                <g id="Group-15" transform="translate(10.125000, 38.918919)">
                                    <mask id="mask-18" fill="white">
                                        <use xlink:href="#path-17"></use>
                                    </mask>
                                    <g id="Clip-14"></g>
                                    <path d="M1.59117173,7.41436157 C2.46943523,7.95714188 2.46445571,8.08192899 2.43986931,8.10810811 L2.43986931,8.10810811 C2.62753511,7.98070308 5.45714948,6.01465158 5.01583919,3.76433852 L5.01583919,3.76433852 C4.67660914,2.03389904 3.05919758,0 3.05919758,0 L3.05919758,0 C3.05919758,0 -2.70491239,4.75761776 1.59117173,7.41436157" id="Fill-13" fill="url(#linearGradient-19)" mask="url(#mask-18)"></path>
                                </g>
                                <g id="Group-18" transform="translate(1.687500, 42.162162)">
                                    <mask id="mask-21" fill="white">
                                        <use xlink:href="#path-20"></use>
                                    </mask>
                                    <g id="Clip-17"></g>
                                    <path d="M0,0.0134765709 C0,0.0134765709 1.64122941,2.97100632 3.2926721,3.9540259 L3.2926721,3.9540259 C6.13684806,5.64437294 8.42595456,4.46517298 8.4375,4.45939731 L8.4375,4.45939731 C8.43061714,4.44938614 8.37688641,4.34908195 8.00099337,3.59189119 L8.00099337,3.59189119 C6.36464857,0.291286454 1.99758401,0 0.50688944,0 L0.50688944,0 C0.187391453,0 0,0.0134765709 0,0.0134765709" id="Fill-16" fill="url(#linearGradient-22)" mask="url(#mask-21)"></path>
                                </g>
                                <g id="Group-21" transform="translate(6.750000, 34.054054)">
                                    <mask id="mask-24" fill="white">
                                        <use xlink:href="#path-23"></use>
                                    </mask>
                                    <g id="Clip-20"></g>
                                    <path d="M0.867198312,7.26202693 C1.51823768,7.95859979 1.47961422,8.0852288 1.44947622,8.10810811 L1.44947622,8.10810811 C1.65897923,8.00979506 4.80883937,6.49160601 5.03911712,4.13934176 L5.03911712,4.13934176 C5.21818952,2.33074412 4.30995302,0 4.30995302,0 L4.30995302,0 C4.30995302,0 -2.32157789,3.8516515 0.867198312,7.26202693" id="Fill-19" fill="url(#linearGradient-25)" mask="url(#mask-24)"></path>
                                </g>
                                <g id="Group-24" transform="translate(0.000000, 34.054054)">
                                    <mask id="mask-27" fill="white">
                                        <use xlink:href="#path-26"></use>
                                    </mask>
                                    <g id="Clip-23"></g>
                                    <path d="M2.12784956,4.764964 C4.35968073,7.11269574 6.73993726,6.37855826 6.75,6.37529723 L6.75,6.37529723 C6.74643611,6.36367984 6.72044071,6.24872883 6.54832598,5.38618862 L6.54832598,5.38618862 C5.6376483,0.828095673 0,0 0,0 L0,0 C0,0 0.83206255,3.40144935 2.12784956,4.764964" id="Fill-22" fill="url(#linearGradient-28)" mask="url(#mask-27)"></path>
                                </g>
                                <g id="Group-27" transform="translate(5.062500, 27.567568)">
                                    <mask id="mask-30" fill="white">
                                        <use xlink:href="#path-29"></use>
                                    </mask>
                                    <g id="Clip-26"></g>
                                    <path d="M0.138452838,5.57194577 C0.368299311,6.37308061 0.297444383,6.47448711 0.268559273,6.48648649 L0.268559273,6.48648649 C0.449523252,6.45519399 3.21558113,5.94745567 4.17841813,3.9019149 L4.17841813,3.9019149 C4.91980262,2.33117299 5.0625,0 5.0625,0 L5.0625,0 C5.0625,0 -0.981647537,1.65991375 0.138452838,5.57194577" id="Fill-25" fill="url(#linearGradient-31)" mask="url(#mask-30)"></path>
                                </g>
                                <g id="Group-30" transform="translate(0.000000, 24.324324)">
                                    <mask id="mask-33" fill="white">
                                        <use xlink:href="#path-32"></use>
                                    </mask>
                                    <g id="Clip-29"></g>
                                    <path d="M0.610420743,5.13347382 C2.11884777,8.04034381 4.86392467,8.10788951 4.87438746,8.10810811 L4.87438746,8.10810811 C4.87515302,8.09564822 4.8884229,7.97957453 5.01065882,7.11918648 L5.01065882,7.11918648 C5.65628907,2.56542534 0.0581899714,0 0.0581899714,0 L0.0581899714,0 C0.0581899714,0 -0.264625152,3.44636128 0.610420743,5.13347382" id="Fill-28" fill="url(#linearGradient-34)" mask="url(#mask-33)"></path>
                                </g>
                                <g id="Group-33" transform="translate(5.062500, 22.702703)">
                                    <mask id="mask-36" fill="white">
                                        <use xlink:href="#path-35"></use>
                                    </mask>
                                    <g id="Clip-32"></g>
                                    <path d="M0.0337545614,4.05167449 C0.102404041,4.78043145 0.0266843492,4.85875162 0,4.86477625 L0,4.86477625 C0.160106095,4.86633819 2.57583795,4.86477625 3.70798419,3.24459735 L3.70798419,3.24459735 C4.57944486,2.00017679 5.0625,0 5.0625,0 L5.0625,0 C5.0625,0 -0.303791053,0.4799621 0.0337545614,4.05167449" id="Fill-31" fill="url(#linearGradient-37)" mask="url(#mask-36)"></path>
                                </g>
                                <g id="Group-36" transform="translate(1.687500, 16.216216)">
                                    <mask id="mask-39" fill="white">
                                        <use xlink:href="#path-38"></use>
                                    </mask>
                                    <g id="Clip-35"></g>
                                    <path d="M0.120868815,4.69316933 C1.02430134,7.56007942 4.16366463,8.10573662 4.17822568,8.10810811 L4.17822568,8.10810811 C4.18210863,8.09732863 4.22999832,7.99600153 4.6182931,7.24618101 L4.6182931,7.24618101 C6.66848954,3.28386032 0.956673328,0 0.956673328,0 L0.956673328,0 C0.956673328,0 -0.405270611,3.02881786 0.120868815,4.69316933" id="Fill-34" fill="url(#linearGradient-40)" mask="url(#mask-39)"></path>
                                </g>
                                <g id="Group-39" transform="translate(8.437500, 16.216216)">
                                    <mask id="mask-42" fill="white">
                                        <use xlink:href="#path-41"></use>
                                    </mask>
                                    <g id="Clip-38"></g>
                                    <path d="M0.216035134,2.29681964 C0.0995476515,2.95088388 0.0221681745,2.99829318 0,2.9962219 L0,2.9962219 C0.0727785351,3.02360883 1.97756847,3.73060578 3.25286591,2.62085991 L3.25286591,2.62085991 C4.21948197,1.78107088 5.0625,0.175368488 5.0625,0.175368488 L5.0625,0.175368488 C5.0625,0.175368488 4.36901258,0 3.50361724,0 L3.50361724,0 C2.22058186,-0.000230039158 0.559432705,0.384797925 0.216035134,2.29681964" id="Fill-37" fill="url(#linearGradient-43)" mask="url(#mask-42)"></path>
                                </g>
                                <g id="Group-42" transform="translate(5.062500, 9.729730)">
                                    <mask id="mask-45" fill="white">
                                        <use xlink:href="#path-44"></use>
                                    </mask>
                                    <g id="Clip-41"></g>
                                    <path d="M0.0303749873,4.12521908 C-0.264182914,6.94617728 1.68046868,8.10528503 1.68564545,8.10810811 L1.68564545,8.10810811 C1.69133989,8.09893311 1.75579061,8.01518187 2.25224232,7.41104371 L2.25224232,7.41104371 C4.87970916,4.21038186 2.07183208,0 2.07183208,0 L2.07183208,0 C2.07183208,0 0.202502408,2.49042311 0.0303749873,4.12521908" id="Fill-40" fill="url(#linearGradient-46)" mask="url(#mask-45)"></path>
                                </g>
                                <g id="Group-45" transform="translate(10.125000, 12.972973)">
                                    <mask id="mask-48" fill="white">
                                        <use xlink:href="#path-47"></use>
                                    </mask>
                                    <g id="Clip-44"></g>
                                    <path d="M0.290905162,1.91896003 C0.0979408496,2.59694466 0.0204217091,2.63421119 0,2.62755645 L0,2.62755645 C0.0650160533,2.67254248 1.74084651,3.81209968 3.06784082,2.87378173 L3.06784082,2.87378173 C4.07288065,2.16225723 5.0625,0.604250142 5.0625,0.604250142 L5.0625,0.604250142 C5.0625,0.604250142 3.91534175,0 2.72233885,0 L2.72233885,0 C1.73647042,0 0.719135898,0.41232752 0.290905162,1.91896003" id="Fill-43" fill="url(#linearGradient-49)" mask="url(#mask-48)"></path>
                                </g>
                                <g id="Group-48" transform="translate(8.437500, 6.486486)">
                                    <mask id="mask-51" fill="white">
                                        <use xlink:href="#path-50"></use>
                                    </mask>
                                    <g id="Clip-47"></g>
                                    <path d="M0.170782696,3.08517023 C-0.525068315,5.3228087 1.13005557,6.48363832 1.13422859,6.48648649 L1.13422859,6.48648649 C1.14127056,6.4799764 1.21377677,6.42036843 1.77113569,5.99110966 L1.77113569,5.99110966 C4.71702669,3.71949669 2.70328394,0 2.70328394,0 L2.70328394,0 C2.70328394,0 0.57608722,1.78742536 0.170782696,3.08517023" id="Fill-46" fill="url(#linearGradient-52)" mask="url(#mask-51)"></path>
                                </g>
                                <g id="Group-51" transform="translate(13.500000, 9.729730)">
                                    <mask id="mask-54" fill="white">
                                        <use xlink:href="#path-53"></use>
                                    </mask>
                                    <g id="Clip-50"></g>
                                    <path d="M0.387331325,1.33964674 C0.0968328311,1.96518049 0.0181285209,1.97857392 0,1.96548489 L0,1.96548489 C0.0532801651,2.03032123 1.43281639,3.67984309 2.82672278,3.13193031 L2.82672278,3.13193031 C3.88326182,2.71612539 5.0625,1.441315 5.0625,1.441315 L5.0625,1.441315 C5.0625,1.441315 3.58922606,0.000304395987 2.19067699,0 L2.19067699,0 C1.51351042,0 0.854251277,0.33757515 0.387331325,1.33964674" id="Fill-49" fill="url(#linearGradient-55)" mask="url(#mask-54)"></path>
                                </g>
                                <g id="Group-54" transform="translate(13.500000, 1.621622)">
                                    <mask id="mask-57" fill="white">
                                        <use xlink:href="#path-56"></use>
                                    </mask>
                                    <g id="Clip-53"></g>
                                    <path d="M0.382281466,2.85927536 C-0.616792177,5.07762604 0.657798529,6.48273015 0.661171149,6.48648649 L0.661171149,6.48648649 C0.668435252,6.48038244 0.742892311,6.42779375 1.31001124,6.05591657 L1.31001124,6.05591657 C4.31423684,4.08736218 3.15509349,0 3.15509349,0 L3.15509349,0 C3.15509349,0 0.961074844,1.57320011 0.382281466,2.85927536" id="Fill-52" fill="url(#linearGradient-58)" mask="url(#mask-57)"></path>
                                </g>
                                <g id="Group-57" transform="translate(16.875000, 4.864865)">
                                    <mask id="mask-60" fill="white">
                                        <use xlink:href="#path-59"></use>
                                    </mask>
                                    <g id="Clip-56"></g>
                                    <path d="M0.410067102,1.17311729 C0.0959164633,1.76966274 0.017439357,1.77498904 0,1.76100751 L0,1.76100751 C0.0496537247,1.82825203 1.36244976,3.59724899 2.77213112,3.17946743 L2.77213112,3.17946743 C3.83956509,2.86455002 5.0625,1.70674584 5.0625,1.70674584 L5.0625,1.70674584 C5.0625,1.70674584 3.52468781,0.000332893669 2.07625233,0 L2.07625233,0 C1.46393713,0 0.867608009,0.304930601 0.410067102,1.17311729" id="Fill-55" fill="url(#linearGradient-61)" mask="url(#mask-60)"></path>
                                </g>
                                <g id="Group-60" transform="translate(21.937500, 1.621622)">
                                    <mask id="mask-63" fill="white">
                                        <use xlink:href="#path-62"></use>
                                    </mask>
                                    <g id="Clip-59"></g>
                                    <path d="M0.312474745,1.82877057 C0.0976803212,2.5066018 0.0196894888,2.53843272 0,2.53072629 L0,2.53072629 C0.06085842,2.57797009 1.67258372,3.8093244 3.01428175,2.92375448 L3.01428175,2.92375448 C4.02995252,2.25195437 5.0625,0.724404904 5.0625,0.724404904 L5.0625,0.724404904 C5.0625,0.724404904 3.85376995,0 2.62202621,0 L2.62202621,0 C1.69917732,0 0.763031619,0.406430688 0.312474745,1.82877057" id="Fill-58" fill="url(#linearGradient-64)" mask="url(#mask-63)"></path>
                                </g>
                                <g id="Group-63" transform="translate(16.875000, 0.000000)">
                                    <mask id="mask-66" fill="white">
                                        <use xlink:href="#path-65"></use>
                                    </mask>
                                    <g id="Clip-62"></g>
                                    <path d="M3.36419216,0 C3.33173976,0.0153538753 1.30227165,0.96960774 0.627691248,1.91586918 L0.627691248,1.91586918 C-0.544890323,3.55894416 0.284554842,4.86192029 0.286702427,4.86486486 L0.286702427,4.86486486 C0.293622424,4.86107898 0.363538257,4.82974025 0.889458034,4.60889683 L0.889458034,4.60889683 C3.66342237,3.44515722 3.36729422,0.028814807 3.3646694,0 L3.3646694,0 L3.36419216,0 Z" id="Fill-61" fill="url(#linearGradient-67)" mask="url(#mask-66)"></path>
                                </g>
                            </g>
                        </g>
                        <g filter="url(#filter-68)" id="Group-64-Copy">
                            <g transform="translate(365.000000, 30.000000) scale(-1, 1) translate(-365.000000, -30.000000) translate(352.000000, 0.000000)">
                                <g id="Group-3" transform="translate(21.125000, 47.027027)">
                                    <mask id="mask-70" fill="white">
                                        <use xlink:href="#path-69"></use>
                                    </mask>
                                    <g id="Clip-2"></g>
                                    <path d="M3.76448949,7.86958634 C4.67089393,7.94746148 4.74626089,8.07033633 4.7473725,8.10810811 L4.7473725,8.10810811 C4.78761267,7.89057066 5.36831623,4.56945227 3.66711271,2.6293353 L3.66711271,2.6293353 C2.36052971,1.13851594 0.0417172767,0 0.0417172767,0 L0.0417172767,0 C0.0417172767,0 -0.667710381,7.48650592 3.76448949,7.86958634" id="Fill-1" fill="url(#linearGradient-71)" mask="url(#mask-70)"></path>
                                </g>
                                <g id="Group-6" transform="translate(14.625000, 55.135135)">
                                    <mask id="mask-73" fill="white">
                                        <use xlink:href="#path-72"></use>
                                    </mask>
                                    <g id="Clip-5"></g>
                                    <path d="M0,3.19882177 C0,3.19882177 3.46401318,4.85653584 5.80599451,4.86486486 L5.80599451,4.86486486 L5.83555901,4.86486486 C5.97770512,4.86462689 6.11583046,4.85796367 6.24851593,4.84463723 L6.24851593,4.84463723 C10.2406693,4.4388947 11.3695601,1.40236994 11.375,1.38761566 L11.375,1.38761566 C11.3605725,1.38166636 11.2288331,1.31669996 10.2636114,0.80101429 L10.2636114,0.80101429 C9.18982877,0.226787468 8.1134445,0 7.0838904,0 L7.0838904,0 C3.21543488,-0.00047594432 0,3.19882177 0,3.19882177" id="Fill-4" fill="url(#linearGradient-74)" mask="url(#mask-73)"></path>
                                </g>
                                <g id="Group-9" transform="translate(14.625000, 43.783784)">
                                    <mask id="mask-76" fill="white">
                                        <use xlink:href="#path-75"></use>
                                    </mask>
                                    <g id="Clip-8"></g>
                                    <path d="M2.7331773,7.6224336 C3.75187408,7.95240721 3.79972848,8.07614731 3.78769324,8.10810811 L3.78769324,8.10810811 C3.90919182,7.93793847 5.70702687,5.35364907 4.4026365,3.24553233 L4.4026365,3.24553233 C3.40027325,1.62416985 1.1084204,0 1.1084204,0 L1.1084204,0 C1.1084204,0 -2.25370882,6.00409444 2.7331773,7.6224336" id="Fill-7" fill="url(#linearGradient-77)" mask="url(#mask-76)"></path>
                                </g>
                                <g id="Group-12" transform="translate(6.500000, 50.270270)">
                                    <mask id="mask-79" fill="white">
                                        <use xlink:href="#path-78"></use>
                                    </mask>
                                    <g id="Clip-11"></g>
                                    <path d="M0,0.851409046 C0,0.851409046 3.05483588,3.95030538 5.32683671,4.57711107 L5.32683671,4.57711107 C9.23796197,5.65675783 11.3650875,3.3513631 11.375,3.34021773 L11.375,3.34021773 C11.3635625,3.32979924 11.2624039,3.22416055 10.5306565,2.41466777 L10.5306565,2.41466777 C8.82544856,0.527951142 6.57886446,0 4.59915594,0 L4.59915594,0 C2.08442541,0 0,0.851409046 0,0.851409046" id="Fill-10" fill="url(#linearGradient-80)" mask="url(#mask-79)"></path>
                                </g>
                                <g id="Group-15" transform="translate(9.750000, 38.918919)">
                                    <mask id="mask-82" fill="white">
                                        <use xlink:href="#path-81"></use>
                                    </mask>
                                    <g id="Clip-14"></g>
                                    <path d="M1.53223944,7.41436157 C2.37797467,7.95714188 2.37317957,8.08192899 2.34950378,8.10810811 L2.34950378,8.10810811 C2.53021899,7.98070308 5.25503284,6.01465158 4.83006737,3.76433852 L4.83006737,3.76433852 C4.50340139,2.03389904 2.94589396,0 2.94589396,0 L2.94589396,0 C2.94589396,0 -2.60473045,4.75761776 1.53223944,7.41436157" id="Fill-13" fill="url(#linearGradient-83)" mask="url(#mask-82)"></path>
                                </g>
                                <g id="Group-18" transform="translate(1.625000, 42.162162)">
                                    <mask id="mask-85" fill="white">
                                        <use xlink:href="#path-84"></use>
                                    </mask>
                                    <g id="Clip-17"></g>
                                    <path d="M0,0.0134765709 C0,0.0134765709 1.58044313,2.97100632 3.17072128,3.9540259 L3.17072128,3.9540259 C5.90955739,5.64437294 8.11388216,4.46517298 8.125,4.45939731 L8.125,4.45939731 C8.11837206,4.44938614 8.06663136,4.34908195 7.70466028,3.59189119 L7.70466028,3.59189119 C6.12892085,0.291286454 1.92359942,0 0.488115757,0 L0.488115757,0 C0.180451029,0 0,0.0134765709 0,0.0134765709" id="Fill-16" fill="url(#linearGradient-86)" mask="url(#mask-85)"></path>
                                </g>
                                <g id="Group-21" transform="translate(6.500000, 34.054054)">
                                    <mask id="mask-88" fill="white">
                                        <use xlink:href="#path-87"></use>
                                    </mask>
                                    <g id="Clip-20"></g>
                                    <path d="M0.835079856,7.26202693 C1.46200666,7.95859979 1.4248137,8.0852288 1.39579192,8.10810811 L1.39579192,8.10810811 C1.59753555,8.00979506 4.63073421,6.49160601 4.85248315,4.13934176 L4.85248315,4.13934176 C5.02492324,2.33074412 4.15032513,0 4.15032513,0 L4.15032513,0 C4.15032513,0 -2.23559353,3.8516515 0.835079856,7.26202693" id="Fill-19" fill="url(#linearGradient-89)" mask="url(#mask-88)"></path>
                                </g>
                                <g id="Group-24" transform="translate(0.000000, 34.054054)">
                                    <mask id="mask-91" fill="white">
                                        <use xlink:href="#path-90"></use>
                                    </mask>
                                    <g id="Clip-23"></g>
                                    <path d="M2.04904031,4.764964 C4.19821107,7.11269574 6.49030996,6.37855826 6.5,6.37529723 L6.5,6.37529723 C6.49656811,6.36367984 6.4715355,6.24872883 6.30579539,5.38618862 L6.30579539,5.38618862 C5.42884651,0.828095673 0,0 0,0 L0,0 C0,0 0.801245419,3.40144935 2.04904031,4.764964" id="Fill-22" fill="url(#linearGradient-92)" mask="url(#mask-91)"></path>
                                </g>
                                <g id="Group-27" transform="translate(4.875000, 27.567568)">
                                    <mask id="mask-94" fill="white">
                                        <use xlink:href="#path-93"></use>
                                    </mask>
                                    <g id="Clip-26"></g>
                                    <path d="M0.133324955,5.57194577 C0.354658596,6.37308061 0.286427924,6.47448711 0.258612633,6.48648649 L0.258612633,6.48648649 C0.432874243,6.45519399 3.09648553,5.94745567 4.0236619,3.9019149 L4.0236619,3.9019149 C4.73758771,2.33117299 4.875,0 4.875,0 L4.875,0 C4.875,0 -0.945290221,1.65991375 0.133324955,5.57194577" id="Fill-25" fill="url(#linearGradient-95)" mask="url(#mask-94)"></path>
                                </g>
                                <g id="Group-30" transform="translate(0.000000, 24.324324)">
                                    <mask id="mask-97" fill="white">
                                        <use xlink:href="#path-96"></use>
                                    </mask>
                                    <g id="Clip-29"></g>
                                    <path d="M0.587812567,5.13347382 C2.04037193,8.04034381 4.68377931,8.10788951 4.69385459,8.10810811 L4.69385459,8.10810811 C4.6945918,8.09564822 4.7073702,7.97957453 4.82507886,7.11918648 L4.82507886,7.11918648 C5.44679688,2.56542534 0.0560347873,0 0.0560347873,0 L0.0560347873,0 C0.0560347873,0 -0.25482422,3.44636128 0.587812567,5.13347382" id="Fill-28" fill="url(#linearGradient-98)" mask="url(#mask-97)"></path>
                                </g>
                                <g id="Group-33" transform="translate(4.875000, 22.702703)">
                                    <mask id="mask-100" fill="white">
                                        <use xlink:href="#path-99"></use>
                                    </mask>
                                    <g id="Clip-32"></g>
                                    <path d="M0.0325043925,4.05167449 C0.0986112988,4.78043145 0.02569604,4.85875162 0,4.86477625 L0,4.86477625 C0.15417624,4.86633819 2.48043655,4.86477625 3.57065144,3.24459735 L3.57065144,3.24459735 C4.40983579,2.00017679 4.875,0 4.875,0 L4.875,0 C4.875,0 -0.292539532,0.4799621 0.0325043925,4.05167449" id="Fill-31" fill="url(#linearGradient-101)" mask="url(#mask-100)"></path>
                                </g>
                                <g id="Group-36" transform="translate(1.625000, 16.216216)">
                                    <mask id="mask-103" fill="white">
                                        <use xlink:href="#path-102"></use>
                                    </mask>
                                    <g id="Clip-35"></g>
                                    <path d="M0.116392192,4.69316933 C0.986364249,7.56007942 4.00945483,8.10573662 4.02347658,8.10810811 L4.02347658,8.10810811 C4.02721572,8.09732863 4.07333172,7.99600153 4.44724521,7.24618101 L4.44724521,7.24618101 C6.42150844,3.28386032 0.921240983,0 0.921240983,0 L0.921240983,0 C0.921240983,0 -0.390260588,3.02881786 0.116392192,4.69316933" id="Fill-34" fill="url(#linearGradient-104)" mask="url(#mask-103)"></path>
                                </g>
                                <g id="Group-39" transform="translate(8.125000, 16.216216)">
                                    <mask id="mask-106" fill="white">
                                        <use xlink:href="#path-105"></use>
                                    </mask>
                                    <g id="Clip-38"></g>
                                    <path d="M0.208033833,2.29681964 C0.0958607014,2.95088388 0.021347131,2.99829318 0,2.9962219 L0,2.9962219 C0.0700830338,3.02360883 1.9043252,3.73060578 3.13238939,2.62085991 L3.13238939,2.62085991 C4.06320486,1.78107088 4.875,0.175368488 4.875,0.175368488 L4.875,0.175368488 C4.875,0.175368488 4.2071973,0 3.37385364,0 L3.37385364,0 C2.13833808,-0.000230039158 0.538712976,0.384797925 0.208033833,2.29681964" id="Fill-37" fill="url(#linearGradient-107)" mask="url(#mask-106)"></path>
                                </g>
                                <g id="Group-42" transform="translate(4.875000, 9.729730)">
                                    <mask id="mask-109" fill="white">
                                        <use xlink:href="#path-108"></use>
                                    </mask>
                                    <g id="Clip-41"></g>
                                    <path d="M0.0292499878,4.12521908 C-0.254398362,6.94617728 1.6182291,8.10528503 1.62321413,8.10810811 L1.62321413,8.10810811 C1.62869767,8.09893311 1.69076132,8.01518187 2.16882594,7.41104371 L2.16882594,7.41104371 C4.69897919,4.21038186 1.99509756,0 1.99509756,0 L1.99509756,0 C1.99509756,0 0.195002319,2.49042311 0.0292499878,4.12521908" id="Fill-40" fill="url(#linearGradient-110)" mask="url(#mask-109)"></path>
                                </g>
                                <g id="Group-45" transform="translate(9.750000, 12.972973)">
                                    <mask id="mask-112" fill="white">
                                        <use xlink:href="#path-111"></use>
                                    </mask>
                                    <g id="Clip-44"></g>
                                    <path d="M0.280130897,1.91896003 C0.0943134107,2.59694466 0.0196653495,2.63421119 0,2.62755645 L0,2.62755645 C0.0626080514,2.67254248 1.67637071,3.81209968 2.95421709,2.87378173 L2.95421709,2.87378173 C3.92203322,2.16225723 4.875,0.604250142 4.875,0.604250142 L4.875,0.604250142 C4.875,0.604250142 3.77032909,0 2.62151148,0 L2.62151148,0 C1.67215671,0 0.692501235,0.41232752 0.280130897,1.91896003" id="Fill-43" fill="url(#linearGradient-113)" mask="url(#mask-112)"></path>
                                </g>
                                <g id="Group-48" transform="translate(8.125000, 6.486486)">
                                    <mask id="mask-115" fill="white">
                                        <use xlink:href="#path-114"></use>
                                    </mask>
                                    <g id="Clip-47"></g>
                                    <path d="M0.16445741,3.08517023 C-0.50562134,5.3228087 1.08820166,6.48363832 1.09222012,6.48648649 L1.09222012,6.48648649 C1.09900128,6.4799764 1.16882208,6.42036843 1.70553808,5.99110966 L1.70553808,5.99110966 C4.54232199,3.71949669 2.60316231,0 2.60316231,0 L2.60316231,0 C2.60316231,0 0.554750656,1.78742536 0.16445741,3.08517023" id="Fill-46" fill="url(#linearGradient-116)" mask="url(#mask-115)"></path>
                                </g>
                                <g id="Group-51" transform="translate(13.000000, 9.729730)">
                                    <mask id="mask-118" fill="white">
                                        <use xlink:href="#path-117"></use>
                                    </mask>
                                    <g id="Clip-50"></g>
                                    <path d="M0.37298572,1.33964674 C0.09324643,1.96518049 0.0174570942,1.97857392 0,1.96548489 L0,1.96548489 C0.0513068256,2.03032123 1.37974912,3.67984309 2.72202935,3.13193031 L2.72202935,3.13193031 C3.73943731,2.71612539 4.875,1.441315 4.875,1.441315 L4.875,1.441315 C4.875,1.441315 3.45629176,0.000304395987 2.10954081,0 L2.10954081,0 C1.45745447,0 0.822612341,0.33757515 0.37298572,1.33964674" id="Fill-49" fill="url(#linearGradient-119)" mask="url(#mask-118)"></path>
                                </g>
                                <g id="Group-54" transform="translate(13.000000, 1.621622)">
                                    <mask id="mask-121" fill="white">
                                        <use xlink:href="#path-120"></use>
                                    </mask>
                                    <g id="Clip-53"></g>
                                    <path d="M0.368122893,2.85927536 C-0.593948022,5.07762604 0.633435621,6.48273015 0.636683328,6.48648649 L0.636683328,6.48648649 C0.643678391,6.48038244 0.715377781,6.42779375 1.2614923,6.05591657 L1.2614923,6.05591657 C4.15445029,4.08736218 3.03823818,0 3.03823818,0 L3.03823818,0 C3.03823818,0 0.92547948,1.57320011 0.368122893,2.85927536" id="Fill-52" fill="url(#linearGradient-122)" mask="url(#mask-121)"></path>
                                </g>
                                <g id="Group-57" transform="translate(16.250000, 4.864865)">
                                    <mask id="mask-124" fill="white">
                                        <use xlink:href="#path-123"></use>
                                    </mask>
                                    <g id="Clip-56"></g>
                                    <path d="M0.394879432,1.17311729 C0.0923640017,1.76966274 0.0167934549,1.77498904 0,1.76100751 L0,1.76100751 C0.0478146979,1.82825203 1.31198866,3.59724899 2.6694596,3.17946743 L2.6694596,3.17946743 C3.69735898,2.86455002 4.875,1.70674584 4.875,1.70674584 L4.875,1.70674584 C4.875,1.70674584 3.39414382,0.000332893669 1.9993541,0 L1.9993541,0 C1.40971724,0 0.835474379,0.304930601 0.394879432,1.17311729" id="Fill-55" fill="url(#linearGradient-125)" mask="url(#mask-124)"></path>
                                </g>
                                <g id="Group-60" transform="translate(21.125000, 1.621622)">
                                    <mask id="mask-127" fill="white">
                                        <use xlink:href="#path-126"></use>
                                    </mask>
                                    <g id="Clip-59"></g>
                                    <path d="M0.300901606,1.82877057 C0.0940625316,2.5066018 0.0189602485,2.53843272 0,2.53072629 L0,2.53072629 C0.0586044045,2.57797009 1.61063618,3.8093244 2.90264168,2.92375448 L2.90264168,2.92375448 C3.88069502,2.25195437 4.875,0.724404904 4.875,0.724404904 L4.875,0.724404904 C4.875,0.724404904 3.71103773,0 2.52491413,0 L2.52491413,0 C1.63624482,0 0.734771189,0.406430688 0.300901606,1.82877057" id="Fill-58" fill="url(#linearGradient-128)" mask="url(#mask-127)"></path>
                                </g>
                                <g id="Group-63" transform="translate(16.250000, 0.000000)">
                                    <mask id="mask-130" fill="white">
                                        <use xlink:href="#path-129"></use>
                                    </mask>
                                    <g id="Clip-62"></g>
                                    <path d="M3.23959245,0 C3.20834199,0.0153538753 1.25403937,0.96960774 0.604443424,1.91586918 L0.604443424,1.91586918 C-0.5247092,3.55894416 0.274015774,4.86192029 0.276083819,4.86486486 L0.276083819,4.86486486 C0.28274752,4.86107898 0.350073877,4.82974025 0.856515143,4.60889683 L0.856515143,4.60889683 C3.52774006,3.44515722 3.24257962,0.028814807 3.24005201,0 L3.24005201,0 L3.23959245,0 Z" id="Fill-61" fill="url(#linearGradient-131)" mask="url(#mask-130)"></path>
                                </g>
                            </g>
                        </g>
                    </g>
                </g>
            </g>
        </g>
    </g>
</svg>