<?xml version="1.0" encoding="UTF-8"?>
<svg width="449px" height="74px" viewBox="0 0 449 74" version="1.1" xmlns="http://www.w3.org/2000/svg" xmlns:xlink="http://www.w3.org/1999/xlink">
    <title>#1 Best Mattress</title>
    <defs>
        <filter color-interpolation-filters="auto" id="filter-1">
            <feColorMatrix in="SourceGraphic" type="matrix" values="0 0 0 0 0.639216 0 0 0 0 0.517647 0 0 0 0 0.431373 0 0 0 1.000000 0"></feColorMatrix>
        </filter>
        <path d="M3.90927755,7.86958634 C4.85054369,7.94746148 4.92880938,8.07033633 4.92996374,8.10810811 L4.92996374,8.10810811 C4.97175162,7.89057066 5.57478993,4.56945227 3.8081555,2.6293353 L3.8081555,2.6293353 C2.45131931,1.13851594 0.0433217874,0 0.0433217874,0 L0.0433217874,0 C0.0433217874,0 -0.693391549,7.48650592 3.90927755,7.86958634" id="path-2"></path>
        <linearGradient x1="-0.000454761483%" y1="50.0000664%" x2="99.99918%" y2="50.0000664%" id="linearGradient-4">
            <stop stop-color="#FFCA3D" offset="0%"></stop>
            <stop stop-color="#E6A800" offset="100%"></stop>
        </linearGradient>
        <path d="M0,3.19882177 C0,3.19882177 3.59724446,4.85653584 6.02930199,4.86486486 L6.02930199,4.86486486 L6.06000359,4.86486486 C6.20761685,4.86462689 6.35105471,4.85796367 6.48884346,4.84463723 L6.48884346,4.84463723 C10.6345412,4.4388947 11.8068509,1.40236994 11.8125,1.38761566 L11.8125,1.38761566 C11.7975176,1.38166636 11.6607113,1.31669996 10.6583656,0.80101429 L10.6583656,0.80101429 C9.54328373,0.226787468 8.42550006,0 7.35634773,0 L7.35634773,0 C3.33910545,-0.00047594432 0,3.19882177 0,3.19882177" id="path-5"></path>
        <linearGradient x1="-0.000208341997%" y1="49.9998396%" x2="100.000414%" y2="49.9998396%" id="linearGradient-7">
            <stop stop-color="#FFCA3D" offset="0%"></stop>
            <stop stop-color="#E6A800" offset="100%"></stop>
        </linearGradient>
        <path d="M2.8382995,7.6224336 C3.89617693,7.95240721 3.94587188,8.07614731 3.93337375,8.10810811 L3.93337375,8.10810811 C4.05954535,7.93793847 5.92652791,5.35364907 4.57196868,3.24553233 L4.57196868,3.24553233 C3.53105299,1.62416985 1.15105196,0 1.15105196,0 L1.15105196,0 C1.15105196,0 -2.34038993,6.00409444 2.8382995,7.6224336" id="path-8"></path>
        <linearGradient x1="-0.000154892959%" y1="49.9997907%" x2="100.000224%" y2="49.9997907%" id="linearGradient-10">
            <stop stop-color="#FFCA3D" offset="0%"></stop>
            <stop stop-color="#E6A800" offset="100%"></stop>
        </linearGradient>
        <path d="M0,0.851409046 C0,0.851409046 3.17232957,3.95030538 5.53171504,4.57711107 L5.53171504,4.57711107 C9.5932682,5.65675783 11.8022062,3.3513631 11.8125,3.34021773 L11.8125,3.34021773 C11.8006226,3.32979924 11.6955733,3.22416055 10.9356817,2.41466777 L10.9356817,2.41466777 C9.16488889,0.527951142 6.83189771,0 4.77604655,0 L4.77604655,0 C2.16459562,0 0,0.851409046 0,0.851409046" id="path-11"></path>
        <linearGradient x1="-0.000445546767%" y1="49.9994957%" x2="100.001791%" y2="49.9994957%" id="linearGradient-13">
            <stop stop-color="#FFCA3D" offset="0%"></stop>
            <stop stop-color="#E6A800" offset="100%"></stop>
        </linearGradient>
        <path d="M1.59117173,7.41436157 C2.46943523,7.95714188 2.46445571,8.08192899 2.43986931,8.10810811 L2.43986931,8.10810811 C2.62753511,7.98070308 5.45714948,6.01465158 5.01583919,3.76433852 L5.01583919,3.76433852 C4.67660914,2.03389904 3.05919758,0 3.05919758,0 L3.05919758,0 C3.05919758,0 -2.70491239,4.75761776 1.59117173,7.41436157" id="path-14"></path>
        <linearGradient x1="-0.00055479768%" y1="50.0018129%" x2="100.000976%" y2="50.0018129%" id="linearGradient-16">
            <stop stop-color="#FFCA3D" offset="0%"></stop>
            <stop stop-color="#E6A800" offset="100%"></stop>
        </linearGradient>
        <path d="M0,0.0134765709 C0,0.0134765709 1.64122941,2.97100632 3.2926721,3.9540259 L3.2926721,3.9540259 C6.13684806,5.64437294 8.42595456,4.46517298 8.4375,4.45939731 L8.4375,4.45939731 C8.43061714,4.44938614 8.37688641,4.34908195 8.00099337,3.59189119 L8.00099337,3.59189119 C6.36464857,0.291286454 1.99758401,0 0.50688944,0 L0.50688944,0 C0.187391453,0 0,0.0134765709 0,0.0134765709" id="path-17"></path>
        <linearGradient x1="0.000263407189%" y1="49.9993849%" x2="99.9981625%" y2="49.9993849%" id="linearGradient-19">
            <stop stop-color="#FFCA3D" offset="0%"></stop>
            <stop stop-color="#E6A800" offset="100%"></stop>
        </linearGradient>
        <path d="M0.867198312,7.26202693 C1.51823768,7.95859979 1.47961422,8.0852288 1.44947622,8.10810811 L1.44947622,8.10810811 C1.65897923,8.00979506 4.80883937,6.49160601 5.03911712,4.13934176 L5.03911712,4.13934176 C5.21818952,2.33074412 4.30995302,0 4.30995302,0 L4.30995302,0 C4.30995302,0 -2.32157789,3.8516515 0.867198312,7.26202693" id="path-20"></path>
        <linearGradient x1="0.00119008586%" y1="49.9993703%" x2="100.00229%" y2="49.9993703%" id="linearGradient-22">
            <stop stop-color="#FFCA3D" offset="0%"></stop>
            <stop stop-color="#E6A800" offset="100%"></stop>
        </linearGradient>
        <path d="M2.12784956,4.764964 C4.35968073,7.11269574 6.73993726,6.37855826 6.75,6.37529723 L6.75,6.37529723 C6.74643611,6.36367984 6.72044071,6.24872883 6.54832598,5.38618862 L6.54832598,5.38618862 C5.6376483,0.828095673 0,0 0,0 L0,0 C0,0 0.83206255,3.40144935 2.12784956,4.764964" id="path-23"></path>
        <linearGradient x1="0%" y1="49.9997943%" x2="100.00279%" y2="49.9997943%" id="linearGradient-25">
            <stop stop-color="#FFCA3D" offset="0%"></stop>
            <stop stop-color="#E6A800" offset="100%"></stop>
        </linearGradient>
        <path d="M0.138452838,5.57194577 C0.368299311,6.37308061 0.297444383,6.47448711 0.268559273,6.48648649 L0.268559273,6.48648649 C0.449523252,6.45519399 3.21558113,5.94745567 4.17841813,3.9019149 L4.17841813,3.9019149 C4.91980262,2.33117299 5.0625,0 5.0625,0 L5.0625,0 C5.0625,0 -0.981647537,1.65991375 0.138452838,5.57194577" id="path-26"></path>
        <linearGradient x1="0.00214208163%" y1="50.0008288%" x2="100.000005%" y2="50.0008288%" id="linearGradient-28">
            <stop stop-color="#FFCA3D" offset="0%"></stop>
            <stop stop-color="#E6A800" offset="100%"></stop>
        </linearGradient>
        <path d="M0.610420743,5.13347382 C2.11884777,8.04034381 4.86392467,8.10788951 4.87438746,8.10810811 L4.87438746,8.10810811 C4.87515302,8.09564822 4.8884229,7.97957453 5.01065882,7.11918648 L5.01065882,7.11918648 C5.65628907,2.56542534 0.0581899714,0 0.0581899714,0 L0.0581899714,0 C0.0581899714,0 -0.264625152,3.44636128 0.610420743,5.13347382" id="path-29"></path>
        <linearGradient x1="0.00201139853%" y1="49.9996581%" x2="99.9978152%" y2="49.9996581%" id="linearGradient-31">
            <stop stop-color="#FFCA3D" offset="0%"></stop>
            <stop stop-color="#E6A800" offset="100%"></stop>
        </linearGradient>
        <path d="M0.0337545614,4.05167449 C0.102404041,4.78043145 0.0266843492,4.85875162 0,4.86477625 L0,4.86477625 C0.160106095,4.86633819 2.57583795,4.86477625 3.70798419,3.24459735 L3.70798419,3.24459735 C4.57944486,2.00017679 5.0625,0 5.0625,0 L5.0625,0 C5.0625,0 -0.303791053,0.4799621 0.0337545614,4.05167449" id="path-32"></path>
        <linearGradient x1="0.00135108348%" y1="50.0008505%" x2="99.9972974%" y2="50.0008505%" id="linearGradient-34">
            <stop stop-color="#FFCA3D" offset="0%"></stop>
            <stop stop-color="#E6A800" offset="100%"></stop>
        </linearGradient>
        <path d="M0.120868815,4.69316933 C1.02430134,7.56007942 4.16366463,8.10573662 4.17822568,8.10810811 L4.17822568,8.10810811 C4.18210863,8.09732863 4.22999832,7.99600153 4.6182931,7.24618101 L4.6182931,7.24618101 C6.66848954,3.28386032 0.956673328,0 0.956673328,0 L0.956673328,0 C0.956673328,0 -0.405270611,3.02881786 0.120868815,4.69316933" id="path-35"></path>
        <linearGradient x1="0.000639081927%" y1="50.0005988%" x2="99.9979655%" y2="50.0005988%" id="linearGradient-37">
            <stop stop-color="#FFCA3D" offset="0%"></stop>
            <stop stop-color="#E6A800" offset="100%"></stop>
        </linearGradient>
        <path d="M0.216035134,2.29681964 C0.0995476515,2.95088388 0.0221681745,2.99829318 0,2.9962219 L0,2.9962219 C0.0727785351,3.02360883 1.97756847,3.73060578 3.25286591,2.62085991 L3.25286591,2.62085991 C4.21948197,1.78107088 5.0625,0.175368488 5.0625,0.175368488 L5.0625,0.175368488 C5.0625,0.175368488 4.36901258,0 3.50361724,0 L3.50361724,0 C2.22058186,-0.000230039158 0.559432705,0.384797925 0.216035134,2.29681964" id="path-38"></path>
        <linearGradient x1="-2.06551823e-06%" y1="49.999836%" x2="99.9991738%" y2="49.999836%" id="linearGradient-40">
            <stop stop-color="#FFCA3D" offset="0%"></stop>
            <stop stop-color="#E6A800" offset="100%"></stop>
        </linearGradient>
        <path d="M0.0303749873,4.12521908 C-0.264182914,6.94617728 1.68046868,8.10528503 1.68564545,8.10810811 L1.68564545,8.10810811 C1.69133989,8.09893311 1.75579061,8.01518187 2.25224232,7.41104371 L2.25224232,7.41104371 C4.87970916,4.21038186 2.07183208,0 2.07183208,0 L2.07183208,0 C2.07183208,0 0.202502408,2.49042311 0.0303749873,4.12521908" id="path-41"></path>
        <linearGradient x1="0.00187162621%" y1="49.9993245%" x2="99.9999672%" y2="49.9993245%" id="linearGradient-43">
            <stop stop-color="#FFCA3D" offset="0%"></stop>
            <stop stop-color="#E6A800" offset="100%"></stop>
        </linearGradient>
        <path d="M0.290905162,1.91896003 C0.0979408496,2.59694466 0.0204217091,2.63421119 0,2.62755645 L0,2.62755645 C0.0650160533,2.67254248 1.74084651,3.81209968 3.06784082,2.87378173 L3.06784082,2.87378173 C4.07288065,2.16225723 5.0625,0.604250142 5.0625,0.604250142 L5.0625,0.604250142 C5.0625,0.604250142 3.91534175,0 2.72233885,0 L2.72233885,0 C1.73647042,0 0.719135898,0.41232752 0.290905162,1.91896003" id="path-44"></path>
        <linearGradient x1="-2.88136989e-06%" y1="49.9989679%" x2="100.000408%" y2="49.9989679%" id="linearGradient-46">
            <stop stop-color="#FFCA3D" offset="0%"></stop>
            <stop stop-color="#E6A800" offset="100%"></stop>
        </linearGradient>
        <path d="M0.170782696,3.08517023 C-0.525068315,5.3228087 1.13005557,6.48363832 1.13422859,6.48648649 L1.13422859,6.48648649 C1.14127056,6.4799764 1.21377677,6.42036843 1.77113569,5.99110966 L1.77113569,5.99110966 C4.71702669,3.71949669 2.70328394,0 2.70328394,0 L2.70328394,0 C2.70328394,0 0.57608722,1.78742536 0.170782696,3.08517023" id="path-47"></path>
        <linearGradient x1="0.00243480932%" y1="50.000063%" x2="100.001627%" y2="50.000063%" id="linearGradient-49">
            <stop stop-color="#FFCA3D" offset="0%"></stop>
            <stop stop-color="#E6A800" offset="100%"></stop>
        </linearGradient>
        <path d="M0.387331325,1.33964674 C0.0968328311,1.96518049 0.0181285209,1.97857392 0,1.96548489 L0,1.96548489 C0.0532801651,2.03032123 1.43281639,3.67984309 2.82672278,3.13193031 L2.82672278,3.13193031 C3.88326182,2.71612539 5.0625,1.441315 5.0625,1.441315 L5.0625,1.441315 C5.0625,1.441315 3.58922606,0.000304395987 2.19067699,0 L2.19067699,0 C1.51351042,0 0.854251277,0.33757515 0.387331325,1.33964674" id="path-50"></path>
        <linearGradient x1="-0.00262762566%" y1="50.0044355%" x2="100.002612%" y2="50.0044355%" id="linearGradient-52">
            <stop stop-color="#FFCA3D" offset="0%"></stop>
            <stop stop-color="#E6A800" offset="100%"></stop>
        </linearGradient>
        <path d="M0.382281466,2.85927536 C-0.616792177,5.07762604 0.657798529,6.48273015 0.661171149,6.48648649 L0.661171149,6.48648649 C0.668435252,6.48038244 0.742892311,6.42779375 1.31001124,6.05591657 L1.31001124,6.05591657 C4.31423684,4.08736218 3.15509349,0 3.15509349,0 L3.15509349,0 C3.15509349,0 0.961074844,1.57320011 0.382281466,2.85927536" id="path-53"></path>
        <linearGradient x1="0.000318557404%" y1="49.9997398%" x2="100.00309%" y2="49.9997398%" id="linearGradient-55">
            <stop stop-color="#FFCA3D" offset="0%"></stop>
            <stop stop-color="#E6A800" offset="100%"></stop>
        </linearGradient>
        <path d="M0.410067102,1.17311729 C0.0959164633,1.76966274 0.017439357,1.77498904 0,1.76100751 L0,1.76100751 C0.0496537247,1.82825203 1.36244976,3.59724899 2.77213112,3.17946743 L2.77213112,3.17946743 C3.83956509,2.86455002 5.0625,1.70674584 5.0625,1.70674584 L5.0625,1.70674584 C5.0625,1.70674584 3.52468781,0.000332893669 2.07625233,0 L2.07625233,0 C1.46393713,0 0.867608009,0.304930601 0.410067102,1.17311729" id="path-56"></path>
        <linearGradient x1="0.000943017081%" y1="49.999753%" x2="99.9999895%" y2="49.999753%" id="linearGradient-58">
            <stop stop-color="#FFCA3D" offset="0%"></stop>
            <stop stop-color="#E6A800" offset="100%"></stop>
        </linearGradient>
        <path d="M0.312474745,1.82877057 C0.0976803212,2.5066018 0.0196894888,2.53843272 0,2.53072629 L0,2.53072629 C0.06085842,2.57797009 1.67258372,3.8093244 3.01428175,2.92375448 L3.01428175,2.92375448 C4.02995252,2.25195437 5.0625,0.724404904 5.0625,0.724404904 L5.0625,0.724404904 C5.0625,0.724404904 3.85376995,0 2.62202621,0 L2.62202621,0 C1.69917732,0 0.763031619,0.406430688 0.312474745,1.82877057" id="path-59"></path>
        <linearGradient x1="-0.00101474896%" y1="50.0018948%" x2="99.9979756%" y2="50.0018948%" id="linearGradient-61">
            <stop stop-color="#FFCA3D" offset="0%"></stop>
            <stop stop-color="#E6A800" offset="100%"></stop>
        </linearGradient>
        <path d="M3.36419216,0 C3.33173976,0.0153538753 1.30227165,0.96960774 0.627691248,1.91586918 L0.627691248,1.91586918 C-0.544890323,3.55894416 0.284554842,4.86192029 0.286702427,4.86486486 L0.286702427,4.86486486 C0.293622424,4.86107898 0.363538257,4.82974025 0.889458034,4.60889683 L0.889458034,4.60889683 C3.66342237,3.44515722 3.36729422,0.028814807 3.3646694,0 L3.3646694,0 L3.36419216,0 Z" id="path-62"></path>
        <linearGradient x1="0.0027073427%" y1="50.000981%" x2="100.001662%" y2="50.000981%" id="linearGradient-64">
            <stop stop-color="#FFCA3D" offset="0%"></stop>
            <stop stop-color="#E6A800" offset="100%"></stop>
        </linearGradient>
        <filter color-interpolation-filters="auto" id="filter-65">
            <feColorMatrix in="SourceGraphic" type="matrix" values="0 0 0 0 0.639216 0 0 0 0 0.517647 0 0 0 0 0.431373 0 0 0 1.000000 0"></feColorMatrix>
        </filter>
        <path d="M3.76448949,7.86958634 C4.67089393,7.94746148 4.74626089,8.07033633 4.7473725,8.10810811 L4.7473725,8.10810811 C4.78761267,7.89057066 5.36831623,4.56945227 3.66711271,2.6293353 L3.66711271,2.6293353 C2.36052971,1.13851594 0.0417172767,0 0.0417172767,0 L0.0417172767,0 C0.0417172767,0 -0.667710381,7.48650592 3.76448949,7.86958634" id="path-66"></path>
        <linearGradient x1="-0.000454761483%" y1="50.0000664%" x2="99.99918%" y2="50.0000664%" id="linearGradient-68">
            <stop stop-color="#FFCA3D" offset="0%"></stop>
            <stop stop-color="#E6A800" offset="100%"></stop>
        </linearGradient>
        <path d="M0,3.19882177 C0,3.19882177 3.46401318,4.85653584 5.80599451,4.86486486 L5.80599451,4.86486486 L5.83555901,4.86486486 C5.97770512,4.86462689 6.11583046,4.85796367 6.24851593,4.84463723 L6.24851593,4.84463723 C10.2406693,4.4388947 11.3695601,1.40236994 11.375,1.38761566 L11.375,1.38761566 C11.3605725,1.38166636 11.2288331,1.31669996 10.2636114,0.80101429 L10.2636114,0.80101429 C9.18982877,0.226787468 8.1134445,0 7.0838904,0 L7.0838904,0 C3.21543488,-0.00047594432 0,3.19882177 0,3.19882177" id="path-69"></path>
        <linearGradient x1="-0.000208341997%" y1="49.9998396%" x2="100.000414%" y2="49.9998396%" id="linearGradient-71">
            <stop stop-color="#FFCA3D" offset="0%"></stop>
            <stop stop-color="#E6A800" offset="100%"></stop>
        </linearGradient>
        <path d="M2.7331773,7.6224336 C3.75187408,7.95240721 3.79972848,8.07614731 3.78769324,8.10810811 L3.78769324,8.10810811 C3.90919182,7.93793847 5.70702687,5.35364907 4.4026365,3.24553233 L4.4026365,3.24553233 C3.40027325,1.62416985 1.1084204,0 1.1084204,0 L1.1084204,0 C1.1084204,0 -2.25370882,6.00409444 2.7331773,7.6224336" id="path-72"></path>
        <linearGradient x1="-0.000154892959%" y1="49.9997907%" x2="100.000224%" y2="49.9997907%" id="linearGradient-74">
            <stop stop-color="#FFCA3D" offset="0%"></stop>
            <stop stop-color="#E6A800" offset="100%"></stop>
        </linearGradient>
        <path d="M0,0.851409046 C0,0.851409046 3.05483588,3.95030538 5.32683671,4.57711107 L5.32683671,4.57711107 C9.23796197,5.65675783 11.3650875,3.3513631 11.375,3.34021773 L11.375,3.34021773 C11.3635625,3.32979924 11.2624039,3.22416055 10.5306565,2.41466777 L10.5306565,2.41466777 C8.82544856,0.527951142 6.57886446,0 4.59915594,0 L4.59915594,0 C2.08442541,0 0,0.851409046 0,0.851409046" id="path-75"></path>
        <linearGradient x1="-0.000445546767%" y1="49.9994957%" x2="100.001791%" y2="49.9994957%" id="linearGradient-77">
            <stop stop-color="#FFCA3D" offset="0%"></stop>
            <stop stop-color="#E6A800" offset="100%"></stop>
        </linearGradient>
        <path d="M1.53223944,7.41436157 C2.37797467,7.95714188 2.37317957,8.08192899 2.34950378,8.10810811 L2.34950378,8.10810811 C2.53021899,7.98070308 5.25503284,6.01465158 4.83006737,3.76433852 L4.83006737,3.76433852 C4.50340139,2.03389904 2.94589396,0 2.94589396,0 L2.94589396,0 C2.94589396,0 -2.60473045,4.75761776 1.53223944,7.41436157" id="path-78"></path>
        <linearGradient x1="-0.00055479768%" y1="50.0018129%" x2="100.000976%" y2="50.0018129%" id="linearGradient-80">
            <stop stop-color="#FFCA3D" offset="0%"></stop>
            <stop stop-color="#E6A800" offset="100%"></stop>
        </linearGradient>
        <path d="M0,0.0134765709 C0,0.0134765709 1.58044313,2.97100632 3.17072128,3.9540259 L3.17072128,3.9540259 C5.90955739,5.64437294 8.11388216,4.46517298 8.125,4.45939731 L8.125,4.45939731 C8.11837206,4.44938614 8.06663136,4.34908195 7.70466028,3.59189119 L7.70466028,3.59189119 C6.12892085,0.291286454 1.92359942,0 0.488115757,0 L0.488115757,0 C0.180451029,0 0,0.0134765709 0,0.0134765709" id="path-81"></path>
        <linearGradient x1="0.000263407189%" y1="49.9993849%" x2="99.9981625%" y2="49.9993849%" id="linearGradient-83">
            <stop stop-color="#FFCA3D" offset="0%"></stop>
            <stop stop-color="#E6A800" offset="100%"></stop>
        </linearGradient>
        <path d="M0.835079856,7.26202693 C1.46200666,7.95859979 1.4248137,8.0852288 1.39579192,8.10810811 L1.39579192,8.10810811 C1.59753555,8.00979506 4.63073421,6.49160601 4.85248315,4.13934176 L4.85248315,4.13934176 C5.02492324,2.33074412 4.15032513,0 4.15032513,0 L4.15032513,0 C4.15032513,0 -2.23559353,3.8516515 0.835079856,7.26202693" id="path-84"></path>
        <linearGradient x1="0.00119008586%" y1="49.9993703%" x2="100.00229%" y2="49.9993703%" id="linearGradient-86">
            <stop stop-color="#FFCA3D" offset="0%"></stop>
            <stop stop-color="#E6A800" offset="100%"></stop>
        </linearGradient>
        <path d="M2.04904031,4.764964 C4.19821107,7.11269574 6.49030996,6.37855826 6.5,6.37529723 L6.5,6.37529723 C6.49656811,6.36367984 6.4715355,6.24872883 6.30579539,5.38618862 L6.30579539,5.38618862 C5.42884651,0.828095673 0,0 0,0 L0,0 C0,0 0.801245419,3.40144935 2.04904031,4.764964" id="path-87"></path>
        <linearGradient x1="0%" y1="49.9997943%" x2="100.00279%" y2="49.9997943%" id="linearGradient-89">
            <stop stop-color="#FFCA3D" offset="0%"></stop>
            <stop stop-color="#E6A800" offset="100%"></stop>
        </linearGradient>
        <path d="M0.133324955,5.57194577 C0.354658596,6.37308061 0.286427924,6.47448711 0.258612633,6.48648649 L0.258612633,6.48648649 C0.432874243,6.45519399 3.09648553,5.94745567 4.0236619,3.9019149 L4.0236619,3.9019149 C4.73758771,2.33117299 4.875,0 4.875,0 L4.875,0 C4.875,0 -0.945290221,1.65991375 0.133324955,5.57194577" id="path-90"></path>
        <linearGradient x1="0.00214208163%" y1="50.0008288%" x2="100.000005%" y2="50.0008288%" id="linearGradient-92">
            <stop stop-color="#FFCA3D" offset="0%"></stop>
            <stop stop-color="#E6A800" offset="100%"></stop>
        </linearGradient>
        <path d="M0.587812567,5.13347382 C2.04037193,8.04034381 4.68377931,8.10788951 4.69385459,8.10810811 L4.69385459,8.10810811 C4.6945918,8.09564822 4.7073702,7.97957453 4.82507886,7.11918648 L4.82507886,7.11918648 C5.44679688,2.56542534 0.0560347873,0 0.0560347873,0 L0.0560347873,0 C0.0560347873,0 -0.25482422,3.44636128 0.587812567,5.13347382" id="path-93"></path>
        <linearGradient x1="0.00201139853%" y1="49.9996581%" x2="99.9978152%" y2="49.9996581%" id="linearGradient-95">
            <stop stop-color="#FFCA3D" offset="0%"></stop>
            <stop stop-color="#E6A800" offset="100%"></stop>
        </linearGradient>
        <path d="M0.0325043925,4.05167449 C0.0986112988,4.78043145 0.02569604,4.85875162 0,4.86477625 L0,4.86477625 C0.15417624,4.86633819 2.48043655,4.86477625 3.57065144,3.24459735 L3.57065144,3.24459735 C4.40983579,2.00017679 4.875,0 4.875,0 L4.875,0 C4.875,0 -0.292539532,0.4799621 0.0325043925,4.05167449" id="path-96"></path>
        <linearGradient x1="0.00135108348%" y1="50.0008505%" x2="99.9972974%" y2="50.0008505%" id="linearGradient-98">
            <stop stop-color="#FFCA3D" offset="0%"></stop>
            <stop stop-color="#E6A800" offset="100%"></stop>
        </linearGradient>
        <path d="M0.116392192,4.69316933 C0.986364249,7.56007942 4.00945483,8.10573662 4.02347658,8.10810811 L4.02347658,8.10810811 C4.02721572,8.09732863 4.07333172,7.99600153 4.44724521,7.24618101 L4.44724521,7.24618101 C6.42150844,3.28386032 0.921240983,0 0.921240983,0 L0.921240983,0 C0.921240983,0 -0.390260588,3.02881786 0.116392192,4.69316933" id="path-99"></path>
        <linearGradient x1="0.000639081927%" y1="50.0005988%" x2="99.9979655%" y2="50.0005988%" id="linearGradient-101">
            <stop stop-color="#FFCA3D" offset="0%"></stop>
            <stop stop-color="#E6A800" offset="100%"></stop>
        </linearGradient>
        <path d="M0.208033833,2.29681964 C0.0958607014,2.95088388 0.021347131,2.99829318 0,2.9962219 L0,2.9962219 C0.0700830338,3.02360883 1.9043252,3.73060578 3.13238939,2.62085991 L3.13238939,2.62085991 C4.06320486,1.78107088 4.875,0.175368488 4.875,0.175368488 L4.875,0.175368488 C4.875,0.175368488 4.2071973,0 3.37385364,0 L3.37385364,0 C2.13833808,-0.000230039158 0.538712976,0.384797925 0.208033833,2.29681964" id="path-102"></path>
        <linearGradient x1="-2.06551823e-06%" y1="49.999836%" x2="99.9991738%" y2="49.999836%" id="linearGradient-104">
            <stop stop-color="#FFCA3D" offset="0%"></stop>
            <stop stop-color="#E6A800" offset="100%"></stop>
        </linearGradient>
        <path d="M0.0292499878,4.12521908 C-0.254398362,6.94617728 1.6182291,8.10528503 1.62321413,8.10810811 L1.62321413,8.10810811 C1.62869767,8.09893311 1.69076132,8.01518187 2.16882594,7.41104371 L2.16882594,7.41104371 C4.69897919,4.21038186 1.99509756,0 1.99509756,0 L1.99509756,0 C1.99509756,0 0.195002319,2.49042311 0.0292499878,4.12521908" id="path-105"></path>
        <linearGradient x1="0.00187162621%" y1="49.9993245%" x2="99.9999672%" y2="49.9993245%" id="linearGradient-107">
            <stop stop-color="#FFCA3D" offset="0%"></stop>
            <stop stop-color="#E6A800" offset="100%"></stop>
        </linearGradient>
        <path d="M0.280130897,1.91896003 C0.0943134107,2.59694466 0.0196653495,2.63421119 0,2.62755645 L0,2.62755645 C0.0626080514,2.67254248 1.67637071,3.81209968 2.95421709,2.87378173 L2.95421709,2.87378173 C3.92203322,2.16225723 4.875,0.604250142 4.875,0.604250142 L4.875,0.604250142 C4.875,0.604250142 3.77032909,0 2.62151148,0 L2.62151148,0 C1.67215671,0 0.692501235,0.41232752 0.280130897,1.91896003" id="path-108"></path>
        <linearGradient x1="-2.88136989e-06%" y1="49.9989679%" x2="100.000408%" y2="49.9989679%" id="linearGradient-110">
            <stop stop-color="#FFCA3D" offset="0%"></stop>
            <stop stop-color="#E6A800" offset="100%"></stop>
        </linearGradient>
        <path d="M0.16445741,3.08517023 C-0.50562134,5.3228087 1.08820166,6.48363832 1.09222012,6.48648649 L1.09222012,6.48648649 C1.09900128,6.4799764 1.16882208,6.42036843 1.70553808,5.99110966 L1.70553808,5.99110966 C4.54232199,3.71949669 2.60316231,0 2.60316231,0 L2.60316231,0 C2.60316231,0 0.554750656,1.78742536 0.16445741,3.08517023" id="path-111"></path>
        <linearGradient x1="0.00243480932%" y1="50.000063%" x2="100.001627%" y2="50.000063%" id="linearGradient-113">
            <stop stop-color="#FFCA3D" offset="0%"></stop>
            <stop stop-color="#E6A800" offset="100%"></stop>
        </linearGradient>
        <path d="M0.37298572,1.33964674 C0.09324643,1.96518049 0.0174570942,1.97857392 0,1.96548489 L0,1.96548489 C0.0513068256,2.03032123 1.37974912,3.67984309 2.72202935,3.13193031 L2.72202935,3.13193031 C3.73943731,2.71612539 4.875,1.441315 4.875,1.441315 L4.875,1.441315 C4.875,1.441315 3.45629176,0.000304395987 2.10954081,0 L2.10954081,0 C1.45745447,0 0.822612341,0.33757515 0.37298572,1.33964674" id="path-114"></path>
        <linearGradient x1="-0.00262762566%" y1="50.0044355%" x2="100.002612%" y2="50.0044355%" id="linearGradient-116">
            <stop stop-color="#FFCA3D" offset="0%"></stop>
            <stop stop-color="#E6A800" offset="100%"></stop>
        </linearGradient>
        <path d="M0.368122893,2.85927536 C-0.593948022,5.07762604 0.633435621,6.48273015 0.636683328,6.48648649 L0.636683328,6.48648649 C0.643678391,6.48038244 0.715377781,6.42779375 1.2614923,6.05591657 L1.2614923,6.05591657 C4.15445029,4.08736218 3.03823818,0 3.03823818,0 L3.03823818,0 C3.03823818,0 0.92547948,1.57320011 0.368122893,2.85927536" id="path-117"></path>
        <linearGradient x1="0.000318557404%" y1="49.9997398%" x2="100.00309%" y2="49.9997398%" id="linearGradient-119">
            <stop stop-color="#FFCA3D" offset="0%"></stop>
            <stop stop-color="#E6A800" offset="100%"></stop>
        </linearGradient>
        <path d="M0.394879432,1.17311729 C0.0923640017,1.76966274 0.0167934549,1.77498904 0,1.76100751 L0,1.76100751 C0.0478146979,1.82825203 1.31198866,3.59724899 2.6694596,3.17946743 L2.6694596,3.17946743 C3.69735898,2.86455002 4.875,1.70674584 4.875,1.70674584 L4.875,1.70674584 C4.875,1.70674584 3.39414382,0.000332893669 1.9993541,0 L1.9993541,0 C1.40971724,0 0.835474379,0.304930601 0.394879432,1.17311729" id="path-120"></path>
        <linearGradient x1="0.000943017081%" y1="49.999753%" x2="99.9999895%" y2="49.999753%" id="linearGradient-122">
            <stop stop-color="#FFCA3D" offset="0%"></stop>
            <stop stop-color="#E6A800" offset="100%"></stop>
        </linearGradient>
        <path d="M0.300901606,1.82877057 C0.0940625316,2.5066018 0.0189602485,2.53843272 0,2.53072629 L0,2.53072629 C0.0586044045,2.57797009 1.61063618,3.8093244 2.90264168,2.92375448 L2.90264168,2.92375448 C3.88069502,2.25195437 4.875,0.724404904 4.875,0.724404904 L4.875,0.724404904 C4.875,0.724404904 3.71103773,0 2.52491413,0 L2.52491413,0 C1.63624482,0 0.734771189,0.406430688 0.300901606,1.82877057" id="path-123"></path>
        <linearGradient x1="-0.00101474896%" y1="50.0018948%" x2="99.9979756%" y2="50.0018948%" id="linearGradient-125">
            <stop stop-color="#FFCA3D" offset="0%"></stop>
            <stop stop-color="#E6A800" offset="100%"></stop>
        </linearGradient>
        <path d="M3.23959245,0 C3.20834199,0.0153538753 1.25403937,0.96960774 0.604443424,1.91586918 L0.604443424,1.91586918 C-0.5247092,3.55894416 0.274015774,4.86192029 0.276083819,4.86486486 L0.276083819,4.86486486 C0.28274752,4.86107898 0.350073877,4.82974025 0.856515143,4.60889683 L0.856515143,4.60889683 C3.52774006,3.44515722 3.24257962,0.028814807 3.24005201,0 L3.24005201,0 L3.23959245,0 Z" id="path-126"></path>
        <linearGradient x1="0.0027073427%" y1="50.000981%" x2="100.001662%" y2="50.000981%" id="linearGradient-128">
            <stop stop-color="#FFCA3D" offset="0%"></stop>
            <stop stop-color="#E6A800" offset="100%"></stop>
        </linearGradient>
    </defs>
    <g id="Page-1" stroke="none" stroke-width="1" fill="none" fill-rule="evenodd">
        <g id="Puffy-VS-Purple-Desktop" transform="translate(-376.000000, -482.000000)">
            <g id="#1-Best-Mattress" transform="translate(375.000000, 449.000000)">
                <g filter="url(#filter-1)" id="Group-64-Copy-3">
                    <g transform="translate(72.000000, 42.000000)">
                        <g id="Group-3" transform="translate(21.937500, 47.027027)">
                            <mask id="mask-3" fill="white">
                                <use xlink:href="#path-2"></use>
                            </mask>
                            <g id="Clip-2"></g>
                            <path d="M3.90927755,7.86958634 C4.85054369,7.94746148 4.92880938,8.07033633 4.92996374,8.10810811 L4.92996374,8.10810811 C4.97175162,7.89057066 5.57478993,4.56945227 3.8081555,2.6293353 L3.8081555,2.6293353 C2.45131931,1.13851594 0.0433217874,0 0.0433217874,0 L0.0433217874,0 C0.0433217874,0 -0.693391549,7.48650592 3.90927755,7.86958634" id="Fill-1" fill="url(#linearGradient-4)" mask="url(#mask-3)"></path>
                        </g>
                        <g id="Group-6" transform="translate(15.187500, 55.135135)">
                            <mask id="mask-6" fill="white">
                                <use xlink:href="#path-5"></use>
                            </mask>
                            <g id="Clip-5"></g>
                            <path d="M0,3.19882177 C0,3.19882177 3.59724446,4.85653584 6.02930199,4.86486486 L6.02930199,4.86486486 L6.06000359,4.86486486 C6.20761685,4.86462689 6.35105471,4.85796367 6.48884346,4.84463723 L6.48884346,4.84463723 C10.6345412,4.4388947 11.8068509,1.40236994 11.8125,1.38761566 L11.8125,1.38761566 C11.7975176,1.38166636 11.6607113,1.31669996 10.6583656,0.80101429 L10.6583656,0.80101429 C9.54328373,0.226787468 8.42550006,0 7.35634773,0 L7.35634773,0 C3.33910545,-0.00047594432 0,3.19882177 0,3.19882177" id="Fill-4" fill="url(#linearGradient-7)" mask="url(#mask-6)"></path>
                        </g>
                        <g id="Group-9" transform="translate(15.187500, 43.783784)">
                            <mask id="mask-9" fill="white">
                                <use xlink:href="#path-8"></use>
                            </mask>
                            <g id="Clip-8"></g>
                            <path d="M2.8382995,7.6224336 C3.89617693,7.95240721 3.94587188,8.07614731 3.93337375,8.10810811 L3.93337375,8.10810811 C4.05954535,7.93793847 5.92652791,5.35364907 4.57196868,3.24553233 L4.57196868,3.24553233 C3.53105299,1.62416985 1.15105196,0 1.15105196,0 L1.15105196,0 C1.15105196,0 -2.34038993,6.00409444 2.8382995,7.6224336" id="Fill-7" fill="url(#linearGradient-10)" mask="url(#mask-9)"></path>
                        </g>
                        <g id="Group-12" transform="translate(6.750000, 50.270270)">
                            <mask id="mask-12" fill="white">
                                <use xlink:href="#path-11"></use>
                            </mask>
                            <g id="Clip-11"></g>
                            <path d="M0,0.851409046 C0,0.851409046 3.17232957,3.95030538 5.53171504,4.57711107 L5.53171504,4.57711107 C9.5932682,5.65675783 11.8022062,3.3513631 11.8125,3.34021773 L11.8125,3.34021773 C11.8006226,3.32979924 11.6955733,3.22416055 10.9356817,2.41466777 L10.9356817,2.41466777 C9.16488889,0.527951142 6.83189771,0 4.77604655,0 L4.77604655,0 C2.16459562,0 0,0.851409046 0,0.851409046" id="Fill-10" fill="url(#linearGradient-13)" mask="url(#mask-12)"></path>
                        </g>
                        <g id="Group-15" transform="translate(10.125000, 38.918919)">
                            <mask id="mask-15" fill="white">
                                <use xlink:href="#path-14"></use>
                            </mask>
                            <g id="Clip-14"></g>
                            <path d="M1.59117173,7.41436157 C2.46943523,7.95714188 2.46445571,8.08192899 2.43986931,8.10810811 L2.43986931,8.10810811 C2.62753511,7.98070308 5.45714948,6.01465158 5.01583919,3.76433852 L5.01583919,3.76433852 C4.67660914,2.03389904 3.05919758,0 3.05919758,0 L3.05919758,0 C3.05919758,0 -2.70491239,4.75761776 1.59117173,7.41436157" id="Fill-13" fill="url(#linearGradient-16)" mask="url(#mask-15)"></path>
                        </g>
                        <g id="Group-18" transform="translate(1.687500, 42.162162)">
                            <mask id="mask-18" fill="white">
                                <use xlink:href="#path-17"></use>
                            </mask>
                            <g id="Clip-17"></g>
                            <path d="M0,0.0134765709 C0,0.0134765709 1.64122941,2.97100632 3.2926721,3.9540259 L3.2926721,3.9540259 C6.13684806,5.64437294 8.42595456,4.46517298 8.4375,4.45939731 L8.4375,4.45939731 C8.43061714,4.44938614 8.37688641,4.34908195 8.00099337,3.59189119 L8.00099337,3.59189119 C6.36464857,0.291286454 1.99758401,0 0.50688944,0 L0.50688944,0 C0.187391453,0 0,0.0134765709 0,0.0134765709" id="Fill-16" fill="url(#linearGradient-19)" mask="url(#mask-18)"></path>
                        </g>
                        <g id="Group-21" transform="translate(6.750000, 34.054054)">
                            <mask id="mask-21" fill="white">
                                <use xlink:href="#path-20"></use>
                            </mask>
                            <g id="Clip-20"></g>
                            <path d="M0.867198312,7.26202693 C1.51823768,7.95859979 1.47961422,8.0852288 1.44947622,8.10810811 L1.44947622,8.10810811 C1.65897923,8.00979506 4.80883937,6.49160601 5.03911712,4.13934176 L5.03911712,4.13934176 C5.21818952,2.33074412 4.30995302,0 4.30995302,0 L4.30995302,0 C4.30995302,0 -2.32157789,3.8516515 0.867198312,7.26202693" id="Fill-19" fill="url(#linearGradient-22)" mask="url(#mask-21)"></path>
                        </g>
                        <g id="Group-24" transform="translate(0.000000, 34.054054)">
                            <mask id="mask-24" fill="white">
                                <use xlink:href="#path-23"></use>
                            </mask>
                            <g id="Clip-23"></g>
                            <path d="M2.12784956,4.764964 C4.35968073,7.11269574 6.73993726,6.37855826 6.75,6.37529723 L6.75,6.37529723 C6.74643611,6.36367984 6.72044071,6.24872883 6.54832598,5.38618862 L6.54832598,5.38618862 C5.6376483,0.828095673 0,0 0,0 L0,0 C0,0 0.83206255,3.40144935 2.12784956,4.764964" id="Fill-22" fill="url(#linearGradient-25)" mask="url(#mask-24)"></path>
                        </g>
                        <g id="Group-27" transform="translate(5.062500, 27.567568)">
                            <mask id="mask-27" fill="white">
                                <use xlink:href="#path-26"></use>
                            </mask>
                            <g id="Clip-26"></g>
                            <path d="M0.138452838,5.57194577 C0.368299311,6.37308061 0.297444383,6.47448711 0.268559273,6.48648649 L0.268559273,6.48648649 C0.449523252,6.45519399 3.21558113,5.94745567 4.17841813,3.9019149 L4.17841813,3.9019149 C4.91980262,2.33117299 5.0625,0 5.0625,0 L5.0625,0 C5.0625,0 -0.981647537,1.65991375 0.138452838,5.57194577" id="Fill-25" fill="url(#linearGradient-28)" mask="url(#mask-27)"></path>
                        </g>
                        <g id="Group-30" transform="translate(0.000000, 24.324324)">
                            <mask id="mask-30" fill="white">
                                <use xlink:href="#path-29"></use>
                            </mask>
                            <g id="Clip-29"></g>
                            <path d="M0.610420743,5.13347382 C2.11884777,8.04034381 4.86392467,8.10788951 4.87438746,8.10810811 L4.87438746,8.10810811 C4.87515302,8.09564822 4.8884229,7.97957453 5.01065882,7.11918648 L5.01065882,7.11918648 C5.65628907,2.56542534 0.0581899714,0 0.0581899714,0 L0.0581899714,0 C0.0581899714,0 -0.264625152,3.44636128 0.610420743,5.13347382" id="Fill-28" fill="url(#linearGradient-31)" mask="url(#mask-30)"></path>
                        </g>
                        <g id="Group-33" transform="translate(5.062500, 22.702703)">
                            <mask id="mask-33" fill="white">
                                <use xlink:href="#path-32"></use>
                            </mask>
                            <g id="Clip-32"></g>
                            <path d="M0.0337545614,4.05167449 C0.102404041,4.78043145 0.0266843492,4.85875162 0,4.86477625 L0,4.86477625 C0.160106095,4.86633819 2.57583795,4.86477625 3.70798419,3.24459735 L3.70798419,3.24459735 C4.57944486,2.00017679 5.0625,0 5.0625,0 L5.0625,0 C5.0625,0 -0.303791053,0.4799621 0.0337545614,4.05167449" id="Fill-31" fill="url(#linearGradient-34)" mask="url(#mask-33)"></path>
                        </g>
                        <g id="Group-36" transform="translate(1.687500, 16.216216)">
                            <mask id="mask-36" fill="white">
                                <use xlink:href="#path-35"></use>
                            </mask>
                            <g id="Clip-35"></g>
                            <path d="M0.120868815,4.69316933 C1.02430134,7.56007942 4.16366463,8.10573662 4.17822568,8.10810811 L4.17822568,8.10810811 C4.18210863,8.09732863 4.22999832,7.99600153 4.6182931,7.24618101 L4.6182931,7.24618101 C6.66848954,3.28386032 0.956673328,0 0.956673328,0 L0.956673328,0 C0.956673328,0 -0.405270611,3.02881786 0.120868815,4.69316933" id="Fill-34" fill="url(#linearGradient-37)" mask="url(#mask-36)"></path>
                        </g>
                        <g id="Group-39" transform="translate(8.437500, 16.216216)">
                            <mask id="mask-39" fill="white">
                                <use xlink:href="#path-38"></use>
                            </mask>
                            <g id="Clip-38"></g>
                            <path d="M0.216035134,2.29681964 C0.0995476515,2.95088388 0.0221681745,2.99829318 0,2.9962219 L0,2.9962219 C0.0727785351,3.02360883 1.97756847,3.73060578 3.25286591,2.62085991 L3.25286591,2.62085991 C4.21948197,1.78107088 5.0625,0.175368488 5.0625,0.175368488 L5.0625,0.175368488 C5.0625,0.175368488 4.36901258,0 3.50361724,0 L3.50361724,0 C2.22058186,-0.000230039158 0.559432705,0.384797925 0.216035134,2.29681964" id="Fill-37" fill="url(#linearGradient-40)" mask="url(#mask-39)"></path>
                        </g>
                        <g id="Group-42" transform="translate(5.062500, 9.729730)">
                            <mask id="mask-42" fill="white">
                                <use xlink:href="#path-41"></use>
                            </mask>
                            <g id="Clip-41"></g>
                            <path d="M0.0303749873,4.12521908 C-0.264182914,6.94617728 1.68046868,8.10528503 1.68564545,8.10810811 L1.68564545,8.10810811 C1.69133989,8.09893311 1.75579061,8.01518187 2.25224232,7.41104371 L2.25224232,7.41104371 C4.87970916,4.21038186 2.07183208,0 2.07183208,0 L2.07183208,0 C2.07183208,0 0.202502408,2.49042311 0.0303749873,4.12521908" id="Fill-40" fill="url(#linearGradient-43)" mask="url(#mask-42)"></path>
                        </g>
                        <g id="Group-45" transform="translate(10.125000, 12.972973)">
                            <mask id="mask-45" fill="white">
                                <use xlink:href="#path-44"></use>
                            </mask>
                            <g id="Clip-44"></g>
                            <path d="M0.290905162,1.91896003 C0.0979408496,2.59694466 0.0204217091,2.63421119 0,2.62755645 L0,2.62755645 C0.0650160533,2.67254248 1.74084651,3.81209968 3.06784082,2.87378173 L3.06784082,2.87378173 C4.07288065,2.16225723 5.0625,0.604250142 5.0625,0.604250142 L5.0625,0.604250142 C5.0625,0.604250142 3.91534175,0 2.72233885,0 L2.72233885,0 C1.73647042,0 0.719135898,0.41232752 0.290905162,1.91896003" id="Fill-43" fill="url(#linearGradient-46)" mask="url(#mask-45)"></path>
                        </g>
                        <g id="Group-48" transform="translate(8.437500, 6.486486)">
                            <mask id="mask-48" fill="white">
                                <use xlink:href="#path-47"></use>
                            </mask>
                            <g id="Clip-47"></g>
                            <path d="M0.170782696,3.08517023 C-0.525068315,5.3228087 1.13005557,6.48363832 1.13422859,6.48648649 L1.13422859,6.48648649 C1.14127056,6.4799764 1.21377677,6.42036843 1.77113569,5.99110966 L1.77113569,5.99110966 C4.71702669,3.71949669 2.70328394,0 2.70328394,0 L2.70328394,0 C2.70328394,0 0.57608722,1.78742536 0.170782696,3.08517023" id="Fill-46" fill="url(#linearGradient-49)" mask="url(#mask-48)"></path>
                        </g>
                        <g id="Group-51" transform="translate(13.500000, 9.729730)">
                            <mask id="mask-51" fill="white">
                                <use xlink:href="#path-50"></use>
                            </mask>
                            <g id="Clip-50"></g>
                            <path d="M0.387331325,1.33964674 C0.0968328311,1.96518049 0.0181285209,1.97857392 0,1.96548489 L0,1.96548489 C0.0532801651,2.03032123 1.43281639,3.67984309 2.82672278,3.13193031 L2.82672278,3.13193031 C3.88326182,2.71612539 5.0625,1.441315 5.0625,1.441315 L5.0625,1.441315 C5.0625,1.441315 3.58922606,0.000304395987 2.19067699,0 L2.19067699,0 C1.51351042,0 0.854251277,0.33757515 0.387331325,1.33964674" id="Fill-49" fill="url(#linearGradient-52)" mask="url(#mask-51)"></path>
                        </g>
                        <g id="Group-54" transform="translate(13.500000, 1.621622)">
                            <mask id="mask-54" fill="white">
                                <use xlink:href="#path-53"></use>
                            </mask>
                            <g id="Clip-53"></g>
                            <path d="M0.382281466,2.85927536 C-0.616792177,5.07762604 0.657798529,6.48273015 0.661171149,6.48648649 L0.661171149,6.48648649 C0.668435252,6.48038244 0.742892311,6.42779375 1.31001124,6.05591657 L1.31001124,6.05591657 C4.31423684,4.08736218 3.15509349,0 3.15509349,0 L3.15509349,0 C3.15509349,0 0.961074844,1.57320011 0.382281466,2.85927536" id="Fill-52" fill="url(#linearGradient-55)" mask="url(#mask-54)"></path>
                        </g>
                        <g id="Group-57" transform="translate(16.875000, 4.864865)">
                            <mask id="mask-57" fill="white">
                                <use xlink:href="#path-56"></use>
                            </mask>
                            <g id="Clip-56"></g>
                            <path d="M0.410067102,1.17311729 C0.0959164633,1.76966274 0.017439357,1.77498904 0,1.76100751 L0,1.76100751 C0.0496537247,1.82825203 1.36244976,3.59724899 2.77213112,3.17946743 L2.77213112,3.17946743 C3.83956509,2.86455002 5.0625,1.70674584 5.0625,1.70674584 L5.0625,1.70674584 C5.0625,1.70674584 3.52468781,0.000332893669 2.07625233,0 L2.07625233,0 C1.46393713,0 0.867608009,0.304930601 0.410067102,1.17311729" id="Fill-55" fill="url(#linearGradient-58)" mask="url(#mask-57)"></path>
                        </g>
                        <g id="Group-60" transform="translate(21.937500, 1.621622)">
                            <mask id="mask-60" fill="white">
                                <use xlink:href="#path-59"></use>
                            </mask>
                            <g id="Clip-59"></g>
                            <path d="M0.312474745,1.82877057 C0.0976803212,2.5066018 0.0196894888,2.53843272 0,2.53072629 L0,2.53072629 C0.06085842,2.57797009 1.67258372,3.8093244 3.01428175,2.92375448 L3.01428175,2.92375448 C4.02995252,2.25195437 5.0625,0.724404904 5.0625,0.724404904 L5.0625,0.724404904 C5.0625,0.724404904 3.85376995,0 2.62202621,0 L2.62202621,0 C1.69917732,0 0.763031619,0.406430688 0.312474745,1.82877057" id="Fill-58" fill="url(#linearGradient-61)" mask="url(#mask-60)"></path>
                        </g>
                        <g id="Group-63" transform="translate(16.875000, 0.000000)">
                            <mask id="mask-63" fill="white">
                                <use xlink:href="#path-62"></use>
                            </mask>
                            <g id="Clip-62"></g>
                            <path d="M3.36419216,0 C3.33173976,0.0153538753 1.30227165,0.96960774 0.627691248,1.91586918 L0.627691248,1.91586918 C-0.544890323,3.55894416 0.284554842,4.86192029 0.286702427,4.86486486 L0.286702427,4.86486486 C0.293622424,4.86107898 0.363538257,4.82974025 0.889458034,4.60889683 L0.889458034,4.60889683 C3.66342237,3.44515722 3.36729422,0.028814807 3.3646694,0 L3.3646694,0 L3.36419216,0 Z" id="Fill-61" fill="url(#linearGradient-64)" mask="url(#mask-63)"></path>
                        </g>
                    </g>
                </g>
                <g filter="url(#filter-65)" id="Group-64-Copy-2">
                    <g transform="translate(437.000000, 72.000000) scale(-1, 1) translate(-437.000000, -72.000000) translate(424.000000, 42.000000)">
                        <g id="Group-3" transform="translate(21.125000, 47.027027)">
                            <mask id="mask-67" fill="white">
                                <use xlink:href="#path-66"></use>
                            </mask>
                            <g id="Clip-2"></g>
                            <path d="M3.76448949,7.86958634 C4.67089393,7.94746148 4.74626089,8.07033633 4.7473725,8.10810811 L4.7473725,8.10810811 C4.78761267,7.89057066 5.36831623,4.56945227 3.66711271,2.6293353 L3.66711271,2.6293353 C2.36052971,1.13851594 0.0417172767,0 0.0417172767,0 L0.0417172767,0 C0.0417172767,0 -0.667710381,7.48650592 3.76448949,7.86958634" id="Fill-1" fill="url(#linearGradient-68)" mask="url(#mask-67)"></path>
                        </g>
                        <g id="Group-6" transform="translate(14.625000, 55.135135)">
                            <mask id="mask-70" fill="white">
                                <use xlink:href="#path-69"></use>
                            </mask>
                            <g id="Clip-5"></g>
                            <path d="M0,3.19882177 C0,3.19882177 3.46401318,4.85653584 5.80599451,4.86486486 L5.80599451,4.86486486 L5.83555901,4.86486486 C5.97770512,4.86462689 6.11583046,4.85796367 6.24851593,4.84463723 L6.24851593,4.84463723 C10.2406693,4.4388947 11.3695601,1.40236994 11.375,1.38761566 L11.375,1.38761566 C11.3605725,1.38166636 11.2288331,1.31669996 10.2636114,0.80101429 L10.2636114,0.80101429 C9.18982877,0.226787468 8.1134445,0 7.0838904,0 L7.0838904,0 C3.21543488,-0.00047594432 0,3.19882177 0,3.19882177" id="Fill-4" fill="url(#linearGradient-71)" mask="url(#mask-70)"></path>
                        </g>
                        <g id="Group-9" transform="translate(14.625000, 43.783784)">
                            <mask id="mask-73" fill="white">
                                <use xlink:href="#path-72"></use>
                            </mask>
                            <g id="Clip-8"></g>
                            <path d="M2.7331773,7.6224336 C3.75187408,7.95240721 3.79972848,8.07614731 3.78769324,8.10810811 L3.78769324,8.10810811 C3.90919182,7.93793847 5.70702687,5.35364907 4.4026365,3.24553233 L4.4026365,3.24553233 C3.40027325,1.62416985 1.1084204,0 1.1084204,0 L1.1084204,0 C1.1084204,0 -2.25370882,6.00409444 2.7331773,7.6224336" id="Fill-7" fill="url(#linearGradient-74)" mask="url(#mask-73)"></path>
                        </g>
                        <g id="Group-12" transform="translate(6.500000, 50.270270)">
                            <mask id="mask-76" fill="white">
                                <use xlink:href="#path-75"></use>
                            </mask>
                            <g id="Clip-11"></g>
                            <path d="M0,0.851409046 C0,0.851409046 3.05483588,3.95030538 5.32683671,4.57711107 L5.32683671,4.57711107 C9.23796197,5.65675783 11.3650875,3.3513631 11.375,3.34021773 L11.375,3.34021773 C11.3635625,3.32979924 11.2624039,3.22416055 10.5306565,2.41466777 L10.5306565,2.41466777 C8.82544856,0.527951142 6.57886446,0 4.59915594,0 L4.59915594,0 C2.08442541,0 0,0.851409046 0,0.851409046" id="Fill-10" fill="url(#linearGradient-77)" mask="url(#mask-76)"></path>
                        </g>
                        <g id="Group-15" transform="translate(9.750000, 38.918919)">
                            <mask id="mask-79" fill="white">
                                <use xlink:href="#path-78"></use>
                            </mask>
                            <g id="Clip-14"></g>
                            <path d="M1.53223944,7.41436157 C2.37797467,7.95714188 2.37317957,8.08192899 2.34950378,8.10810811 L2.34950378,8.10810811 C2.53021899,7.98070308 5.25503284,6.01465158 4.83006737,3.76433852 L4.83006737,3.76433852 C4.50340139,2.03389904 2.94589396,0 2.94589396,0 L2.94589396,0 C2.94589396,0 -2.60473045,4.75761776 1.53223944,7.41436157" id="Fill-13" fill="url(#linearGradient-80)" mask="url(#mask-79)"></path>
                        </g>
                        <g id="Group-18" transform="translate(1.625000, 42.162162)">
                            <mask id="mask-82" fill="white">
                                <use xlink:href="#path-81"></use>
                            </mask>
                            <g id="Clip-17"></g>
                            <path d="M0,0.0134765709 C0,0.0134765709 1.58044313,2.97100632 3.17072128,3.9540259 L3.17072128,3.9540259 C5.90955739,5.64437294 8.11388216,4.46517298 8.125,4.45939731 L8.125,4.45939731 C8.11837206,4.44938614 8.06663136,4.34908195 7.70466028,3.59189119 L7.70466028,3.59189119 C6.12892085,0.291286454 1.92359942,0 0.488115757,0 L0.488115757,0 C0.180451029,0 0,0.0134765709 0,0.0134765709" id="Fill-16" fill="url(#linearGradient-83)" mask="url(#mask-82)"></path>
                        </g>
                        <g id="Group-21" transform="translate(6.500000, 34.054054)">
                            <mask id="mask-85" fill="white">
                                <use xlink:href="#path-84"></use>
                            </mask>
                            <g id="Clip-20"></g>
                            <path d="M0.835079856,7.26202693 C1.46200666,7.95859979 1.4248137,8.0852288 1.39579192,8.10810811 L1.39579192,8.10810811 C1.59753555,8.00979506 4.63073421,6.49160601 4.85248315,4.13934176 L4.85248315,4.13934176 C5.02492324,2.33074412 4.15032513,0 4.15032513,0 L4.15032513,0 C4.15032513,0 -2.23559353,3.8516515 0.835079856,7.26202693" id="Fill-19" fill="url(#linearGradient-86)" mask="url(#mask-85)"></path>
                        </g>
                        <g id="Group-24" transform="translate(0.000000, 34.054054)">
                            <mask id="mask-88" fill="white">
                                <use xlink:href="#path-87"></use>
                            </mask>
                            <g id="Clip-23"></g>
                            <path d="M2.04904031,4.764964 C4.19821107,7.11269574 6.49030996,6.37855826 6.5,6.37529723 L6.5,6.37529723 C6.49656811,6.36367984 6.4715355,6.24872883 6.30579539,5.38618862 L6.30579539,5.38618862 C5.42884651,0.828095673 0,0 0,0 L0,0 C0,0 0.801245419,3.40144935 2.04904031,4.764964" id="Fill-22" fill="url(#linearGradient-89)" mask="url(#mask-88)"></path>
                        </g>
                        <g id="Group-27" transform="translate(4.875000, 27.567568)">
                            <mask id="mask-91" fill="white">
                                <use xlink:href="#path-90"></use>
                            </mask>
                            <g id="Clip-26"></g>
                            <path d="M0.133324955,5.57194577 C0.354658596,6.37308061 0.286427924,6.47448711 0.258612633,6.48648649 L0.258612633,6.48648649 C0.432874243,6.45519399 3.09648553,5.94745567 4.0236619,3.9019149 L4.0236619,3.9019149 C4.73758771,2.33117299 4.875,0 4.875,0 L4.875,0 C4.875,0 -0.945290221,1.65991375 0.133324955,5.57194577" id="Fill-25" fill="url(#linearGradient-92)" mask="url(#mask-91)"></path>
                        </g>
                        <g id="Group-30" transform="translate(0.000000, 24.324324)">
                            <mask id="mask-94" fill="white">
                                <use xlink:href="#path-93"></use>
                            </mask>
                            <g id="Clip-29"></g>
                            <path d="M0.587812567,5.13347382 C2.04037193,8.04034381 4.68377931,8.10788951 4.69385459,8.10810811 L4.69385459,8.10810811 C4.6945918,8.09564822 4.7073702,7.97957453 4.82507886,7.11918648 L4.82507886,7.11918648 C5.44679688,2.56542534 0.0560347873,0 0.0560347873,0 L0.0560347873,0 C0.0560347873,0 -0.25482422,3.44636128 0.587812567,5.13347382" id="Fill-28" fill="url(#linearGradient-95)" mask="url(#mask-94)"></path>
                        </g>
                        <g id="Group-33" transform="translate(4.875000, 22.702703)">
                            <mask id="mask-97" fill="white">
                                <use xlink:href="#path-96"></use>
                            </mask>
                            <g id="Clip-32"></g>
                            <path d="M0.0325043925,4.05167449 C0.0986112988,4.78043145 0.02569604,4.85875162 0,4.86477625 L0,4.86477625 C0.15417624,4.86633819 2.48043655,4.86477625 3.57065144,3.24459735 L3.57065144,3.24459735 C4.40983579,2.00017679 4.875,0 4.875,0 L4.875,0 C4.875,0 -0.292539532,0.4799621 0.0325043925,4.05167449" id="Fill-31" fill="url(#linearGradient-98)" mask="url(#mask-97)"></path>
                        </g>
                        <g id="Group-36" transform="translate(1.625000, 16.216216)">
                            <mask id="mask-100" fill="white">
                                <use xlink:href="#path-99"></use>
                            </mask>
                            <g id="Clip-35"></g>
                            <path d="M0.116392192,4.69316933 C0.986364249,7.56007942 4.00945483,8.10573662 4.02347658,8.10810811 L4.02347658,8.10810811 C4.02721572,8.09732863 4.07333172,7.99600153 4.44724521,7.24618101 L4.44724521,7.24618101 C6.42150844,3.28386032 0.921240983,0 0.921240983,0 L0.921240983,0 C0.921240983,0 -0.390260588,3.02881786 0.116392192,4.69316933" id="Fill-34" fill="url(#linearGradient-101)" mask="url(#mask-100)"></path>
                        </g>
                        <g id="Group-39" transform="translate(8.125000, 16.216216)">
                            <mask id="mask-103" fill="white">
                                <use xlink:href="#path-102"></use>
                            </mask>
                            <g id="Clip-38"></g>
                            <path d="M0.208033833,2.29681964 C0.0958607014,2.95088388 0.021347131,2.99829318 0,2.9962219 L0,2.9962219 C0.0700830338,3.02360883 1.9043252,3.73060578 3.13238939,2.62085991 L3.13238939,2.62085991 C4.06320486,1.78107088 4.875,0.175368488 4.875,0.175368488 L4.875,0.175368488 C4.875,0.175368488 4.2071973,0 3.37385364,0 L3.37385364,0 C2.13833808,-0.000230039158 0.538712976,0.384797925 0.208033833,2.29681964" id="Fill-37" fill="url(#linearGradient-104)" mask="url(#mask-103)"></path>
                        </g>
                        <g id="Group-42" transform="translate(4.875000, 9.729730)">
                            <mask id="mask-106" fill="white">
                                <use xlink:href="#path-105"></use>
                            </mask>
                            <g id="Clip-41"></g>
                            <path d="M0.0292499878,4.12521908 C-0.254398362,6.94617728 1.6182291,8.10528503 1.62321413,8.10810811 L1.62321413,8.10810811 C1.62869767,8.09893311 1.69076132,8.01518187 2.16882594,7.41104371 L2.16882594,7.41104371 C4.69897919,4.21038186 1.99509756,0 1.99509756,0 L1.99509756,0 C1.99509756,0 0.195002319,2.49042311 0.0292499878,4.12521908" id="Fill-40" fill="url(#linearGradient-107)" mask="url(#mask-106)"></path>
                        </g>
                        <g id="Group-45" transform="translate(9.750000, 12.972973)">
                            <mask id="mask-109" fill="white">
                                <use xlink:href="#path-108"></use>
                            </mask>
                            <g id="Clip-44"></g>
                            <path d="M0.280130897,1.91896003 C0.0943134107,2.59694466 0.0196653495,2.63421119 0,2.62755645 L0,2.62755645 C0.0626080514,2.67254248 1.67637071,3.81209968 2.95421709,2.87378173 L2.95421709,2.87378173 C3.92203322,2.16225723 4.875,0.604250142 4.875,0.604250142 L4.875,0.604250142 C4.875,0.604250142 3.77032909,0 2.62151148,0 L2.62151148,0 C1.67215671,0 0.692501235,0.41232752 0.280130897,1.91896003" id="Fill-43" fill="url(#linearGradient-110)" mask="url(#mask-109)"></path>
                        </g>
                        <g id="Group-48" transform="translate(8.125000, 6.486486)">
                            <mask id="mask-112" fill="white">
                                <use xlink:href="#path-111"></use>
                            </mask>
                            <g id="Clip-47"></g>
                            <path d="M0.16445741,3.08517023 C-0.50562134,5.3228087 1.08820166,6.48363832 1.09222012,6.48648649 L1.09222012,6.48648649 C1.09900128,6.4799764 1.16882208,6.42036843 1.70553808,5.99110966 L1.70553808,5.99110966 C4.54232199,3.71949669 2.60316231,0 2.60316231,0 L2.60316231,0 C2.60316231,0 0.554750656,1.78742536 0.16445741,3.08517023" id="Fill-46" fill="url(#linearGradient-113)" mask="url(#mask-112)"></path>
                        </g>
                        <g id="Group-51" transform="translate(13.000000, 9.729730)">
                            <mask id="mask-115" fill="white">
                                <use xlink:href="#path-114"></use>
                            </mask>
                            <g id="Clip-50"></g>
                            <path d="M0.37298572,1.33964674 C0.09324643,1.96518049 0.0174570942,1.97857392 0,1.96548489 L0,1.96548489 C0.0513068256,2.03032123 1.37974912,3.67984309 2.72202935,3.13193031 L2.72202935,3.13193031 C3.73943731,2.71612539 4.875,1.441315 4.875,1.441315 L4.875,1.441315 C4.875,1.441315 3.45629176,0.000304395987 2.10954081,0 L2.10954081,0 C1.45745447,0 0.822612341,0.33757515 0.37298572,1.33964674" id="Fill-49" fill="url(#linearGradient-116)" mask="url(#mask-115)"></path>
                        </g>
                        <g id="Group-54" transform="translate(13.000000, 1.621622)">
                            <mask id="mask-118" fill="white">
                                <use xlink:href="#path-117"></use>
                            </mask>
                            <g id="Clip-53"></g>
                            <path d="M0.368122893,2.85927536 C-0.593948022,5.07762604 0.633435621,6.48273015 0.636683328,6.48648649 L0.636683328,6.48648649 C0.643678391,6.48038244 0.715377781,6.42779375 1.2614923,6.05591657 L1.2614923,6.05591657 C4.15445029,4.08736218 3.03823818,0 3.03823818,0 L3.03823818,0 C3.03823818,0 0.92547948,1.57320011 0.368122893,2.85927536" id="Fill-52" fill="url(#linearGradient-119)" mask="url(#mask-118)"></path>
                        </g>
                        <g id="Group-57" transform="translate(16.250000, 4.864865)">
                            <mask id="mask-121" fill="white">
                                <use xlink:href="#path-120"></use>
                            </mask>
                            <g id="Clip-56"></g>
                            <path d="M0.394879432,1.17311729 C0.0923640017,1.76966274 0.0167934549,1.77498904 0,1.76100751 L0,1.76100751 C0.0478146979,1.82825203 1.31198866,3.59724899 2.6694596,3.17946743 L2.6694596,3.17946743 C3.69735898,2.86455002 4.875,1.70674584 4.875,1.70674584 L4.875,1.70674584 C4.875,1.70674584 3.39414382,0.000332893669 1.9993541,0 L1.9993541,0 C1.40971724,0 0.835474379,0.304930601 0.394879432,1.17311729" id="Fill-55" fill="url(#linearGradient-122)" mask="url(#mask-121)"></path>
                        </g>
                        <g id="Group-60" transform="translate(21.125000, 1.621622)">
                            <mask id="mask-124" fill="white">
                                <use xlink:href="#path-123"></use>
                            </mask>
                            <g id="Clip-59"></g>
                            <path d="M0.300901606,1.82877057 C0.0940625316,2.5066018 0.0189602485,2.53843272 0,2.53072629 L0,2.53072629 C0.0586044045,2.57797009 1.61063618,3.8093244 2.90264168,2.92375448 L2.90264168,2.92375448 C3.88069502,2.25195437 4.875,0.724404904 4.875,0.724404904 L4.875,0.724404904 C4.875,0.724404904 3.71103773,0 2.52491413,0 L2.52491413,0 C1.63624482,0 0.734771189,0.406430688 0.300901606,1.82877057" id="Fill-58" fill="url(#linearGradient-125)" mask="url(#mask-124)"></path>
                        </g>
                        <g id="Group-63" transform="translate(16.250000, 0.000000)">
                            <mask id="mask-127" fill="white">
                                <use xlink:href="#path-126"></use>
                            </mask>
                            <g id="Clip-62"></g>
                            <path d="M3.23959245,0 C3.20834199,0.0153538753 1.25403937,0.96960774 0.604443424,1.91586918 L0.604443424,1.91586918 C-0.5247092,3.55894416 0.274015774,4.86192029 0.276083819,4.86486486 L0.276083819,4.86486486 C0.28274752,4.86107898 0.350073877,4.82974025 0.856515143,4.60889683 L0.856515143,4.60889683 C3.52774006,3.44515722 3.24257962,0.028814807 3.24005201,0 L3.24005201,0 L3.23959245,0 Z" id="Fill-61" fill="url(#linearGradient-128)" mask="url(#mask-127)"></path>
                        </g>
                    </g>
                </g>
                <text id="Best-Mattress-2021" fill="#A3846E" fill-rule="nonzero" font-family="PTSerif-Bold, PT Serif" font-size="36" font-weight="bold">
                    <tspan x="99" y="81">Best Mattress 2021</tspan>
                </text>
                <text id="#" fill="#A3846E" fill-rule="nonzero" font-family="PTSerif-Bold, PT Serif" font-size="51" font-weight="bold">
                    <tspan x="0" y="66">#</tspan>
                </text>
                <text id="1" fill="#A3846E" fill-rule="nonzero" font-family="PTSerif-Bold, PT Serif" font-size="103" font-weight="bold">
                    <tspan x="19" y="107">1</tspan>
                </text>
            </g>
        </g>
    </g>
</svg>