<svg xmlns="http://www.w3.org/2000/svg" xmlns:xlink="http://www.w3.org/1999/xlink" viewBox="0 0 448.1 73.34"><defs><style>.cls-1{fill:#fff;}.cls-1,.cls-4{fill-rule:evenodd;}.cls-2,.cls-4{fill:#a3846e;}.cls-3{mask:url(#mask);}.cls-5{mask:url(#mask-2);}.cls-6{mask:url(#mask-3);}.cls-7{mask:url(#mask-4);}.cls-8{mask:url(#mask-5);}.cls-9{mask:url(#mask-6-2);}.cls-10{mask:url(#mask-7);}.cls-11{mask:url(#mask-8);}.cls-12{mask:url(#mask-9-2);}.cls-13{mask:url(#mask-10);}.cls-14{mask:url(#mask-11);}.cls-15{mask:url(#mask-12-2);}.cls-16{mask:url(#mask-13);}.cls-17{mask:url(#mask-14);}.cls-18{mask:url(#mask-15-2);}.cls-19{mask:url(#mask-16);}.cls-20{mask:url(#mask-17);}.cls-21{mask:url(#mask-18-2);}.cls-22{mask:url(#mask-19);}.cls-23{mask:url(#mask-20);}.cls-24{mask:url(#mask-21-2);}.cls-25{mask:url(#mask-22);}.cls-26{mask:url(#mask-23);}.cls-27{mask:url(#mask-24-2);}.cls-28{mask:url(#mask-25);}.cls-29{mask:url(#mask-26);}.cls-30{mask:url(#mask-27-2);}.cls-31{mask:url(#mask-28);}.cls-32{mask:url(#mask-29);}.cls-33{mask:url(#mask-30-2);}.cls-34{mask:url(#mask-31);}.cls-35{mask:url(#mask-32);}.cls-36{mask:url(#mask-33-2);}.cls-37{mask:url(#mask-34);}.cls-38{mask:url(#mask-35);}.cls-39{mask:url(#mask-36-2);}.cls-40{mask:url(#mask-37);}.cls-41{mask:url(#mask-38);}.cls-42{mask:url(#mask-39-2);}.cls-43{mask:url(#mask-40);}.cls-44{mask:url(#mask-41);}.cls-45{mask:url(#mask-42-2);}</style><mask id="mask" x="92.04" y="55.36" width="5.06" height="8.11" maskUnits="userSpaceOnUse"><g id="mask-6"><path id="path-5" class="cls-1" d="M96,63.23c.94.08,1,.2,1,.24h0c0-.22.64-3.54-1.12-5.48h0a14.33,14.33,0,0,0-3.77-2.63h0s-.74,7.49,3.87,7.87"/></g></mask><mask id="mask-2" x="85.29" y="63.47" width="11.81" height="4.86" maskUnits="userSpaceOnUse"><g id="mask-9"><path id="path-8" class="cls-1" d="M85.29,66.67s3.59,1.66,6,1.67h0l.43,0h0a6.19,6.19,0,0,0,5.32-3.46h0L96,64.27h0a7.22,7.22,0,0,0-3.31-.8h0c-4,0-7.35,3.2-7.35,3.2"/></g></mask><mask id="mask-3" x="85.29" y="52.12" width="5.06" height="8.11" maskUnits="userSpaceOnUse"><g id="mask-12"><path id="path-11" class="cls-1" d="M88.13,59.74c1.05.33,1.1.46,1.09.49h0c.13-.17,2-2.76.64-4.86h0a14.64,14.64,0,0,0-3.42-3.25h0s-3.49,6,1.69,7.62"/></g></mask><mask id="mask-4" x="76.85" y="58.61" width="11.81" height="4.86" maskUnits="userSpaceOnUse"><g id="mask-15"><path id="path-14" class="cls-1" d="M76.85,59.46s3.17,3.1,5.53,3.72h0A6.45,6.45,0,0,0,88.66,62h0L87.79,61h0a8.18,8.18,0,0,0-6.16-2.41h0a14.53,14.53,0,0,0-4.78.85"/></g></mask><mask id="mask-5" x="80.22" y="47.25" width="5.06" height="8.11" maskUnits="userSpaceOnUse"><g id="mask-18"><path id="path-17" class="cls-1" d="M81.82,54.67c.87.54.87.67.84.69h0c.19-.12,3-2.09,2.58-4.34h0a11.15,11.15,0,0,0-2-3.77h0S77.52,52,81.82,54.67"/></g></mask><mask id="mask-6-2" x="71.79" y="50.5" width="8.44" height="4.86" maskUnits="userSpaceOnUse"><g id="mask-21"><path id="path-20" class="cls-1" d="M71.79,50.51s1.64,3,3.29,3.94h0a5.53,5.53,0,0,0,5.14.51h0s-.06-.11-.43-.87h0c-1.64-3.3-6-3.59-7.5-3.59h-.5"/></g></mask><mask id="mask-7" x="76.85" y="42.39" width="5.06" height="8.11" maskUnits="userSpaceOnUse"><g id="mask-24"><path id="path-23" class="cls-1" d="M77.72,49.65c.65.7.61.83.58.85h0c.21-.1,3.36-1.62,3.59-4h0a10.93,10.93,0,0,0-.73-4.14h0s-6.63,3.85-3.44,7.26"/></g></mask><mask id="mask-8" x="70.1" y="42.39" width="6.75" height="6.49" maskUnits="userSpaceOnUse"><g id="mask-27"><path id="path-26" class="cls-1" d="M72.23,47.16a4.75,4.75,0,0,0,4.62,1.61h0s0-.13-.2-1h0c-.91-4.56-6.55-5.39-6.55-5.39h0s.83,3.4,2.13,4.77"/></g></mask><mask id="mask-9-2" x="75.16" y="35.9" width="5.06" height="6.49" maskUnits="userSpaceOnUse"><g id="mask-30"><path id="path-29" class="cls-1" d="M75.3,41.48c.23.8.16.9.13.91h0c.18,0,2.95-.54,3.91-2.58h0a12.91,12.91,0,0,0,.88-3.91h0s-6,1.66-4.92,5.58"/></g></mask><mask id="mask-10" x="70.1" y="32.66" width="5.06" height="8.11" maskUnits="userSpaceOnUse"><g id="mask-33"><path id="path-32" class="cls-1" d="M70.71,37.79a5.28,5.28,0,0,0,4.26,3h0s0-.13.14-1h0c.65-4.55-5-7.12-5-7.12h0s-.32,3.45.55,5.13"/></g></mask><mask id="mask-11" x="75.16" y="31.04" width="5.06" height="4.86" maskUnits="userSpaceOnUse"><g id="mask-36"><path id="path-35" class="cls-1" d="M75.2,35.09c.06.73,0,.81,0,.81h0c.16,0,2.58,0,3.71-1.62h0A11.41,11.41,0,0,0,80.22,31h0s-5.36.48-5,4.05"/></g></mask><mask id="mask-12-2" x="71.79" y="24.55" width="5.06" height="8.11" maskUnits="userSpaceOnUse"><g id="mask-39"><path id="path-38" class="cls-1" d="M71.91,29.25A5.43,5.43,0,0,0,76,32.66h0s0-.11.44-.86h0c2-4-3.67-7.25-3.67-7.25h0s-1.36,3-.83,4.7"/></g></mask><mask id="mask-13" x="78.54" y="24.55" width="5.06" height="3.24" maskUnits="userSpaceOnUse"><g id="mask-42"><path id="path-41" class="cls-1" d="M78.75,26.85c-.11.65-.19.7-.21.7h0a3.48,3.48,0,0,0,3.25-.38h0a10.05,10.05,0,0,0,1.81-2.44h0A6.86,6.86,0,0,0,82,24.55h0c-1.28,0-2.94.39-3.29,2.3"/></g></mask><mask id="mask-14" x="75.16" y="18.07" width="3.38" height="8.11" maskUnits="userSpaceOnUse"><g id="mask-45"><path id="path-44" class="cls-1" d="M75.19,22.19a4.06,4.06,0,0,0,1.66,4h0s.07-.09.56-.69h0c2.63-3.2-.18-7.41-.18-7.41h0s-1.86,2.49-2,4.12"/></g></mask><mask id="mask-15-2" x="80.22" y="21.31" width="5.06" height="3.24" maskUnits="userSpaceOnUse"><g id="mask-48"><path id="path-47" class="cls-1" d="M80.52,23.23c-.2.68-.27.71-.3.71h0c.07,0,1.75,1.18,3.07.24h0a9.7,9.7,0,0,0,2-2.27h0a5.81,5.81,0,0,0-2.34-.6h0a2.34,2.34,0,0,0-2.43,1.92"/></g></mask><mask id="mask-16" x="78.54" y="14.82" width="3.38" height="6.49" maskUnits="userSpaceOnUse"><g id="mask-51"><path id="path-50" class="cls-1" d="M78.71,17.91a3,3,0,0,0,1,3.4h0l.64-.5h0c2.94-2.27.93-6,.93-6h0s-2.13,1.79-2.53,3.09"/></g></mask><mask id="mask-17" x="83.6" y="18.07" width="5.06" height="3.24" maskUnits="userSpaceOnUse"><g id="mask-54"><path id="path-53" class="cls-1" d="M84,19.41c-.29.62-.37.63-.39.62h0c.05.07,1.43,1.72,2.83,1.17h0a8,8,0,0,0,2.23-1.69h0a5.15,5.15,0,0,0-2.87-1.44h0A1.93,1.93,0,0,0,84,19.41"/></g></mask><mask id="mask-18-2" x="83.6" y="9.96" width="3.37" height="6.49" maskUnits="userSpaceOnUse"><g id="mask-57"><path id="path-56" class="cls-1" d="M84,12.82a3.35,3.35,0,0,0,.28,3.62h0l.65-.43h0c3-2,1.85-6.05,1.85-6.05h0A10.39,10.39,0,0,0,84,12.82"/></g></mask><mask id="mask-19" x="86.97" y="13.2" width="5.06" height="3.24" maskUnits="userSpaceOnUse"><g id="mask-60"><path id="path-59" class="cls-1" d="M87.39,14.37c-.32.6-.4.61-.42.59h0c0,.07,1.37,1.84,2.78,1.42h0A7.31,7.31,0,0,0,92,14.91h0s-1.54-1.71-3-1.71h0a1.85,1.85,0,0,0-1.66,1.17"/></g></mask><mask id="mask-20" x="92.04" y="9.96" width="5.06" height="3.24" maskUnits="userSpaceOnUse"><g id="mask-63"><path id="path-62" class="cls-1" d="M92.35,11.79c-.21.67-.29.71-.31.7h0c.06,0,1.67,1.28,3,.39h0a9.57,9.57,0,0,0,2-2.2h0A5.53,5.53,0,0,0,94.66,10h0a2.29,2.29,0,0,0-2.31,1.83"/></g></mask><mask id="mask-21-2" x="86.97" y="8.34" width="3.37" height="4.86" maskUnits="userSpaceOnUse"><g id="mask-66"><path id="path-65" class="cls-1" d="M90.34,8.34a9,9,0,0,0-2.74,1.91h0a2.68,2.68,0,0,0-.34,2.95h0l.6-.26h0c2.78-1.16,2.48-4.58,2.48-4.6Z"/></g></mask><mask id="mask-22" x="422.1" y="55.36" width="4.87" height="8.11" maskUnits="userSpaceOnUse"><g id="mask-70"><path id="path-69" class="cls-1" d="M423.21,63.23c-.91.08-1,.2-1,.24h0c0-.22-.62-3.54,1.08-5.48h0a13.64,13.64,0,0,1,3.62-2.63h0s.71,7.49-3.72,7.87"/></g></mask><mask id="mask-23" x="422.1" y="63.47" width="11.38" height="4.86" maskUnits="userSpaceOnUse"><g id="mask-73"><path id="path-72" class="cls-1" d="M433.47,66.67s-3.46,1.66-5.8,1.67h0l-.41,0h0a6,6,0,0,1-5.13-3.46h0l1.11-.59h0a6.72,6.72,0,0,1,3.18-.8h0c3.87,0,7.08,3.2,7.08,3.2"/></g></mask><mask id="mask-24-2" x="428.6" y="52.12" width="4.88" height="8.11" maskUnits="userSpaceOnUse"><g id="mask-76"><path id="path-75" class="cls-1" d="M430.74,59.74c-1,.33-1.06.46-1.05.49h0c-.12-.17-1.92-2.76-.62-4.86h0a14.25,14.25,0,0,1,3.3-3.25h0s3.36,6-1.63,7.62"/></g></mask><mask id="mask-25" x="430.22" y="58.61" width="11.38" height="4.86" maskUnits="userSpaceOnUse"><g id="mask-79"><path id="path-78" class="cls-1" d="M441.6,59.46s-3.05,3.1-5.33,3.72h0a6.06,6.06,0,0,1-6-1.23h0s.12-.12.85-.93h0A7.69,7.69,0,0,1,437,58.61h0a13.53,13.53,0,0,1,4.6.85"/></g></mask><mask id="mask-26" x="433.47" y="47.25" width="4.87" height="8.11" maskUnits="userSpaceOnUse"><g id="mask-82"><path id="path-81" class="cls-1" d="M436.82,54.67c-.85.54-.84.67-.82.69h0c-.18-.12-2.91-2.09-2.48-4.34h0a11.39,11.39,0,0,1,1.88-3.77h0S441,52,436.82,54.67"/></g></mask><mask id="mask-27-2" x="438.35" y="50.5" width="8.13" height="4.86" maskUnits="userSpaceOnUse"><g id="mask-85"><path id="path-84" class="cls-1" d="M446.47,50.51s-1.58,3-3.17,3.94h0a5.16,5.16,0,0,1-4.95.51h0s.06-.11.42-.87h0c1.58-3.3,5.78-3.59,7.22-3.59h.48"/></g></mask><mask id="mask-28" x="436.72" y="42.39" width="4.88" height="8.11" maskUnits="userSpaceOnUse"><g id="mask-88"><path id="path-87" class="cls-1" d="M440.76,49.65c-.62.7-.58.83-.56.85h0c-.2-.1-3.23-1.62-3.45-4h0a11.39,11.39,0,0,1,.7-4.14h0s6.39,3.85,3.31,7.26"/></g></mask><mask id="mask-29" x="441.6" y="42.39" width="6.5" height="6.49" maskUnits="userSpaceOnUse"><g id="mask-91"><path id="path-90" class="cls-1" d="M446.05,47.16a4.47,4.47,0,0,1-4.45,1.61h0s0-.13.19-1h0c.88-4.56,6.31-5.39,6.31-5.39h0s-.8,3.4-2.05,4.77"/></g></mask><mask id="mask-30-2" x="438.35" y="35.9" width="4.88" height="6.49" maskUnits="userSpaceOnUse"><g id="mask-94"><path id="path-93" class="cls-1" d="M443.09,41.48c-.22.8-.15.9-.12.91h0c-.18,0-2.84-.54-3.77-2.58h0a13.48,13.48,0,0,1-.85-3.91h0s5.82,1.66,4.74,5.58"/></g></mask><mask id="mask-31" x="443.22" y="32.66" width="4.88" height="8.11" maskUnits="userSpaceOnUse"><g id="mask-97"><path id="path-96" class="cls-1" d="M447.51,37.79a5.05,5.05,0,0,1-4.1,3h0s0-.13-.14-1h0c-.62-4.55,4.77-7.12,4.77-7.12h0s.31,3.45-.53,5.13"/></g></mask><mask id="mask-32" x="438.35" y="31.04" width="4.88" height="4.86" maskUnits="userSpaceOnUse"><g id="mask-100"><path id="path-99" class="cls-1" d="M443.19,35.09c-.06.73,0,.81,0,.81h0a4.52,4.52,0,0,1-3.57-1.62h0a11.94,11.94,0,0,1-1.3-3.24h0s5.17.48,4.84,4.05"/></g></mask><mask id="mask-33-2" x="441.6" y="24.55" width="4.87" height="8.11" maskUnits="userSpaceOnUse"><g id="mask-103"><path id="path-102" class="cls-1" d="M446.36,29.25a5.26,5.26,0,0,1-3.91,3.41h0L442,31.8h0c-2-4,3.52-7.25,3.52-7.25h0s1.32,3,.81,4.7"/></g></mask><mask id="mask-34" x="435.1" y="24.55" width="4.88" height="3.24" maskUnits="userSpaceOnUse"><g id="mask-106"><path id="path-105" class="cls-1" d="M439.77,26.85c.11.65.18.7.2.7h0a3.25,3.25,0,0,1-3.13-.38h0a10.13,10.13,0,0,1-1.74-2.44h0a6.43,6.43,0,0,1,1.5-.18h0c1.24,0,2.84.39,3.17,2.3"/></g></mask><mask id="mask-35" x="439.97" y="18.07" width="3.25" height="8.11" maskUnits="userSpaceOnUse"><g id="mask-109"><path id="path-108" class="cls-1" d="M443.2,22.19a4.11,4.11,0,0,1-1.6,4h0s-.07-.09-.54-.69h0c-2.53-3.2.17-7.41.17-7.41h0s1.8,2.49,2,4.12"/></g></mask><mask id="mask-36-2" x="433.47" y="21.31" width="4.88" height="3.24" maskUnits="userSpaceOnUse"><g id="mask-112"><path id="path-111" class="cls-1" d="M438.07,23.23c.19.68.26.71.28.71h0c-.06,0-1.68,1.18-3,.24h0a9.75,9.75,0,0,1-1.93-2.27h0a5.46,5.46,0,0,1,2.26-.6h0a2.28,2.28,0,0,1,2.34,1.92"/></g></mask><mask id="mask-37" x="436.72" y="14.82" width="3.25" height="6.49" maskUnits="userSpaceOnUse"><g id="mask-115"><path id="path-114" class="cls-1" d="M439.81,17.91a3.06,3.06,0,0,1-.93,3.4h0a6.85,6.85,0,0,0-.61-.5h0c-2.84-2.27-.9-6-.9-6h0s2.05,1.79,2.44,3.09"/></g></mask><mask id="mask-38" x="430.22" y="18.07" width="4.88" height="3.24" maskUnits="userSpaceOnUse"><g id="mask-118"><path id="path-117" class="cls-1" d="M434.73,19.41c.28.62.35.63.37.62h0c-.05.07-1.38,1.72-2.72,1.17h0a7.78,7.78,0,0,1-2.16-1.69h0A4.92,4.92,0,0,1,433,18.07h0a1.88,1.88,0,0,1,1.74,1.34"/></g></mask><mask id="mask-39-2" x="431.85" y="9.96" width="3.25" height="6.49" maskUnits="userSpaceOnUse"><g id="mask-121"><path id="path-120" class="cls-1" d="M434.73,12.82a3.43,3.43,0,0,1-.27,3.62h0l-.62-.43h0C431,14,432.06,10,432.06,10h0a10.24,10.24,0,0,1,2.67,2.86"/></g></mask><mask id="mask-40" x="426.97" y="13.2" width="4.88" height="3.24" maskUnits="userSpaceOnUse"><g id="mask-124"><path id="path-123" class="cls-1" d="M431.46,14.37c.3.6.37.61.39.59h0c-.05.07-1.31,1.84-2.67,1.42h0A7,7,0,0,1,427,14.91h0s1.49-1.71,2.88-1.71h0a1.81,1.81,0,0,1,1.61,1.17"/></g></mask><mask id="mask-41" x="422.1" y="9.96" width="4.88" height="3.24" maskUnits="userSpaceOnUse"><g id="mask-127"><path id="path-126" class="cls-1" d="M426.67,11.79c.21.67.29.71.3.7h0c-.05,0-1.61,1.28-2.9.39h0a9.45,9.45,0,0,1-2-2.2h0a5.16,5.16,0,0,1,2.35-.72h0a2.21,2.21,0,0,1,2.22,1.83"/></g></mask><mask id="mask-42-2" x="428.6" y="8.34" width="3.25" height="4.86" maskUnits="userSpaceOnUse"><g id="mask-130"><path id="path-129" class="cls-1" d="M428.61,8.34a8.63,8.63,0,0,1,2.64,1.91h0a2.75,2.75,0,0,1,.32,2.95h0l-.58-.26h0c-2.67-1.16-2.38-4.58-2.38-4.6Z"/></g></mask></defs><g id="Layer_2" data-name="Layer 2"><g id="Layer_1-2" data-name="Layer 1"><g id="Page-1"><g id="Puffy-VS-Purple-Desktop"><g id="Group"><g id="Group-26"><g id="_1" data-name="1"><path id="path-1" class="cls-2" d="M65.1,73.34V68.91q-2.58-1.14-5.15-2c-1.72-.59-3.44-1.08-5.15-1.5V0H51.3A75,75,0,0,1,39.4,5.77,115.35,115.35,0,0,1,27.5,9.68L28,13.49a49.56,49.56,0,0,0,6.38-.2,29,29,0,0,0,6-1.24L40,18.13V65.4c-1.79.42-3.56.91-5.31,1.5s-3.48,1.25-5.2,2v4.43Z"/><path id="path-1-2" data-name="path-1" class="cls-2" d="M65.1,73.34V68.91q-2.58-1.14-5.15-2c-1.72-.59-3.44-1.08-5.15-1.5V0H51.3A75,75,0,0,1,39.4,5.77,115.35,115.35,0,0,1,27.5,9.68L28,13.49a49.56,49.56,0,0,0,6.38-.2,29,29,0,0,0,6-1.24L40,18.13V65.4c-1.79.42-3.56.91-5.31,1.5s-3.48,1.25-5.2,2v4.43Z"/></g><g id="_" data-name="#"><path id="path-2" class="cls-2" d="M5.7,29.44l1.9-8.1h6.2l-1.9,8.1h3.5l1.9-8.1h3.45l1.1-3.2h-3.8l1.55-6.6h3.65l1.1-3.2h-4l2-8.1h-3.5l-2,8.1H10.7L12.6.24H9.1L7.15,8.34H3.45l-1,3.2H6.35L4.8,18.14H1L0,21.34H4.05l-1.9,8.1Zm8.85-11.3H8.35l1.55-6.6h6.2Z"/><path id="path-2-2" data-name="path-2" class="cls-2" d="M5.7,29.44l1.9-8.1h6.2l-1.9,8.1h3.5l1.9-8.1h3.45l1.1-3.2h-3.8l1.55-6.6h3.65l1.1-3.2h-4l2-8.1h-3.5l-2,8.1H10.7L12.6.24H9.1L7.15,8.34H3.45l-1,3.2H6.35L4.8,18.14H1L0,21.34H4.05l-1.9,8.1Zm8.85-11.3H8.35l1.55-6.6h6.2Z"/></g><g id="Group-8"><g id="BestMattress2021"><path id="path-3" class="cls-2" d="M108.73,47.55a18.4,18.4,0,0,0,3.89-.41A10.94,10.94,0,0,0,116,45.82a7,7,0,0,0,2.32-2.3,6.32,6.32,0,0,0,.86-3.35,5.79,5.79,0,0,0-.59-2.68A6,6,0,0,0,117,35.6a6.87,6.87,0,0,0-2.11-1.15,11,11,0,0,0-2.32-.54h0v-.15a7.61,7.61,0,0,0,2.14-.72,6.26,6.26,0,0,0,1.73-1.26A5.39,5.39,0,0,0,117.6,30a6,6,0,0,0-.34-5.15,5.15,5.15,0,0,0-2-1.82,9.54,9.54,0,0,0-2.88-.9,21.43,21.43,0,0,0-3.34-.25c-1.06,0-2,0-2.81.11s-1.68.11-2.59.11h-5.8V23.5a8.67,8.67,0,0,0,1.44.63,12.86,12.86,0,0,0,1.51.42h0V44.92a6.09,6.09,0,0,0-1.49.36,9.79,9.79,0,0,0-1.46.69h0v1.37h4.28l1.43,0,1.74.07,1.8.08Zm-1.62-14.18H106v-9c.31,0,.66-.08,1-.1s.84,0,1.37,0a4.4,4.4,0,0,1,3.06,1.06,4.26,4.26,0,0,1,1.19,3.33,4.62,4.62,0,0,1-.87,2.76,5.14,5.14,0,0,1-2.27,1.78c-.36.05-.74.09-1.15.12s-.81.06-1.22.06Zm1.58,11.84a13.85,13.85,0,0,1-1.67-.07c-.37,0-.73-.11-1.06-.18h0V35.71h1.9a11.48,11.48,0,0,1,2.27.2,4.54,4.54,0,0,1,1.8.72,3.48,3.48,0,0,1,1.19,1.4,5.1,5.1,0,0,1,.43,2.25,5,5,0,0,1-1.29,3.58A4.73,4.73,0,0,1,108.69,45.21Zm22.07,2.56a10.26,10.26,0,0,0,2.61-.31,9.56,9.56,0,0,0,2.12-.79A6.18,6.18,0,0,0,137,45.55a4.46,4.46,0,0,0,.92-1.24h0l-.68-.72a5.56,5.56,0,0,1-2,.94,9.11,9.11,0,0,1-2.47.36,5.18,5.18,0,0,1-4.19-1.69,6.94,6.94,0,0,1-1.46-4.54h11.05a12.16,12.16,0,0,0,.06-4.57,6.44,6.44,0,0,0-1.48-3,6,6,0,0,0-2.66-1.65,11.31,11.31,0,0,0-3.44-.51,9.05,9.05,0,0,0-6.7,2.42q-2.42,2.4-2.41,7a12,12,0,0,0,.59,3.88,8.15,8.15,0,0,0,1.75,3,7.54,7.54,0,0,0,2.88,1.91A10.81,10.81,0,0,0,130.76,47.77Zm2.3-11h-5.79a18.41,18.41,0,0,1,.36-2.86,6,6,0,0,1,.66-1.8,2.25,2.25,0,0,1,1-.92,3,3,0,0,1,1.27-.25,2.16,2.16,0,0,1,2.2,1.51,10.13,10.13,0,0,1,.32,4.32Zm14.51,11a9.24,9.24,0,0,0,5.4-1.42,4.52,4.52,0,0,0,2-3.91,4.21,4.21,0,0,0-.67-2.41,6.85,6.85,0,0,0-1.65-1.75A13.64,13.64,0,0,0,150.51,37c-.78-.39-1.5-.77-2.16-1.15a8,8,0,0,1-1.66-1.25A2.14,2.14,0,0,1,146,33a2,2,0,0,1,2.2-2,8.33,8.33,0,0,1,1,.05,3.31,3.31,0,0,1,.9.23h0l1.52,3.68h1.22c.26-.72.54-1.52.83-2.4a12.51,12.51,0,0,0,.57-2.46,13.39,13.39,0,0,0-2.93-.85,20.52,20.52,0,0,0-3.62-.31,9.52,9.52,0,0,0-2.61.35,6.58,6.58,0,0,0-2.07.95,4.86,4.86,0,0,0-1.37,1.49,4,4,0,0,0-.5,2,4.59,4.59,0,0,0,.67,2.55A7.14,7.14,0,0,0,143.52,38a11.9,11.9,0,0,0,2.16,1.35c.78.38,1.5.77,2.16,1.15a8.3,8.3,0,0,1,1.66,1.26,2.27,2.27,0,0,1,.66,1.62,1.93,1.93,0,0,1-.86,1.69,3.23,3.23,0,0,1-1.91.62,7.59,7.59,0,0,1-.92-.06,1.8,1.8,0,0,1-.88-.34h0l-1.76-3.92H142.6a18.74,18.74,0,0,0-1.15,2.37,8.28,8.28,0,0,0-.61,2.63,13,13,0,0,0,3.17,1A18.45,18.45,0,0,0,147.57,47.77Zm16.31,0a8.7,8.7,0,0,0,2-.22,11,11,0,0,0,1.76-.54,10.78,10.78,0,0,0,1.44-.68,4.6,4.6,0,0,0,1-.69h0l-.26-1.18a6.64,6.64,0,0,1-1.49.34,13.39,13.39,0,0,1-1.46.09A2,2,0,0,1,165,44a6.08,6.08,0,0,1-.56-3.09h0V31.6h4.75V29.34h-4.75V24.76H163.2c-.24,0-.56.12-.94.22l-1.17.31a8.65,8.65,0,0,0-1.12.36,2.16,2.16,0,0,0-.73.41h0V29a9.33,9.33,0,0,0-2.88,1.22h0v1.4h2.88v11a5.63,5.63,0,0,0,1.15,4A4.56,4.56,0,0,0,163.88,47.77Zm25.78-.43V46a11.62,11.62,0,0,0-1.55-.72,9.8,9.8,0,0,0-1.51-.47h0V30l0-4.57h.32l1.3,4.21,6.91,17.68h1.66l6.95-17.82,1.18-3.86h.29L205,29.88v15a11.08,11.08,0,0,0-1.47.44,12,12,0,0,0-1.41.61h0v1.37h10.77V46a13.64,13.64,0,0,0-1.25-.58,7.83,7.83,0,0,0-1.45-.43h0V24.55a9.2,9.2,0,0,0,1.42-.42,8.81,8.81,0,0,0,1.31-.63h0V22.14H204l-5.61,14.58-1.08,3.52h0l-1-3.45L190.7,22.14h-9.76V23.5a5.7,5.7,0,0,0,1.43.65c.54.17,1,.3,1.53.4h0V44.74a7.26,7.26,0,0,0-1.61.54l-1.42.69h0v1.37Zm30.52.43a5.82,5.82,0,0,0,2-.33,5.47,5.47,0,0,0,1.57-.84,4.89,4.89,0,0,0,1.09-1.19,4.53,4.53,0,0,0,.62-1.39h.18c0,.8.06,1.47.1,2a5.46,5.46,0,0,0,.44,1.66h1.22l1.4-.2c.53-.09,1.07-.19,1.61-.33s1-.27,1.54-.41a6.73,6.73,0,0,0,1.17-.43h0V45.07l-2.48-.36q-.07-.65-.09-1.23c0-.38,0-.84,0-1.36,0-1.23,0-2.42.09-3.59s.09-2.46.09-3.9a8,8,0,0,0-.29-2.23,4.16,4.16,0,0,0-1-1.82,5,5,0,0,0-2-1.23A10.36,10.36,0,0,0,224,28.9a18.85,18.85,0,0,0-4.58.54,10.94,10.94,0,0,0-3.52,1.48,8.39,8.39,0,0,0,.23,1.26,11.83,11.83,0,0,0,.4,1.28,12.88,12.88,0,0,0,.5,1.19,9,9,0,0,0,.56,1h1.58l1.69-4.32A5.71,5.71,0,0,1,223,31a2.23,2.23,0,0,1,2.34,1.44,11,11,0,0,1,.25,4.53,48.24,48.24,0,0,0-5,.47,11.81,11.81,0,0,0-3.39,1,4.43,4.43,0,0,0-1.92,1.71,5.18,5.18,0,0,0-.62,2.66,4.76,4.76,0,0,0,.44,2.07,4.49,4.49,0,0,0,1.18,1.57,5.71,5.71,0,0,0,1.77,1A6.45,6.45,0,0,0,220.18,47.77Zm2.27-2.88a2.22,2.22,0,0,1-1.8-.76A3.16,3.16,0,0,1,220,42a4.31,4.31,0,0,1,.24-1.53,2.18,2.18,0,0,1,.84-1,4.44,4.44,0,0,1,1.7-.59,20.84,20.84,0,0,1,2.77-.22h0v3.6a8.21,8.21,0,0,1-.31.83,3,3,0,0,1-.57.87,3.79,3.79,0,0,1-.92.68A2.74,2.74,0,0,1,222.45,44.89Zm19.05,2.88a8.61,8.61,0,0,0,2-.22,11.88,11.88,0,0,0,3.21-1.22,4.25,4.25,0,0,0,1-.69h0l-.25-1.18a6.77,6.77,0,0,1-1.49.34,13.39,13.39,0,0,1-1.46.09,2,2,0,0,1-1.86-.87,6.1,6.1,0,0,1-.55-3.09h0V31.6h4.75V29.34H242V24.76h-1.23c-.24,0-.55.12-.93.22l-1.17.31a8.65,8.65,0,0,0-1.12.36,2.23,2.23,0,0,0-.74.41h0V29A9.33,9.33,0,0,0,234,30.2h0v1.4h2.88v11a5.68,5.68,0,0,0,1.15,4A4.59,4.59,0,0,0,241.5,47.77Zm14,0a8.61,8.61,0,0,0,2-.22,11.88,11.88,0,0,0,3.21-1.22,4.25,4.25,0,0,0,.95-.69h0l-.25-1.18a6.77,6.77,0,0,1-1.49.34,13.39,13.39,0,0,1-1.46.09,2,2,0,0,1-1.86-.87,6.1,6.1,0,0,1-.55-3.09h0V31.6h4.75V29.34h-4.75V24.76h-1.23c-.24,0-.55.12-.93.22l-1.17.31a8.65,8.65,0,0,0-1.12.36,2.23,2.23,0,0,0-.74.41h0V29A9.33,9.33,0,0,0,248,30.2h0v1.4h2.88v11a5.68,5.68,0,0,0,1.15,4A4.59,4.59,0,0,0,255.54,47.77Zm17.82-.43V45.93a6.73,6.73,0,0,0-1.44-.59,9.11,9.11,0,0,0-1.44-.27h0V35.85a4.3,4.3,0,0,1,1-1.65,4.6,4.6,0,0,1,1-.72h4.93V32.07c-.12-.55-.28-1.13-.47-1.74a4.54,4.54,0,0,0-.68-1.43,4,4,0,0,0-1.87.4,6.42,6.42,0,0,0-1.66,1.15A8.66,8.66,0,0,0,271.47,32a7.64,7.64,0,0,0-.85,1.65h-.14V28.9h-1.23l-1.42.18-1.75.27c-.6.11-1.18.24-1.74.38a9.42,9.42,0,0,0-1.42.47h0v1.4l2.37.29V45.07c-.38.09-.77.2-1.15.32a6.63,6.63,0,0,0-1.22.54h0v1.41Zm14.54.43a10.26,10.26,0,0,0,2.61-.31,9.56,9.56,0,0,0,2.12-.79,6.18,6.18,0,0,0,1.55-1.12,4.46,4.46,0,0,0,.92-1.24h0l-.68-.72a5.56,5.56,0,0,1-2,.94,9.11,9.11,0,0,1-2.47.36,5.18,5.18,0,0,1-4.19-1.69,6.94,6.94,0,0,1-1.46-4.54h11.05a12.16,12.16,0,0,0,.06-4.57,6.44,6.44,0,0,0-1.48-3,6,6,0,0,0-2.66-1.65,11.31,11.31,0,0,0-3.44-.51,9.05,9.05,0,0,0-6.7,2.42q-2.42,2.4-2.41,7a12,12,0,0,0,.59,3.88,8.15,8.15,0,0,0,1.75,3,7.54,7.54,0,0,0,2.88,1.91A10.81,10.81,0,0,0,287.9,47.77Zm2.3-11h-5.79a18.41,18.41,0,0,1,.36-2.86,6,6,0,0,1,.66-1.8,2.25,2.25,0,0,1,1-.92,3,3,0,0,1,1.27-.25,2.16,2.16,0,0,1,2.2,1.51,10.13,10.13,0,0,1,.32,4.32Zm14.51,11a9.24,9.24,0,0,0,5.4-1.42,4.52,4.52,0,0,0,2-3.91,4.21,4.21,0,0,0-.67-2.41,6.85,6.85,0,0,0-1.65-1.75A13.64,13.64,0,0,0,307.65,37c-.78-.39-1.5-.77-2.16-1.15a8,8,0,0,1-1.66-1.25,2.14,2.14,0,0,1-.67-1.56,2,2,0,0,1,2.2-2,8.33,8.33,0,0,1,1,.05,3.31,3.31,0,0,1,.9.23h0l1.52,3.68H310c.26-.72.54-1.52.83-2.4a12.51,12.51,0,0,0,.57-2.46,13.39,13.39,0,0,0-2.93-.85,20.52,20.52,0,0,0-3.62-.31,9.52,9.52,0,0,0-2.61.35,6.58,6.58,0,0,0-2.07.95,4.86,4.86,0,0,0-1.37,1.49,4,4,0,0,0-.5,2,4.59,4.59,0,0,0,.67,2.55A7.14,7.14,0,0,0,300.66,38a11.9,11.9,0,0,0,2.16,1.35c.78.38,1.5.77,2.16,1.15a8.3,8.3,0,0,1,1.66,1.26,2.27,2.27,0,0,1,.66,1.62,1.93,1.93,0,0,1-.86,1.69,3.23,3.23,0,0,1-1.91.62,7.59,7.59,0,0,1-.92-.06,1.8,1.8,0,0,1-.88-.34h0L301,41.4h-1.23a18.74,18.74,0,0,0-1.15,2.37A8.28,8.28,0,0,0,298,46.4a13,13,0,0,0,3.17,1A18.45,18.45,0,0,0,304.71,47.77Zm16.27,0a9.24,9.24,0,0,0,5.4-1.42,4.52,4.52,0,0,0,2-3.91,4.21,4.21,0,0,0-.67-2.41,6.85,6.85,0,0,0-1.65-1.75A13.64,13.64,0,0,0,323.92,37c-.78-.39-1.5-.77-2.16-1.15a8.27,8.27,0,0,1-1.66-1.25,2.13,2.13,0,0,1-.66-1.56,2,2,0,0,1,2.19-2,8.5,8.5,0,0,1,1.05.05,3.5,3.5,0,0,1,.9.23h0l1.51,3.68h1.22c.27-.72.54-1.52.83-2.4a13.34,13.34,0,0,0,.58-2.46,13.49,13.49,0,0,0-2.94-.85,20.43,20.43,0,0,0-3.62-.31,9.52,9.52,0,0,0-2.61.35,6.58,6.58,0,0,0-2.07.95,4.7,4.7,0,0,0-1.36,1.49,3.88,3.88,0,0,0-.51,2,4.59,4.59,0,0,0,.67,2.55A7.14,7.14,0,0,0,316.93,38a11.9,11.9,0,0,0,2.16,1.35c.78.38,1.5.77,2.16,1.15a8,8,0,0,1,1.66,1.26,2.28,2.28,0,0,1,.67,1.62,1.94,1.94,0,0,1-.87,1.69,3.21,3.21,0,0,1-1.91.62,7.43,7.43,0,0,1-.91-.06,1.8,1.8,0,0,1-.89-.34h0l-1.76-3.92H316a17.46,17.46,0,0,0-1.16,2.37,8.28,8.28,0,0,0-.61,2.63,13.13,13.13,0,0,0,3.17,1A18.45,18.45,0,0,0,321,47.77Zm36.26-.43c0-.44,0-1-.08-1.71s-.1-1.46-.18-2.24-.15-1.55-.23-2.32-.16-1.44-.23-2h-1.23l-1.76,4h-6.19l-2.2.21v-.14L347,41.9l3.06-2.65a29.55,29.55,0,0,0,3.17-3.16,18.71,18.71,0,0,0,2.48-3.68,8.84,8.84,0,0,0,1-4.15,7.14,7.14,0,0,0-.45-2.56,5.62,5.62,0,0,0-1.4-2.09,6.59,6.59,0,0,0-2.4-1.4,10.26,10.26,0,0,0-3.42-.51,12.72,12.72,0,0,0-4.77.8,11.48,11.48,0,0,0-3.22,1.87c.1.43.23.9.4,1.42s.35,1,.54,1.57l.56,1.51.48,1.26h1.23l1.33-5.58a7,7,0,0,1,1.1-.25,7.14,7.14,0,0,1,1.09-.08,3.74,3.74,0,0,1,3,1.25,4.75,4.75,0,0,1,1.06,3.22,9,9,0,0,1-.56,3.09,16.45,16.45,0,0,1-1.49,3.12,27.81,27.81,0,0,1-2.12,3c-.8,1-1.6,1.92-2.42,2.79s-1.62,1.68-2.41,2.42-1.5,1.37-2.12,1.92h0v2.31Zm12.24.43a9,9,0,0,0,3.85-.83,8.25,8.25,0,0,0,3-2.47,11.93,11.93,0,0,0,2-4.06,20.45,20.45,0,0,0,.7-5.67q0-6.53-2.52-9.78a8.19,8.19,0,0,0-6.84-3.26,8.45,8.45,0,0,0-3.72.83A8.19,8.19,0,0,0,363,25a12.52,12.52,0,0,0-1.94,4.07,20.45,20.45,0,0,0-.7,5.67,23.36,23.36,0,0,0,.59,5.5,12.26,12.26,0,0,0,1.77,4.09,7.93,7.93,0,0,0,2.86,2.56A8.38,8.38,0,0,0,369.48,47.77Zm0-2a2.31,2.31,0,0,1-1.78-.76,5.5,5.5,0,0,1-1.14-2.18,17.15,17.15,0,0,1-.59-3.47c-.11-1.37-.16-2.92-.16-4.64,0-2,.06-3.66.18-5.06a15,15,0,0,1,.63-3.44,4.09,4.09,0,0,1,1.2-1.94,2.94,2.94,0,0,1,1.91-.62,2.83,2.83,0,0,1,2.07.76A4.87,4.87,0,0,1,373,26.62a16.77,16.77,0,0,1,.56,3.47c.09,1.37.14,2.92.14,4.65q0,3-.18,5.07a13.81,13.81,0,0,1-.66,3.42,4.2,4.2,0,0,1-1.3,2A3.39,3.39,0,0,1,369.44,45.79Zm28.48,1.55c0-.44,0-1-.08-1.71s-.1-1.46-.18-2.24-.15-1.55-.23-2.32-.16-1.44-.23-2H396l-1.76,4H388l-2.2.21v-.14l1.87-1.26,3.06-2.65a29.55,29.55,0,0,0,3.17-3.16,18.71,18.71,0,0,0,2.48-3.68,8.84,8.84,0,0,0,1-4.15A7.14,7.14,0,0,0,397,25.7a5.62,5.62,0,0,0-1.4-2.09,6.59,6.59,0,0,0-2.4-1.4,10.26,10.26,0,0,0-3.42-.51,12.72,12.72,0,0,0-4.77.8,11.48,11.48,0,0,0-3.22,1.87c.1.43.23.9.4,1.42s.35,1,.54,1.57l.56,1.51.48,1.26H385l1.33-5.58a7,7,0,0,1,1.1-.25,7.14,7.14,0,0,1,1.09-.08,3.74,3.74,0,0,1,3,1.25,4.75,4.75,0,0,1,1.06,3.22,9,9,0,0,1-.56,3.09,16.45,16.45,0,0,1-1.49,3.12,27.81,27.81,0,0,1-2.12,3c-.8,1-1.6,1.92-2.42,2.79s-1.62,1.68-2.41,2.42-1.5,1.37-2.12,1.92h0v2.31Zm19.08,0V45.79a19.07,19.07,0,0,0-1.8-.7c-.6-.21-1.2-.38-1.8-.53h0V21.7h-1.23a26.31,26.31,0,0,1-4.16,2,40.79,40.79,0,0,1-4.15,1.37h0l.18,1.33a18.21,18.21,0,0,0,2.23-.07,10.48,10.48,0,0,0,2.09-.43h0L408.21,28V44.56c-.62.15-1.24.32-1.85.53a18.4,18.4,0,0,0-1.82.7h0v1.55Z"/><path id="path-3-2" data-name="path-3" class="cls-2" d="M108.73,47.55a18.4,18.4,0,0,0,3.89-.41A10.94,10.94,0,0,0,116,45.82a7,7,0,0,0,2.32-2.3,6.32,6.32,0,0,0,.86-3.35,5.79,5.79,0,0,0-.59-2.68A6,6,0,0,0,117,35.6a6.87,6.87,0,0,0-2.11-1.15,11,11,0,0,0-2.32-.54h0v-.15a7.61,7.61,0,0,0,2.14-.72,6.26,6.26,0,0,0,1.73-1.26A5.39,5.39,0,0,0,117.6,30a6,6,0,0,0-.34-5.15,5.15,5.15,0,0,0-2-1.82,9.54,9.54,0,0,0-2.88-.9,21.43,21.43,0,0,0-3.34-.25c-1.06,0-2,0-2.81.11s-1.68.11-2.59.11h-5.8V23.5a8.67,8.67,0,0,0,1.44.63,12.86,12.86,0,0,0,1.51.42h0V44.92a6.09,6.09,0,0,0-1.49.36,9.79,9.79,0,0,0-1.46.69h0v1.37h4.28l1.43,0,1.74.07,1.8.08Zm-1.62-14.18H106v-9c.31,0,.66-.08,1-.1s.84,0,1.37,0a4.4,4.4,0,0,1,3.06,1.06,4.26,4.26,0,0,1,1.19,3.33,4.62,4.62,0,0,1-.87,2.76,5.14,5.14,0,0,1-2.27,1.78c-.36.05-.74.09-1.15.12s-.81.06-1.22.06Zm1.58,11.84a13.85,13.85,0,0,1-1.67-.07c-.37,0-.73-.11-1.06-.18h0V35.71h1.9a11.48,11.48,0,0,1,2.27.2,4.54,4.54,0,0,1,1.8.72,3.48,3.48,0,0,1,1.19,1.4,5.1,5.1,0,0,1,.43,2.25,5,5,0,0,1-1.29,3.58A4.73,4.73,0,0,1,108.69,45.21Zm22.07,2.56a10.26,10.26,0,0,0,2.61-.31,9.56,9.56,0,0,0,2.12-.79A6.18,6.18,0,0,0,137,45.55a4.46,4.46,0,0,0,.92-1.24h0l-.68-.72a5.56,5.56,0,0,1-2,.94,9.11,9.11,0,0,1-2.47.36,5.18,5.18,0,0,1-4.19-1.69,6.94,6.94,0,0,1-1.46-4.54h11.05a12.16,12.16,0,0,0,.06-4.57,6.44,6.44,0,0,0-1.48-3,6,6,0,0,0-2.66-1.65,11.31,11.31,0,0,0-3.44-.51,9.05,9.05,0,0,0-6.7,2.42q-2.42,2.4-2.41,7a12,12,0,0,0,.59,3.88,8.15,8.15,0,0,0,1.75,3,7.54,7.54,0,0,0,2.88,1.91A10.81,10.81,0,0,0,130.76,47.77Zm2.3-11h-5.79a18.41,18.41,0,0,1,.36-2.86,6,6,0,0,1,.66-1.8,2.25,2.25,0,0,1,1-.92,3,3,0,0,1,1.27-.25,2.16,2.16,0,0,1,2.2,1.51,10.13,10.13,0,0,1,.32,4.32Zm14.51,11a9.24,9.24,0,0,0,5.4-1.42,4.52,4.52,0,0,0,2-3.91,4.21,4.21,0,0,0-.67-2.41,6.85,6.85,0,0,0-1.65-1.75A13.64,13.64,0,0,0,150.51,37c-.78-.39-1.5-.77-2.16-1.15a8,8,0,0,1-1.66-1.25A2.14,2.14,0,0,1,146,33a2,2,0,0,1,2.2-2,8.33,8.33,0,0,1,1,.05,3.31,3.31,0,0,1,.9.23h0l1.52,3.68h1.22c.26-.72.54-1.52.83-2.4a12.51,12.51,0,0,0,.57-2.46,13.39,13.39,0,0,0-2.93-.85,20.52,20.52,0,0,0-3.62-.31,9.52,9.52,0,0,0-2.61.35,6.58,6.58,0,0,0-2.07.95,4.86,4.86,0,0,0-1.37,1.49,4,4,0,0,0-.5,2,4.59,4.59,0,0,0,.67,2.55A7.14,7.14,0,0,0,143.52,38a11.9,11.9,0,0,0,2.16,1.35c.78.38,1.5.77,2.16,1.15a8.3,8.3,0,0,1,1.66,1.26,2.27,2.27,0,0,1,.66,1.62,1.93,1.93,0,0,1-.86,1.69,3.23,3.23,0,0,1-1.91.62,7.59,7.59,0,0,1-.92-.06,1.8,1.8,0,0,1-.88-.34h0l-1.76-3.92H142.6a18.74,18.74,0,0,0-1.15,2.37,8.28,8.28,0,0,0-.61,2.63,13,13,0,0,0,3.17,1A18.45,18.45,0,0,0,147.57,47.77Zm16.31,0a8.7,8.7,0,0,0,2-.22,11,11,0,0,0,1.76-.54,10.78,10.78,0,0,0,1.44-.68,4.6,4.6,0,0,0,1-.69h0l-.26-1.18a6.64,6.64,0,0,1-1.49.34,13.39,13.39,0,0,1-1.46.09A2,2,0,0,1,165,44a6.08,6.08,0,0,1-.56-3.09h0V31.6h4.75V29.34h-4.75V24.76H163.2c-.24,0-.56.12-.94.22l-1.17.31a8.65,8.65,0,0,0-1.12.36,2.16,2.16,0,0,0-.73.41h0V29a9.33,9.33,0,0,0-2.88,1.22h0v1.4h2.88v11a5.63,5.63,0,0,0,1.15,4A4.56,4.56,0,0,0,163.88,47.77Zm25.78-.43V46a11.62,11.62,0,0,0-1.55-.72,9.8,9.8,0,0,0-1.51-.47h0V30l0-4.57h.32l1.3,4.21,6.91,17.68h1.66l6.95-17.82,1.18-3.86h.29L205,29.88v15a11.08,11.08,0,0,0-1.47.44,12,12,0,0,0-1.41.61h0v1.37h10.77V46a13.64,13.64,0,0,0-1.25-.58,7.83,7.83,0,0,0-1.45-.43h0V24.55a9.2,9.2,0,0,0,1.42-.42,8.81,8.81,0,0,0,1.31-.63h0V22.14H204l-5.61,14.58-1.08,3.52h0l-1-3.45L190.7,22.14h-9.76V23.5a5.7,5.7,0,0,0,1.43.65c.54.17,1,.3,1.53.4h0V44.74a7.26,7.26,0,0,0-1.61.54l-1.42.69h0v1.37Zm30.52.43a5.82,5.82,0,0,0,2-.33,5.47,5.47,0,0,0,1.57-.84,4.89,4.89,0,0,0,1.09-1.19,4.53,4.53,0,0,0,.62-1.39h.18c0,.8.06,1.47.1,2a5.46,5.46,0,0,0,.44,1.66h1.22l1.4-.2c.53-.09,1.07-.19,1.61-.33s1-.27,1.54-.41a6.73,6.73,0,0,0,1.17-.43h0V45.07l-2.48-.36q-.07-.65-.09-1.23c0-.38,0-.84,0-1.36,0-1.23,0-2.42.09-3.59s.09-2.46.09-3.9a8,8,0,0,0-.29-2.23,4.16,4.16,0,0,0-1-1.82,5,5,0,0,0-2-1.23A10.36,10.36,0,0,0,224,28.9a18.85,18.85,0,0,0-4.58.54,10.94,10.94,0,0,0-3.52,1.48,8.39,8.39,0,0,0,.23,1.26,11.83,11.83,0,0,0,.4,1.28,12.88,12.88,0,0,0,.5,1.19,9,9,0,0,0,.56,1h1.58l1.69-4.32A5.71,5.71,0,0,1,223,31a2.23,2.23,0,0,1,2.34,1.44,11,11,0,0,1,.25,4.53,48.24,48.24,0,0,0-5,.47,11.81,11.81,0,0,0-3.39,1,4.43,4.43,0,0,0-1.92,1.71,5.18,5.18,0,0,0-.62,2.66,4.76,4.76,0,0,0,.44,2.07,4.49,4.49,0,0,0,1.18,1.57,5.71,5.71,0,0,0,1.77,1A6.45,6.45,0,0,0,220.18,47.77Zm2.27-2.88a2.22,2.22,0,0,1-1.8-.76A3.16,3.16,0,0,1,220,42a4.31,4.31,0,0,1,.24-1.53,2.18,2.18,0,0,1,.84-1,4.44,4.44,0,0,1,1.7-.59,20.84,20.84,0,0,1,2.77-.22h0v3.6a8.21,8.21,0,0,1-.31.83,3,3,0,0,1-.57.87,3.79,3.79,0,0,1-.92.68A2.74,2.74,0,0,1,222.45,44.89Zm19.05,2.88a8.61,8.61,0,0,0,2-.22,11.88,11.88,0,0,0,3.21-1.22,4.25,4.25,0,0,0,1-.69h0l-.25-1.18a6.77,6.77,0,0,1-1.49.34,13.39,13.39,0,0,1-1.46.09,2,2,0,0,1-1.86-.87,6.1,6.1,0,0,1-.55-3.09h0V31.6h4.75V29.34H242V24.76h-1.23c-.24,0-.55.12-.93.22l-1.17.31a8.65,8.65,0,0,0-1.12.36,2.23,2.23,0,0,0-.74.41h0V29A9.33,9.33,0,0,0,234,30.2h0v1.4h2.88v11a5.68,5.68,0,0,0,1.15,4A4.59,4.59,0,0,0,241.5,47.77Zm14,0a8.61,8.61,0,0,0,2-.22,11.88,11.88,0,0,0,3.21-1.22,4.25,4.25,0,0,0,.95-.69h0l-.25-1.18a6.77,6.77,0,0,1-1.49.34,13.39,13.39,0,0,1-1.46.09,2,2,0,0,1-1.86-.87,6.1,6.1,0,0,1-.55-3.09h0V31.6h4.75V29.34h-4.75V24.76h-1.23c-.24,0-.55.12-.93.22l-1.17.31a8.65,8.65,0,0,0-1.12.36,2.23,2.23,0,0,0-.74.41h0V29A9.33,9.33,0,0,0,248,30.2h0v1.4h2.88v11a5.68,5.68,0,0,0,1.15,4A4.59,4.59,0,0,0,255.54,47.77Zm17.82-.43V45.93a6.73,6.73,0,0,0-1.44-.59,9.11,9.11,0,0,0-1.44-.27h0V35.85a4.3,4.3,0,0,1,1-1.65,4.6,4.6,0,0,1,1-.72h4.93V32.07c-.12-.55-.28-1.13-.47-1.74a4.54,4.54,0,0,0-.68-1.43,4,4,0,0,0-1.87.4,6.42,6.42,0,0,0-1.66,1.15A8.66,8.66,0,0,0,271.47,32a7.64,7.64,0,0,0-.85,1.65h-.14V28.9h-1.23l-1.42.18-1.75.27c-.6.11-1.18.24-1.74.38a9.42,9.42,0,0,0-1.42.47h0v1.4l2.37.29V45.07c-.38.09-.77.2-1.15.32a6.63,6.63,0,0,0-1.22.54h0v1.41Zm14.54.43a10.26,10.26,0,0,0,2.61-.31,9.56,9.56,0,0,0,2.12-.79,6.18,6.18,0,0,0,1.55-1.12,4.46,4.46,0,0,0,.92-1.24h0l-.68-.72a5.56,5.56,0,0,1-2,.94,9.11,9.11,0,0,1-2.47.36,5.18,5.18,0,0,1-4.19-1.69,6.94,6.94,0,0,1-1.46-4.54h11.05a12.16,12.16,0,0,0,.06-4.57,6.44,6.44,0,0,0-1.48-3,6,6,0,0,0-2.66-1.65,11.31,11.31,0,0,0-3.44-.51,9.05,9.05,0,0,0-6.7,2.42q-2.42,2.4-2.41,7a12,12,0,0,0,.59,3.88,8.15,8.15,0,0,0,1.75,3,7.54,7.54,0,0,0,2.88,1.91A10.81,10.81,0,0,0,287.9,47.77Zm2.3-11h-5.79a18.41,18.41,0,0,1,.36-2.86,6,6,0,0,1,.66-1.8,2.25,2.25,0,0,1,1-.92,3,3,0,0,1,1.27-.25,2.16,2.16,0,0,1,2.2,1.51,10.13,10.13,0,0,1,.32,4.32Zm14.51,11a9.24,9.24,0,0,0,5.4-1.42,4.52,4.52,0,0,0,2-3.91,4.21,4.21,0,0,0-.67-2.41,6.85,6.85,0,0,0-1.65-1.75A13.64,13.64,0,0,0,307.65,37c-.78-.39-1.5-.77-2.16-1.15a8,8,0,0,1-1.66-1.25,2.14,2.14,0,0,1-.67-1.56,2,2,0,0,1,2.2-2,8.33,8.33,0,0,1,1,.05,3.31,3.31,0,0,1,.9.23h0l1.52,3.68H310c.26-.72.54-1.52.83-2.4a12.51,12.51,0,0,0,.57-2.46,13.39,13.39,0,0,0-2.93-.85,20.52,20.52,0,0,0-3.62-.31,9.52,9.52,0,0,0-2.61.35,6.58,6.58,0,0,0-2.07.95,4.86,4.86,0,0,0-1.37,1.49,4,4,0,0,0-.5,2,4.59,4.59,0,0,0,.67,2.55A7.14,7.14,0,0,0,300.66,38a11.9,11.9,0,0,0,2.16,1.35c.78.38,1.5.77,2.16,1.15a8.3,8.3,0,0,1,1.66,1.26,2.27,2.27,0,0,1,.66,1.62,1.93,1.93,0,0,1-.86,1.69,3.23,3.23,0,0,1-1.91.62,7.59,7.59,0,0,1-.92-.06,1.8,1.8,0,0,1-.88-.34h0L301,41.4h-1.23a18.74,18.74,0,0,0-1.15,2.37A8.28,8.28,0,0,0,298,46.4a13,13,0,0,0,3.17,1A18.45,18.45,0,0,0,304.71,47.77Zm16.27,0a9.24,9.24,0,0,0,5.4-1.42,4.52,4.52,0,0,0,2-3.91,4.21,4.21,0,0,0-.67-2.41,6.85,6.85,0,0,0-1.65-1.75A13.64,13.64,0,0,0,323.92,37c-.78-.39-1.5-.77-2.16-1.15a8.27,8.27,0,0,1-1.66-1.25,2.13,2.13,0,0,1-.66-1.56,2,2,0,0,1,2.19-2,8.5,8.5,0,0,1,1.05.05,3.5,3.5,0,0,1,.9.23h0l1.51,3.68h1.22c.27-.72.54-1.52.83-2.4a13.34,13.34,0,0,0,.58-2.46,13.49,13.49,0,0,0-2.94-.85,20.43,20.43,0,0,0-3.62-.31,9.52,9.52,0,0,0-2.61.35,6.58,6.58,0,0,0-2.07.95,4.7,4.7,0,0,0-1.36,1.49,3.88,3.88,0,0,0-.51,2,4.59,4.59,0,0,0,.67,2.55A7.14,7.14,0,0,0,316.93,38a11.9,11.9,0,0,0,2.16,1.35c.78.38,1.5.77,2.16,1.15a8,8,0,0,1,1.66,1.26,2.28,2.28,0,0,1,.67,1.62,1.94,1.94,0,0,1-.87,1.69,3.21,3.21,0,0,1-1.91.62,7.43,7.43,0,0,1-.91-.06,1.8,1.8,0,0,1-.89-.34h0l-1.76-3.92H316a17.46,17.46,0,0,0-1.16,2.37,8.28,8.28,0,0,0-.61,2.63,13.13,13.13,0,0,0,3.17,1A18.45,18.45,0,0,0,321,47.77Zm36.26-.43c0-.44,0-1-.08-1.71s-.1-1.46-.18-2.24-.15-1.55-.23-2.32-.16-1.44-.23-2h-1.23l-1.76,4h-6.19l-2.2.21v-.14L347,41.9l3.06-2.65a29.55,29.55,0,0,0,3.17-3.16,18.71,18.71,0,0,0,2.48-3.68,8.84,8.84,0,0,0,1-4.15,7.14,7.14,0,0,0-.45-2.56,5.62,5.62,0,0,0-1.4-2.09,6.59,6.59,0,0,0-2.4-1.4,10.26,10.26,0,0,0-3.42-.51,12.72,12.72,0,0,0-4.77.8,11.48,11.48,0,0,0-3.22,1.87c.1.43.23.9.4,1.42s.35,1,.54,1.57l.56,1.51.48,1.26h1.23l1.33-5.58a7,7,0,0,1,1.1-.25,7.14,7.14,0,0,1,1.09-.08,3.74,3.74,0,0,1,3,1.25,4.75,4.75,0,0,1,1.06,3.22,9,9,0,0,1-.56,3.09,16.45,16.45,0,0,1-1.49,3.12,27.81,27.81,0,0,1-2.12,3c-.8,1-1.6,1.92-2.42,2.79s-1.62,1.68-2.41,2.42-1.5,1.37-2.12,1.92h0v2.31Zm12.24.43a9,9,0,0,0,3.85-.83,8.25,8.25,0,0,0,3-2.47,11.93,11.93,0,0,0,2-4.06,20.45,20.45,0,0,0,.7-5.67q0-6.53-2.52-9.78a8.19,8.19,0,0,0-6.84-3.26,8.45,8.45,0,0,0-3.72.83A8.19,8.19,0,0,0,363,25a12.52,12.52,0,0,0-1.94,4.07,20.45,20.45,0,0,0-.7,5.67,23.36,23.36,0,0,0,.59,5.5,12.26,12.26,0,0,0,1.77,4.09,7.93,7.93,0,0,0,2.86,2.56A8.38,8.38,0,0,0,369.48,47.77Zm0-2a2.31,2.31,0,0,1-1.78-.76,5.5,5.5,0,0,1-1.14-2.18,17.15,17.15,0,0,1-.59-3.47c-.11-1.37-.16-2.92-.16-4.64,0-2,.06-3.66.18-5.06a15,15,0,0,1,.63-3.44,4.09,4.09,0,0,1,1.2-1.94,2.94,2.94,0,0,1,1.91-.62,2.83,2.83,0,0,1,2.07.76A4.87,4.87,0,0,1,373,26.62a16.77,16.77,0,0,1,.56,3.47c.09,1.37.14,2.92.14,4.65q0,3-.18,5.07a13.81,13.81,0,0,1-.66,3.42,4.2,4.2,0,0,1-1.3,2A3.39,3.39,0,0,1,369.44,45.79Zm28.48,1.55c0-.44,0-1-.08-1.71s-.1-1.46-.18-2.24-.15-1.55-.23-2.32-.16-1.44-.23-2H396l-1.76,4H388l-2.2.21v-.14l1.87-1.26,3.06-2.65a29.55,29.55,0,0,0,3.17-3.16,18.71,18.71,0,0,0,2.48-3.68,8.84,8.84,0,0,0,1-4.15A7.14,7.14,0,0,0,397,25.7a5.62,5.62,0,0,0-1.4-2.09,6.59,6.59,0,0,0-2.4-1.4,10.26,10.26,0,0,0-3.42-.51,12.72,12.72,0,0,0-4.77.8,11.48,11.48,0,0,0-3.22,1.87c.1.43.23.9.4,1.42s.35,1,.54,1.57l.56,1.51.48,1.26H385l1.33-5.58a7,7,0,0,1,1.1-.25,7.14,7.14,0,0,1,1.09-.08,3.74,3.74,0,0,1,3,1.25,4.75,4.75,0,0,1,1.06,3.22,9,9,0,0,1-.56,3.09,16.45,16.45,0,0,1-1.49,3.12,27.81,27.81,0,0,1-2.12,3c-.8,1-1.6,1.92-2.42,2.79s-1.62,1.68-2.41,2.42-1.5,1.37-2.12,1.92h0v2.31Zm19.08,0V45.79a19.07,19.07,0,0,0-1.8-.7c-.6-.21-1.2-.38-1.8-.53h0V21.7h-1.23a26.31,26.31,0,0,1-4.16,2,40.79,40.79,0,0,1-4.15,1.37h0l.18,1.33a18.21,18.21,0,0,0,2.23-.07,10.48,10.48,0,0,0,2.09-.43h0L408.21,28V44.56c-.62.15-1.24.32-1.85.53a18.4,18.4,0,0,0-1.82.7h0v1.55Z"/></g><g id="Group-64"><g id="Group-3"><g class="cls-3"><path id="Fill-1" class="cls-4" d="M96,63.23c.94.08,1,.2,1,.24h0c0-.22.64-3.54-1.12-5.48h0a14.33,14.33,0,0,0-3.77-2.63h0s-.74,7.49,3.87,7.87"/></g></g><g id="Group-6"><g class="cls-5"><path id="Fill-4" class="cls-4" d="M85.29,66.67s3.59,1.66,6,1.67h0l.43,0h0a6.19,6.19,0,0,0,5.32-3.46h0L96,64.27h0a7.22,7.22,0,0,0-3.31-.8h0c-4,0-7.35,3.2-7.35,3.2"/></g></g><g id="Group-9"><g class="cls-6"><path id="Fill-7" class="cls-4" d="M88.13,59.74c1.05.33,1.1.46,1.09.49h0c.13-.17,2-2.76.64-4.86h0a14.64,14.64,0,0,0-3.42-3.25h0s-3.49,6,1.69,7.62"/></g></g><g id="Group-12"><g class="cls-7"><path id="Fill-10" class="cls-4" d="M76.85,59.46s3.17,3.1,5.53,3.72h0A6.45,6.45,0,0,0,88.66,62h0L87.79,61h0a8.18,8.18,0,0,0-6.16-2.41h0a14.53,14.53,0,0,0-4.78.85"/></g></g><g id="Group-15"><g class="cls-8"><path id="Fill-13" class="cls-4" d="M81.82,54.67c.87.54.87.67.84.69h0c.19-.12,3-2.09,2.58-4.34h0a11.15,11.15,0,0,0-2-3.77h0S77.52,52,81.82,54.67"/></g></g><g id="Group-18"><g class="cls-9"><path id="Fill-16" class="cls-4" d="M71.79,50.51s1.64,3,3.29,3.94h0a5.53,5.53,0,0,0,5.14.51h0s-.06-.11-.43-.87h0c-1.64-3.3-6-3.59-7.5-3.59h-.5"/></g></g><g id="Group-21"><g class="cls-10"><path id="Fill-19" class="cls-4" d="M77.72,49.65c.65.7.61.83.58.85h0c.21-.1,3.36-1.62,3.59-4h0a10.93,10.93,0,0,0-.73-4.14h0s-6.63,3.85-3.44,7.26"/></g></g><g id="Group-24"><g class="cls-11"><path id="Fill-22" class="cls-4" d="M72.23,47.16a4.75,4.75,0,0,0,4.62,1.61h0s0-.13-.2-1h0c-.91-4.56-6.55-5.39-6.55-5.39h0s.83,3.4,2.13,4.77"/></g></g><g id="Group-27"><g class="cls-12"><path id="Fill-25" class="cls-4" d="M75.3,41.48c.23.8.16.9.13.91h0c.18,0,2.95-.54,3.91-2.58h0a12.91,12.91,0,0,0,.88-3.91h0s-6,1.66-4.92,5.58"/></g></g><g id="Group-30"><g class="cls-13"><path id="Fill-28" class="cls-4" d="M70.71,37.79a5.28,5.28,0,0,0,4.26,3h0s0-.13.14-1h0c.65-4.55-5-7.12-5-7.12h0s-.32,3.45.55,5.13"/></g></g><g id="Group-33"><g class="cls-14"><path id="Fill-31" class="cls-4" d="M75.2,35.09c.06.73,0,.81,0,.81h0c.16,0,2.58,0,3.71-1.62h0A11.41,11.41,0,0,0,80.22,31h0s-5.36.48-5,4.05"/></g></g><g id="Group-36"><g class="cls-15"><path id="Fill-34" class="cls-4" d="M71.91,29.25A5.43,5.43,0,0,0,76,32.66h0s0-.11.44-.86h0c2-4-3.67-7.25-3.67-7.25h0s-1.36,3-.83,4.7"/></g></g><g id="Group-39"><g class="cls-16"><path id="Fill-37" class="cls-4" d="M78.75,26.85c-.11.65-.19.7-.21.7h0a3.48,3.48,0,0,0,3.25-.38h0a10.05,10.05,0,0,0,1.81-2.44h0A6.86,6.86,0,0,0,82,24.55h0c-1.28,0-2.94.39-3.29,2.3"/></g></g><g id="Group-42"><g class="cls-17"><path id="Fill-40" class="cls-4" d="M75.19,22.19a4.06,4.06,0,0,0,1.66,4h0s.07-.09.56-.69h0c2.63-3.2-.18-7.41-.18-7.41h0s-1.86,2.49-2,4.12"/></g></g><g id="Group-45"><g class="cls-18"><path id="Fill-43" class="cls-4" d="M80.52,23.23c-.2.68-.27.71-.3.71h0c.07,0,1.75,1.18,3.07.24h0a9.7,9.7,0,0,0,2-2.27h0a5.81,5.81,0,0,0-2.34-.6h0a2.34,2.34,0,0,0-2.43,1.92"/></g></g><g id="Group-48"><g class="cls-19"><path id="Fill-46" class="cls-4" d="M78.71,17.91a3,3,0,0,0,1,3.4h0l.64-.5h0c2.94-2.27.93-6,.93-6h0s-2.13,1.79-2.53,3.09"/></g></g><g id="Group-51"><g class="cls-20"><path id="Fill-49" class="cls-4" d="M84,19.41c-.29.62-.37.63-.39.62h0c.05.07,1.43,1.72,2.83,1.17h0a8,8,0,0,0,2.23-1.69h0a5.15,5.15,0,0,0-2.87-1.44h0A1.93,1.93,0,0,0,84,19.41"/></g></g><g id="Group-54"><g class="cls-21"><path id="Fill-52" class="cls-4" d="M84,12.82a3.35,3.35,0,0,0,.28,3.62h0l.65-.43h0c3-2,1.85-6.05,1.85-6.05h0A10.39,10.39,0,0,0,84,12.82"/></g></g><g id="Group-57"><g class="cls-22"><path id="Fill-55" class="cls-4" d="M87.39,14.37c-.32.6-.4.61-.42.59h0c0,.07,1.37,1.84,2.78,1.42h0A7.31,7.31,0,0,0,92,14.91h0s-1.54-1.71-3-1.71h0a1.85,1.85,0,0,0-1.66,1.17"/></g></g><g id="Group-60"><g class="cls-23"><path id="Fill-58" class="cls-4" d="M92.35,11.79c-.21.67-.29.71-.31.7h0c.06,0,1.67,1.28,3,.39h0a9.57,9.57,0,0,0,2-2.2h0A5.53,5.53,0,0,0,94.66,10h0a2.29,2.29,0,0,0-2.31,1.83"/></g></g><g id="Group-63"><g class="cls-24"><path id="Fill-61" class="cls-4" d="M90.34,8.34a9,9,0,0,0-2.74,1.91h0a2.68,2.68,0,0,0-.34,2.95h0l.6-.26h0c2.78-1.16,2.48-4.58,2.48-4.6Z"/></g></g></g><g id="Group-64-Copy"><g id="Group-3-2" data-name="Group-3"><g class="cls-25"><path id="Fill-1-2" data-name="Fill-1" class="cls-4" d="M423.21,63.23c-.91.08-1,.2-1,.24h0c0-.22-.62-3.54,1.08-5.48h0a13.64,13.64,0,0,1,3.62-2.63h0s.71,7.49-3.72,7.87"/></g></g><g id="Group-6-2" data-name="Group-6"><g class="cls-26"><path id="Fill-4-2" data-name="Fill-4" class="cls-4" d="M433.47,66.67s-3.46,1.66-5.8,1.67h0l-.41,0h0a6,6,0,0,1-5.13-3.46h0l1.11-.59h0a6.72,6.72,0,0,1,3.18-.8h0c3.87,0,7.08,3.2,7.08,3.2"/></g></g><g id="Group-9-2" data-name="Group-9"><g class="cls-27"><path id="Fill-7-2" data-name="Fill-7" class="cls-4" d="M430.74,59.74c-1,.33-1.06.46-1.05.49h0c-.12-.17-1.92-2.76-.62-4.86h0a14.25,14.25,0,0,1,3.3-3.25h0s3.36,6-1.63,7.62"/></g></g><g id="Group-12-2" data-name="Group-12"><g class="cls-28"><path id="Fill-10-2" data-name="Fill-10" class="cls-4" d="M441.6,59.46s-3.05,3.1-5.33,3.72h0a6.06,6.06,0,0,1-6-1.23h0s.12-.12.85-.93h0A7.69,7.69,0,0,1,437,58.61h0a13.53,13.53,0,0,1,4.6.85"/></g></g><g id="Group-15-2" data-name="Group-15"><g class="cls-29"><path id="Fill-13-2" data-name="Fill-13" class="cls-4" d="M436.82,54.67c-.85.54-.84.67-.82.69h0c-.18-.12-2.91-2.09-2.48-4.34h0a11.39,11.39,0,0,1,1.88-3.77h0S441,52,436.82,54.67"/></g></g><g id="Group-18-2" data-name="Group-18"><g class="cls-30"><path id="Fill-16-2" data-name="Fill-16" class="cls-4" d="M446.47,50.51s-1.58,3-3.17,3.94h0a5.16,5.16,0,0,1-4.95.51h0s.06-.11.42-.87h0c1.58-3.3,5.78-3.59,7.22-3.59h.48"/></g></g><g id="Group-21-2" data-name="Group-21"><g class="cls-31"><path id="Fill-19-2" data-name="Fill-19" class="cls-4" d="M440.76,49.65c-.62.7-.58.83-.56.85h0c-.2-.1-3.23-1.62-3.45-4h0a11.39,11.39,0,0,1,.7-4.14h0s6.39,3.85,3.31,7.26"/></g></g><g id="Group-24-2" data-name="Group-24"><g class="cls-32"><path id="Fill-22-2" data-name="Fill-22" class="cls-4" d="M446.05,47.16a4.47,4.47,0,0,1-4.45,1.61h0s0-.13.19-1h0c.88-4.56,6.31-5.39,6.31-5.39h0s-.8,3.4-2.05,4.77"/></g></g><g id="Group-27-2" data-name="Group-27"><g class="cls-33"><path id="Fill-25-2" data-name="Fill-25" class="cls-4" d="M443.09,41.48c-.22.8-.15.9-.12.91h0c-.18,0-2.84-.54-3.77-2.58h0a13.48,13.48,0,0,1-.85-3.91h0s5.82,1.66,4.74,5.58"/></g></g><g id="Group-30-2" data-name="Group-30"><g class="cls-34"><path id="Fill-28-2" data-name="Fill-28" class="cls-4" d="M447.51,37.79a5.05,5.05,0,0,1-4.1,3h0s0-.13-.14-1h0c-.62-4.55,4.77-7.12,4.77-7.12h0s.31,3.45-.53,5.13"/></g></g><g id="Group-33-2" data-name="Group-33"><g class="cls-35"><path id="Fill-31-2" data-name="Fill-31" class="cls-4" d="M443.19,35.09c-.06.73,0,.81,0,.81h0a4.52,4.52,0,0,1-3.57-1.62h0a11.94,11.94,0,0,1-1.3-3.24h0s5.17.48,4.84,4.05"/></g></g><g id="Group-36-2" data-name="Group-36"><g class="cls-36"><path id="Fill-34-2" data-name="Fill-34" class="cls-4" d="M446.36,29.25a5.26,5.26,0,0,1-3.91,3.41h0L442,31.8h0c-2-4,3.52-7.25,3.52-7.25h0s1.32,3,.81,4.7"/></g></g><g id="Group-39-2" data-name="Group-39"><g class="cls-37"><path id="Fill-37-2" data-name="Fill-37" class="cls-4" d="M439.77,26.85c.11.65.18.7.2.7h0a3.25,3.25,0,0,1-3.13-.38h0a10.13,10.13,0,0,1-1.74-2.44h0a6.43,6.43,0,0,1,1.5-.18h0c1.24,0,2.84.39,3.17,2.3"/></g></g><g id="Group-42-2" data-name="Group-42"><g class="cls-38"><path id="Fill-40-2" data-name="Fill-40" class="cls-4" d="M443.2,22.19a4.11,4.11,0,0,1-1.6,4h0s-.07-.09-.54-.69h0c-2.53-3.2.17-7.41.17-7.41h0s1.8,2.49,2,4.12"/></g></g><g id="Group-45-2" data-name="Group-45"><g class="cls-39"><path id="Fill-43-2" data-name="Fill-43" class="cls-4" d="M438.07,23.23c.19.68.26.71.28.71h0c-.06,0-1.68,1.18-3,.24h0a9.75,9.75,0,0,1-1.93-2.27h0a5.46,5.46,0,0,1,2.26-.6h0a2.28,2.28,0,0,1,2.34,1.92"/></g></g><g id="Group-48-2" data-name="Group-48"><g class="cls-40"><path id="Fill-46-2" data-name="Fill-46" class="cls-4" d="M439.81,17.91a3.06,3.06,0,0,1-.93,3.4h0a6.85,6.85,0,0,0-.61-.5h0c-2.84-2.27-.9-6-.9-6h0s2.05,1.79,2.44,3.09"/></g></g><g id="Group-51-2" data-name="Group-51"><g class="cls-41"><path id="Fill-49-2" data-name="Fill-49" class="cls-4" d="M434.73,19.41c.28.62.35.63.37.62h0c-.05.07-1.38,1.72-2.72,1.17h0a7.78,7.78,0,0,1-2.16-1.69h0A4.92,4.92,0,0,1,433,18.07h0a1.88,1.88,0,0,1,1.74,1.34"/></g></g><g id="Group-54-2" data-name="Group-54"><g class="cls-42"><path id="Fill-52-2" data-name="Fill-52" class="cls-4" d="M434.73,12.82a3.43,3.43,0,0,1-.27,3.62h0l-.62-.43h0C431,14,432.06,10,432.06,10h0a10.24,10.24,0,0,1,2.67,2.86"/></g></g><g id="Group-57-2" data-name="Group-57"><g class="cls-43"><path id="Fill-55-2" data-name="Fill-55" class="cls-4" d="M431.46,14.37c.3.6.37.61.39.59h0c-.05.07-1.31,1.84-2.67,1.42h0A7,7,0,0,1,427,14.91h0s1.49-1.71,2.88-1.71h0a1.81,1.81,0,0,1,1.61,1.17"/></g></g><g id="Group-60-2" data-name="Group-60"><g class="cls-44"><path id="Fill-58-2" data-name="Fill-58" class="cls-4" d="M426.67,11.79c.21.67.29.71.3.7h0c-.05,0-1.61,1.28-2.9.39h0a9.45,9.45,0,0,1-2-2.2h0a5.16,5.16,0,0,1,2.35-.72h0a2.21,2.21,0,0,1,2.22,1.83"/></g></g><g id="Group-63-2" data-name="Group-63"><g class="cls-45"><path id="Fill-61-2" data-name="Fill-61" class="cls-4" d="M428.61,8.34a8.63,8.63,0,0,1,2.64,1.91h0a2.75,2.75,0,0,1,.32,2.95h0l-.58-.26h0c-2.67-1.16-2.38-4.58-2.38-4.6Z"/></g></g></g></g></g></g></g></g></g></g></svg>