<svg id="Layer_1" data-name="Layer 1" xmlns="http://www.w3.org/2000/svg" width="815.55859" height="366.7545" viewBox="0 0 815.55859 366.7545">
  <defs>
    <style>
      .cls-1 {
        fill: #8f8f91;
      }

      .cls-1, .cls-2 {
        fill-rule: evenodd;
      }

      .cls-2 {
        fill: none;
        stroke: #277bc1;
        stroke-linecap: round;
        stroke-linejoin: round;
        stroke-width: 13.406px;
      }
    </style>
  </defs>
  <path class="cls-1" d="M17.472,210.10093v86.79973H2.64441V80.67347h52.152q33.36,0,50.96848,15.44464,17.68272,15.44547,17.65824,45.15041,0,30.11879-19.71786,49.47477Q84.01133,210.12706,48.567,210.10093Zm0-115.83455V196.51021H48.25788q29.26579,0,44.48-13.95094,15.21448-13.97954,15.239-39.48687,0-48.80794-55.96-48.806Z" transform="translate(-2.64441 -2.73704)"/>
  <path class="cls-1" d="M248.18138,296.90066v-28.057h-.61761q-16.06252,31.7398-49.73215,31.76373-54.67413,0-54.67358-68.88356V142.45314h13.89924v85.7691q0,31.35373,10.34868,45.56343,10.34976,14.13134,32.48528,14.15718,21.62348,0,34.95626-15.856,13.36-15.834,13.33388-42.16355V142.45314h13.90145V296.90066Z" transform="translate(-2.64441 -2.73704)"/>
  <path class="cls-1" d="M523.307,142.45315,473.52039,269.15109l-3.60285,10.39984h-.61761c-.46247-1.49372-.92554-3.19312-1.33747-5.14765-.413-1.39087-1.13293-3.45-2.11078-6.17834l-46.5924-125.77179H376.30377V116.8149q0-38.30392,28.52112-38.30334c7.51746,0,13.181,1.44037,16.88831,4.37549V68.72878c-4.326-1.90344-9.78107-2.88073-16.32074-2.88073q-18.3773,0-30.6836,12.66351-12.27851,12.66458-12.30432,37.11981v26.82178H312.44745V116.8149q0-38.30392,28.52112-38.30334c7.51745,0,13.181,1.44037,16.8883,4.37549V68.72878c-4.326-1.90344-9.78113-2.88073-16.32074-2.88073q-18.37728,0-30.683,12.66351-12.27933,12.66458-12.30487,37.11981v26.82178H270.7486v12.6651h27.79962V296.90066h13.89923V155.11825h49.95709V296.90066h13.89923V155.11825H408.549l53.69879,140.59888-14.3645,34.23474c-7.10388,17.09393-16.885,25.63983-29.241,25.63983a35.10417,35.10417,0,0,1-12.6651-2.11072v13.89978a32.46731,32.46731,0,0,0,12.04584,2.11078q16.14011,0,26.41205-10.08966,10.2681-10.11795,18.68719-30.94208l75.26758-186.00665Z" transform="translate(-2.64441 -2.73704)"/>
  <path class="cls-2" d="M420.2892,125.6248a72.18233,72.18233,0,0,1,7.48725-8.64739c13.12856-12.95587,31.26959-17.98723,51.309-17.99776,2.15433-23.2301,12.74451-47.0232,28.72053-62.40809a97.68293,97.68293,0,0,1,114.3705-15.18541c12.99,7.10913,23.1455,19.07646,31.58135,31.04388,2.04758-.44159,4.12745-.82028,6.23908-1.10424a82.42649,82.42649,0,0,1,11.1341-.76765c17.02116,0,33.82663,3.23862,46.83777,12.1457,12.22195,8.37076,21.96982,23.0044,27.974,36.644,17.73589,1.69294,33.60515,6.68245,45.2725,18.64962a70.81495,70.81495,0,0,1,3.65825,95.202A72.81709,72.81709,0,0,1,752.523,237.95436a70.71635,70.71635,0,0,1-11.37938,1.26188c-.33067.02105-.62906.02105-.89568.02105H521.00007" transform="translate(-2.64441 -2.73704)"/>
</svg>
